<svg id="Layer_1" enable-background="new 0 0 480.034 480.034" height="512" viewBox="0 0 480.034 480.034" width="512" xmlns="http://www.w3.org/2000/svg"><path d="m288.59 412.042c-111.834-.188-201.977-91.267-199.94-204.03 1.76-96.7 71.99-176.14 163.02-193.23 13.13-2.46 21.78 13.07 12.78 22.95-25.13 27.58-40.41 64.3-40.27 104.59.3 85.37 70.57 154.75 155.93 154.01 25.83-.22 50.14-6.78 71.47-18.2 11.76-6.29 24.69 5.96 19.06 18.06-31.92 68.52-101.45 115.99-182.05 115.85z" fill="#ffe773"/><path d="m206.096 341.816c21.529 19.056-3.891 52.646-27.882 36.802-95.117-62.814-115.249-187.301-57.089-276.319 11.628-17.797 39.099-3.624 31.318 16.16-29.576 75.198-11.84 165.387 53.653 223.357z" fill="#fff0a6"/><g><path d="m447.804 271.083c-20.701 11.081-44.133 17.047-67.762 17.252-81.485.606-147.582-65.423-147.859-146.04-.126-36.788 13.433-72.01 38.182-99.179 14.18-15.566.486-40.077-20.175-36.195-105.819 19.865-182.143 119.689-167.882 231.6.559 4.383 4.571 7.482 8.947 6.925 4.383-.559 7.483-4.564 6.925-8.947-13.159-103.24 57.471-195.55 154.961-213.852 5.576-1.057 9.238 5.476 5.395 9.695-57.829 63.484-57.082 162.56 6.067 224.949 53.112 52.472 130.819 59.98 190.752 27.898 4.97-2.66 10.43 2.474 8.032 7.625-35.603 76.44-118.427 122.346-204.602 108.906-4.364-.682-8.456 2.306-9.137 6.671s2.306 8.457 6.671 9.137c93.95 14.653 183.017-35.18 221.572-117.959 8.883-19.074-11.552-38.407-30.087-28.486z"/><path d="m307.672 114.192h5.708v5.708c0 4.418 3.582 8 8 8s8-3.582 8-8v-5.708h5.708c4.418 0 8-3.582 8-8s-3.582-8-8-8h-5.708v-5.708c0-4.418-3.582-8-8-8s-8 3.582-8 8v5.708h-5.708c-4.418 0-8 3.582-8 8s3.582 8 8 8z"/><path d="m349.063 217h5.708v5.708c0 4.418 3.582 8 8 8s8-3.582 8-8v-5.708h5.708c4.418 0 8-3.582 8-8s-3.582-8-8-8h-5.708v-5.708c0-4.418-3.582-8-8-8s-8 3.582-8 8v5.708h-5.708c-4.418 0-8 3.582-8 8s3.582 8 8 8z"/><path d="m409.034 122.759h5.708v5.708c0 4.418 3.582 8 8 8s8-3.582 8-8v-5.708h5.708c4.418 0 8-3.582 8-8s-3.582-8-8-8h-5.708v-5.708c0-4.418-3.582-8-8-8s-8 3.582-8 8v5.708h-5.708c-4.418 0-8 3.582-8 8s3.582 8 8 8z"/><path d="m125.581 273.181c3.374 0 5.134-1.927 6.08-2.655 3.5-2.697 4.15-7.721 1.453-11.22-2.698-3.499-7.721-4.15-11.22-1.453-.549.424-1.094.874-1.619 1.339-5.482 4.854-2.045 13.989 5.306 13.989z"/><path d="m171 282.022c0-8.182-3.196-15.865-9-21.633-3.133-3.115-8.199-3.1-11.313.034-3.115 3.134-3.1 8.199.034 11.313 9.153 9.098 2.638 24.785-10.221 24.785h-132.5c-4.418 0-8 3.582-8 8s3.582 8 8 8h132.5c16.818.001 30.5-13.682 30.5-30.499z"/><path d="m200.5 412.522h-114.855c-4.418 0-8 3.582-8 8s3.582 8 8 8h114.855c7.995 0 14.5 6.505 14.5 14.5 0 12.097-13.96 18.77-23.373 11.469-3.492-2.707-8.518-2.071-11.225 1.42-2.707 3.492-2.071 8.517 1.42 11.225 19.807 15.356 49.178 1.345 49.178-24.114 0-16.818-13.682-30.5-30.5-30.5z"/><path d="m47.968 412.522h-9.968c-4.418 0-8 3.582-8 8s3.582 8 8 8h9.968c4.418 0 8-3.582 8-8s-3.582-8-8-8z"/><path d="m278 333.022c0-20.391-16.589-36.98-36.98-36.98-11.908 0-23.158 5.788-30.093 15.483-2.57 3.594-1.741 8.591 1.853 11.161 3.596 2.571 8.592 1.741 11.161-1.853 3.938-5.505 10.322-8.792 17.079-8.792 11.568 0 20.98 9.412 20.98 20.98s-9.412 20.98-20.98 20.98h-83.052c-4.418 0-8 3.582-8 8s3.582 8 8 8h83.052c20.391.001 36.98-16.589 36.98-36.979z"/><path d="m89 354.002c-4.418 0-8 3.582-8 8s3.582 8 8 8h31.032c4.418 0 8-3.582 8-8s-3.582-8-8-8z"/></g></svg>