<svg id="Layer_1" enable-background="new 0 0 479.974 479.974" height="512" viewBox="0 0 479.974 479.974" width="512" xmlns="http://www.w3.org/2000/svg"><path d="m469.207 172.042c7.69-17.9-1.13-38.68-19.46-45.3-40.77-14.72-71.45-35.99-95.73-96.88-7.21-18.09-28.15-26.55-45.78-18.27-39.24 18.42-75.98 25.07-136.2-.82-17.9-7.69-38.68 1.13-45.3 19.46-14.72 40.77-35.99 71.45-96.88 95.73-18.09 7.21-26.55 28.15-18.27 45.78 18.42 39.24 25.07 75.98-.82 136.2-7.69 17.9 1.13 38.68 19.46 45.3 40.77 14.72 71.45 35.99 95.73 96.88 7.21 18.09 28.15 26.55 45.78 18.27 39.24-18.42 75.98-25.07 136.2.82 17.9 7.69 38.68-1.13 45.3-19.46 14.72-40.77 35.99-71.45 96.88-95.73 18.09-7.21 26.55-28.15 18.27-45.78-18.42-39.24-25.07-75.98.82-136.2z" fill="#ffe773"/><path d="m242.657 66.662c95.72 1.48 172.13 80.27 170.66 176-1.48 95.72-80.27 172.13-176 170.66-95.72-1.48-172.13-80.27-170.66-176 1.48-95.72 80.27-172.13 176-170.66z" fill="#fff0a6"/><path d="m269.992 116.816c-78.008 9.968-143.299 75.782-153.042 153.812-3.389 27.138-42.444 27.975-47.42 1.083-21.977-118.776 81.39-223.897 201.349-202.321 26.974 4.851 26.299 43.953-.887 47.426z" fill="#fff8d6"/><path d="m215.547 113.302c-58.751 11.279-103.587 62.479-104.54 124.71-1.124 71.065 55.639 129.885 127 130.96 71.707 1.113 129.887-56.243 130.96-127 1.253-81.958-73.206-144.075-153.42-128.67z" fill="#585966"/><path d="m348.887 170.822c22.267 34.977 25.69 77.589 11.986 114.28-40.835 22.503-92.366-6.693-92.366-54.62 0-41.797 40.409-71.749 80.38-59.66z" fill="#42434d"/><path d="m269.026 114.419c26.19 5.983 24.109 44.192-2.587 47.206-60.635 6.844-114.363 56.591-115.432 126.387-.297 18.807 3.451 37.503 11.35 55.01-53.85-40.653-66.724-114.915-32.13-170.85 31.62-51.046 88.363-69.274 138.799-57.753z" fill="#6e6f80"/><path d="m229.427 309.712c0 22.35-11.77 41.95-29.44 52.95h-.01c-40.95-13.34-72.79-46.58-84.32-88.14 11.23-16.39 30.08-27.14 51.45-27.14 34.41 0 62.32 27.91 62.32 62.33z" fill="#42434d"/><path d="m120.33 288.28c-1.807-4.469-3.37-9.06-4.673-13.758 9.6-14.01 24.76-23.89 42.31-26.47-3.837 11.165-6.15 22.971-6.796 35.008-.925 17.221-24.377 21.21-30.841 5.22z" fill="#585966"/><path d="m215.547 113.302c15.075 34.603-10.256 73.87-48.44 73.87-14.48 0-27.906-5.991-36.88-15 18.67-30.14 49.38-51.97 85.32-58.87z" fill="#585966"/><g><path d="m405.141 195.178c5.413 0 9.272-5.278 7.622-10.438-.454-1.417-.924-2.828-1.411-4.23-1.45-4.174-6.01-6.382-10.182-4.933-4.174 1.45-6.382 6.008-4.933 10.182.443 1.278.872 2.563 1.285 3.854 1.088 3.398 4.232 5.565 7.619 5.565z"/><path d="m389.457 151.782c3.695-2.422 4.728-7.381 2.306-11.076-33.062-50.444-88.757-81.114-148.985-82.041-100.195-1.56-182.576 78.308-184.118 178.537-1.543 100.212 78.308 182.575 178.537 184.117 100.223 1.533 182.575-78.307 184.117-178.537.068-4.418-3.458-8.054-7.876-8.122-4.384-.053-8.054 3.458-8.122 7.876-.68 44.161-18.516 85.414-50.223 116.16-65.596 63.608-170.185 62.015-233.81-3.598-63.616-65.605-62.015-170.185 3.598-233.81 74.91-72.64 196.8-58.322 253.5 28.188 2.421 3.696 7.38 4.728 11.076 2.306z"/><path d="m142.347 311.47c-2.612-3.562-7.619-4.333-11.182-1.72-3.563 2.612-4.333 7.619-1.721 11.182 25.628 34.951 65.151 55.378 108.434 56.044 59.042.928 110.356-35.955 130.287-88.603.164-.366.305-.74.413-1.125 32.597-88.457-32.423-182.791-126.484-184.238-49.527-.76-93.437 25.022-118.11 64.176-.411.513-.742 1.066-1.008 1.642-20.316 33.267-24.822 72.499-15.015 107.867 1.828 6.486 10.439 7.922 14.273 2.376 10.611-15.367 27.495-23.684 44.867-23.684 31.336 0 56.42 26.623 54.184 58.225-.327 4.616 3.325 8.565 7.988 8.565 4.161 0 7.673-3.221 7.972-7.436 2.898-40.837-29.542-75.354-70.144-75.354-17.487 0-34.115 6.499-46.871 17.902-3.619-25.298.744-50.631 12.308-72.894 29.79 20.653 72.186 10.928 89.049-22.991 1.967-3.957.354-8.758-3.602-10.725-3.958-1.966-8.758-.354-10.725 3.603-12.659 25.463-44.594 32.235-66.414 16.408 22.272-31.764 59.377-52.331 101.002-51.682 82.141 1.264 139.366 82.787 112.53 160.431-35.982 17.309-77.872-9.013-77.872-48.952 0-17.472 8.491-33.99 22.714-44.185 3.591-2.574 4.416-7.572 1.841-11.163-2.573-3.591-7.572-4.416-11.163-1.841-18.405 13.192-29.393 34.572-29.393 57.189 0 44.459 41.038 78.092 84.949 68.778-43.349 76.842-151.13 83.087-203.107 12.205z"/><path d="m476.553 175.201c9.355-21.76-1.058-47.666-24.085-55.98-39.097-14.117-67.96-34.484-91.017-92.319-8.77-21.999-34.452-32.959-56.615-22.554-29.731 13.956-52.791 18.052-79.587 14.14-4.372-.636-8.434 2.388-9.072 6.76-.639 4.372 2.388 8.434 6.76 9.072 37.442 5.469 65.848-4.761 88.698-15.488 13.344-6.266 29.386.029 34.954 13.995 23.391 58.677 52.979 84.305 100.446 101.443 13.866 5.007 20.758 20.799 14.82 34.612-24.948 58.027-22.154 97.068-.705 142.757 6.267 13.35-.031 29.386-13.995 34.954-58.677 23.391-84.305 52.979-101.443 100.446-5.007 13.866-20.8 20.759-34.612 14.82-58.027-24.948-97.07-22.153-142.757-.705-13.347 6.264-29.386-.029-34.954-13.995-23.391-58.677-52.979-84.305-100.446-101.443-13.866-5.007-20.759-20.799-14.82-34.612 24.948-58.027 22.154-97.068.705-142.757-6.267-13.35.031-29.386 13.995-34.954 58.675-23.393 84.303-52.981 101.441-100.447 5.076-14.059 20.991-20.675 34.612-14.82 4.06 1.747 8.764-.131 10.509-4.19s-.131-8.764-4.19-10.509c-21.759-9.354-47.666 1.056-55.98 24.085-14.117 39.097-34.484 67.96-92.319 91.017-22.001 8.771-32.958 34.453-22.553 56.615 17.664 37.628 23.671 72.439-.921 129.639-9.355 21.76 1.058 47.666 24.085 55.98 39.097 14.117 67.96 34.484 91.017 92.319 8.771 22.001 34.453 32.958 56.615 22.554 37.628-17.664 72.439-23.671 129.639.921 21.574 9.275 47.604-.884 55.98-24.085 14.117-39.097 34.484-67.96 92.319-91.017 22.001-8.771 32.958-34.453 22.554-56.615-17.663-37.628-23.671-72.44.922-129.639z"/></g></svg>