<svg id="Layer_1" enable-background="new 0 0 480.006 480.006" height="512" viewBox="0 0 480.006 480.006" width="512" xmlns="http://www.w3.org/2000/svg"><circle cx="240.003" cy="240.005" fill="#fff8d6" r="232.001"/><path d="m393.637 142.416c-39.218-61.624-110.723-93.528-182.404-82.15-78.616 12.473-141.352 75.74-151.73 156.26-12.759 101.065 57.713 188.375 151.91 203.24 87.267 13.783 169.453-36.555 199.147-116.12 19.164-51.352 14.775-111.423-16.923-161.23z" fill="#ff6d7a"/><path d="m223.063 387.276c14.82 10.77 5.76 33.65-11.65 32.49-94.197-14.866-164.669-102.175-151.91-203.24 10.378-80.52 73.114-143.787 151.73-156.26 17.56-1.39 26.55 21.74 11.68 32.57-99.714 72.679-100.064 221.557.15 294.44z" fill="#ffe773"/><path d="m393.637 142.416c31.588 49.626 36.162 109.707 16.922 161.23-12.58 6.93-27.017 10.87-42.397 10.87-48.56 0-87.92-39.36-87.92-87.92.001-59.065 57.129-101.214 113.395-84.18z" fill="#fe4f60"/><path d="m214.353 380.516c-37.76-31.09-62.88-77.16-66.02-129.38 61.532 7.803 95.542 75.42 66.02 129.38z" fill="#fe4f60"/><path d="m147.015 375.458c-6.188 8.078-17.887 9.242-25.594 2.597-47.33-40.802-72.019-104.019-60.797-169.161 3.793-22.017 36.599-18.144 35.016 4.141-3.816 53.72 15.649 103.473 50.093 139.47 6.025 6.297 6.582 16.035 1.282 22.953z" fill="#fff0a6"/><g><path d="m406.696 296.639c-11.725 6.464-25.047 9.881-38.528 9.881-44.072 0-79.927-35.855-79.927-79.927 0-31.278 18.405-59.855 46.89-72.803 4.022-1.828 5.801-6.571 3.972-10.593-1.828-4.022-6.57-5.802-10.593-3.972-34.182 15.538-56.269 49.832-56.269 87.369 0 63.8 61.474 110.105 123.04 92.019-30.212 59.646-92.6 97.125-159.884 95.337 6.183-11.793 2.973-25.432-7.628-33.142-39.455-28.696-64.762-71.929-70.511-119.815 32.421 8.421 56.842 36.812 59.582 70.865.353 4.392 4.199 7.688 8.616 7.333 4.404-.354 7.687-4.212 7.333-8.616-3.434-42.681-35.245-77.939-76.733-86.253-1.363-57.371 24.651-110.824 71.569-145.018 22.216-16.192 7.487-51.334-19.581-46.689-90.154 15.47-156.61 93.05-158.02 184.468-1.452 94.746 66.821 174.651 157.933 190.324 87.475 15.028 177.586-33.809 210.106-120.962 2.592-6.968-4.921-13.357-11.367-9.806zm-340.674-59.31c1.292-83.725 62.158-154.776 144.727-168.946 10.311-1.77 16.106 11.682 7.451 17.989-104.154 75.909-104.383 231.34.158 307.374 4.691 3.412 4.78 8.375 3.299 11.881-1.504 3.561-5.178 7.013-10.987 6.011-85.138-14.643-145.971-87.952-144.648-174.309z"/><path d="m284.199 55.178c-4.297-1.022-8.612 1.631-9.636 5.929s1.631 8.612 5.929 9.636c78.594 18.718 134.735 91.03 133.49 171.94-.068 4.417 3.458 8.054 7.876 8.122 4.496.052 8.055-3.518 8.122-7.876 1.39-90.266-60.706-167.489-145.781-187.751z"/><path d="m194.685 20.43c4.527 0 60.235-15.256 127.079 10.964 4.114 1.612 8.755-.413 10.369-4.526 1.613-4.113-.413-8.755-4.526-10.369-43.591-17.099-90.591-20.606-134.467-11.919-4.334.858-7.152 5.067-6.294 9.401.754 3.811 4.097 6.449 7.839 6.449z"/><path d="m75.989 83.922c2.047 0 4.094-.781 5.656-2.342 14.615-14.609 31.143-27.119 49.125-37.184 3.855-2.158 5.231-7.033 3.074-10.888s-7.032-5.232-10.888-3.074c-19.264 10.782-36.968 24.182-52.622 39.829-5.045 5.043-1.422 13.659 5.655 13.659z"/><path d="m58.724 108.395c.805-1.106 1.619-2.205 2.443-3.296 2.665-3.525 1.967-8.542-1.558-11.206-3.525-2.663-8.542-1.967-11.206 1.559-.883 1.169-1.756 2.347-2.619 3.532-3.879 5.334.028 12.706 6.463 12.706 2.473 0 4.911-1.142 6.477-3.295z"/><path d="m16.003 240.006c0-21.033 2.91-41.847 8.65-61.864 1.218-4.247-1.238-8.677-5.485-9.895-4.249-1.218-8.677 1.238-9.895 5.485-6.151 21.452-9.27 43.75-9.27 66.274 0 4.418 3.582 8 8 8s8-3.582 8-8z"/><path d="m28.24 313.224c-1.443-4.176-5.999-6.389-10.175-4.947-4.176 1.444-6.391 5.999-4.947 10.175 4.429 12.811 9.998 25.337 16.554 37.233 1.458 2.645 4.193 4.14 7.014 4.14 5.996 0 9.963-6.485 6.999-11.863-6.117-11.099-11.313-22.787-15.445-34.738z"/><path d="m102.589 416.919c-4.836-3.762-9.578-7.773-14.095-11.923-3.254-2.989-8.315-2.775-11.303.479-2.989 3.254-2.775 8.314.479 11.304 4.837 4.444 9.916 8.74 15.095 12.77 3.473 2.701 8.501 2.101 11.227-1.402 2.713-3.489 2.085-8.515-1.403-11.228z"/><path d="m240.003 464.006c-34.577 0-67.728-7.663-98.532-22.777-3.967-1.946-8.76-.309-10.706 3.658s-.308 8.76 3.658 10.706c33.017 16.199 68.539 24.413 105.58 24.413 4.418 0 8-3.582 8-8s-3.582-8-8-8z"/><path d="m358.234 430.299c-11.067 6.891-22.797 12.84-34.863 17.681-4.101 1.646-6.091 6.303-4.446 10.404 1.648 4.108 6.31 6.088 10.404 4.446 12.932-5.188 25.502-11.563 37.362-18.948 3.75-2.335 4.898-7.269 2.563-11.02-2.335-3.75-7.269-4.898-11.02-2.563z"/><path d="m387.342 408.733c-.491.429-.984.856-1.479 1.281-3.354 2.876-3.741 7.927-.864 11.28 2.866 3.343 7.917 3.75 11.28.864.535-.458 1.066-.919 1.596-1.382 3.326-2.909 3.664-7.962.755-11.288s-7.963-3.665-11.288-.755z"/><path d="m465.885 293.765c-4.262-1.171-8.662 1.339-9.83 5.601-2.673 9.75-6.045 19.407-10.024 28.703-2.27 5.302 1.657 11.15 7.351 11.15 3.105 0 6.06-1.819 7.358-4.854 4.265-9.965 7.881-20.317 10.746-30.769 1.168-4.262-1.34-8.663-5.601-9.831z"/><path d="m444.909 114.988c-2.304-3.769-7.228-4.957-10.998-2.652-3.77 2.304-4.957 7.229-2.652 10.998 21.422 35.039 32.745 75.383 32.745 116.672 0 4.418 3.582 8 8 8s8-3.582 8-8c-.001-44.236-12.136-87.466-35.095-125.018z"/><path d="m401.794 85.088c3.047 3.18 8.111 3.308 11.312.242 3.19-3.057 3.298-8.121.242-11.312-1.212-1.265-2.437-2.516-3.675-3.754-3.125-3.123-8.189-3.122-11.314.002-3.124 3.125-3.123 8.19.002 11.314 1.157 1.157 2.302 2.326 3.433 3.508z"/></g></svg>