<svg id="Layer_1" enable-background="new 0 0 481.133 481.133" height="512" viewBox="0 0 481.133 481.133" width="512" xmlns="http://www.w3.org/2000/svg"><path d="m472.508 239.968c0 53.017-42.974 95.991-95.98 95.991h-289.466c-43.359 0-78.496-35.137-78.496-78.496 0-45.043 37.647-80.291 81.708-78.417-17.006-71.978 25.194-143.984 94.905-165.089 87.177-26.485 177.783 37.906 179.327 130.766 56.977-7.203 108.002 37.183 108.002 95.245z" fill="#cbe3fa"/><g fill="#eef7ff"><path d="m205.952 58.11c-33.422 20.325-55.595 57.754-51.99 109.354 1.431 20.48-15.938 30.26-15.803 30.114-19.101 11.383-43.761.691-48.457-21.044-15.657-72.454 27.834-142.863 96.971-163.021 27.648-8.062 43.886 29.633 19.279 44.597z"/><path d="m378.064 193.165c-15.418 6.226-29.379 16.146-40.782 29.15-7.638 8.711-20.772 11.93-32.751 5.53-13.421-7.171-18.211-24.133-10.382-37.182 15.112-25.19 41.235-42.634 71.556-46.084 29.232-3.326 39.641 37.569 12.359 48.586z"/><path d="m84.876 212.109c-20.595 9.9-30.912 27.415-37.115 47.237-7.106 22.709-40.835 16.16-39.016-7.566 2.582-33.682 26.44-65.269 65.362-71.74 2.463 11.099 5.958 21.711 10.769 32.069z"/></g><g><path d="m376.566 136c-57.346 0-104 46.654-104 104 0 4.418 3.582 8 8 8s8-3.582 8-8c0-48.523 39.477-88 88-88s88 39.477 88 88-39.477 88-88 88h-289.5c-38.874 0-70.5-31.626-70.5-70.5 0-22.938 11.221-44.518 30.017-57.726 3.615-2.54 4.486-7.53 1.946-11.145s-7.53-4.486-11.146-1.946c-23.053 16.201-36.817 42.674-36.817 70.817 0 47.696 38.804 86.5 86.5 86.5h289.5c57.346 0 104-46.654 104-104s-46.654-104-104-104z"/><path d="m109.962 232.194c6.311 0 10.221-7.098 6.642-12.45-14.418-21.547-22.038-46.702-22.038-72.744 0-72.233 58.767-131 131-131 53.394 0 100.987 31.918 121.252 81.315 1.678 4.088 6.351 6.041 10.438 4.365 4.088-1.677 6.042-6.35 4.365-10.438-22.276-54.299-75.379-91.242-136.055-91.242-81.056 0-147 65.944-147 147 0 29.221 8.555 57.452 24.738 81.642 1.544 2.306 4.077 3.552 6.658 3.552z"/><path d="m107.566 461.868h-16c-4.418 0-8-3.582-8-8v-16c0-4.418 3.582-8 8-8h16c4.418 0 8 3.582 8 8v16c0 4.418-3.581 8-8 8z"/><path d="m202.604 409.443 14.647-6.303c4.058-1.746 8.764.128 10.511 4.186l6.327 14.701c1.747 4.059-.128 8.765-4.186 10.511l-14.539 6.256c-4.037 1.737-8.72-.108-10.487-4.132l-6.434-14.654c-1.788-4.066.081-8.809 4.161-10.565z"/><path d="m298.319 460.11-3.606 14.902c-1.039 4.294-5.363 6.933-9.657 5.894l-14.97-3.622c-4.294-1.039-6.933-5.363-5.894-9.657l3.615-14.939c1.041-4.302 5.377-6.941 9.676-5.889l14.961 3.659c4.284 1.047 6.912 5.365 5.875 9.652z"/><path d="m160.227 393.004c0 4.418-3.582 8-8 8h-16.004c-4.418 0-8-3.582-8-8v-16.004c0-4.418 3.582-8 8-8h16.004c4.418 0 8 3.582 8 8z"/><path d=""/><path d="m332.227 394.004c0 4.418-3.582 8-8 8h-16.004c-4.418 0-8-3.582-8-8v-16.004c0-4.418 3.582-8 8-8h16.004c4.418 0 8 3.582 8 8z"/><path d=""/><path d="m385.722 452.522c-3.124 3.124-8.189 3.124-11.313 0l-11.13-11.13c-3.124-3.124-3.124-8.19 0-11.314l11.13-11.128c3.124-3.124 8.19-3.123 11.314.001l11.129 11.131c3.124 3.124 3.123 8.19-.001 11.314z"/></g></svg>