<svg id="Layer_1" enable-background="new 0 0 480 480" height="512" viewBox="0 0 480 480" width="512" xmlns="http://www.w3.org/2000/svg"><path d="m471.941 239.968c0 53.017-42.974 95.991-95.98 95.991h-289.465c-43.359 0-78.496-35.137-78.496-78.496 0-45.043 37.647-80.291 81.708-78.417-17.006-71.978 25.194-143.984 94.905-165.089 87.177-26.485 177.783 37.907 179.327 130.767 56.977-7.204 108.001 37.182 108.001 95.244z" fill="#cbe3fa"/><g fill="#eef7ff"><path d="m205.386 58.11c-33.422 20.325-55.595 57.754-51.99 109.354 1.431 20.48-15.938 30.26-15.803 30.114-19.101 11.383-43.761.691-48.457-21.044-15.657-72.454 27.833-142.863 96.971-163.021 27.648-8.062 43.885 29.633 19.279 44.597z"/><path d="m377.498 193.165c-15.418 6.226-29.379 16.146-40.783 29.15-7.638 8.711-20.772 11.93-32.751 5.53-13.421-7.171-18.211-24.133-10.383-37.182 15.112-25.19 41.235-42.634 71.556-46.084 29.234-3.326 39.642 37.569 12.361 48.586z"/><path d="m84.31 212.109c-20.595 9.9-30.912 27.415-37.115 47.237-7.106 22.709-40.835 16.16-39.016-7.566 2.582-33.682 26.44-65.269 65.362-71.74 2.462 11.099 5.957 21.711 10.769 32.069z"/></g><g><circle cx="392.5" cy="465.5" r="14.5"/><path d="m88.842 430.263c-8.735 0-15.842 7.107-15.842 15.843s7.107 15.842 15.842 15.842 15.842-7.106 15.842-15.842-7.106-15.843-15.842-15.843z"/><path d="m295.32 432.57c-5.492 0-9.96 4.468-9.96 9.96s4.468 9.961 9.96 9.961 9.96-4.469 9.96-9.961-4.467-9.96-9.96-9.96z"/><path d="m243.32 382.57c-5.492 0-9.96 4.468-9.96 9.96s4.468 9.961 9.96 9.961 9.96-4.469 9.96-9.961-4.467-9.96-9.96-9.96z"/><path d="m191.316 449.368c-8.445 0-15.316 6.871-15.316 15.316s6.871 15.316 15.316 15.316 15.315-6.87 15.315-15.315-6.87-15.317-15.315-15.317z"/><circle cx="363.131" cy="396.5" r="13.5"/><path d="m135.316 376.368c-7.342 0-13.316 5.974-13.316 13.316s5.974 13.315 13.316 13.315 13.315-5.974 13.315-13.315c0-7.342-5.973-13.316-13.315-13.316z"/><path d="m376 136c-57.346 0-104 46.654-104 104 0 4.418 3.582 8 8 8s8-3.582 8-8c0-48.523 39.477-88 88-88s88 39.477 88 88-39.477 88-88 88h-289.5c-38.874 0-70.5-31.626-70.5-70.5 0-22.938 11.221-44.518 30.016-57.727 3.615-2.54 4.486-7.53 1.946-11.145-2.541-3.615-7.532-4.486-11.145-1.945-23.054 16.202-36.817 42.674-36.817 70.817 0 47.696 38.804 86.5 86.5 86.5h289.5c57.346 0 104-46.654 104-104s-46.654-104-104-104z"/><path d="m109.395 232.194c6.325 0 10.215-7.108 6.642-12.449-14.417-21.549-22.037-46.703-22.037-72.745 0-72.233 58.766-131 131-131 53.394 0 100.988 31.918 121.252 81.315 1.676 4.088 6.348 6.04 10.438 4.365 4.088-1.677 6.042-6.35 4.365-10.438-22.275-54.299-75.377-91.242-136.055-91.242-81.056 0-147 65.944-147 147 0 29.221 8.555 57.451 24.739 81.642 1.542 2.306 4.075 3.552 6.656 3.552z"/></g></svg>