<svg id="Layer_1" enable-background="new 0 0 479.974 479.974" height="512" viewBox="0 0 479.974 479.974" width="512" xmlns="http://www.w3.org/2000/svg"><path d="m469.207 172.04c7.69-17.9-1.13-38.68-19.46-45.3-40.77-14.72-71.45-35.99-95.73-96.88-7.21-18.09-28.15-26.55-45.78-18.27-39.24 18.42-75.98 25.07-136.2-.82-17.9-7.69-38.68 1.13-45.3 19.46-14.72 40.77-35.99 71.45-96.88 95.73-18.09 7.21-26.55 28.15-18.27 45.78 18.42 39.24 25.07 75.98-.82 136.2-7.69 17.9 1.13 38.68 19.46 45.3 40.77 14.72 71.45 35.99 95.73 96.88 7.21 18.09 28.15 26.55 45.78 18.27 39.24-18.42 75.98-25.07 136.2.82 17.9 7.69 38.68-1.13 45.3-19.46 14.72-40.77 35.99-71.45 96.88-95.73 18.09-7.21 26.55-28.15 18.27-45.78-18.42-39.239-25.07-75.979.82-136.2z" fill="#ffe773"/><path d="m242.657 66.66c95.72 1.48 172.13 80.27 170.66 176-1.48 95.72-80.27 172.13-176 170.66-95.72-1.48-172.13-80.27-170.66-176 1.48-95.719 80.27-172.13 176-170.66z" fill="#fff0a6"/><path d="m269.992 116.815c-78.008 9.968-143.299 75.782-153.042 153.812-3.389 27.138-42.444 27.975-47.42 1.083-21.977-118.776 81.39-223.898 201.349-202.322 26.974 4.852 26.299 43.953-.887 47.427z" fill="#fff8d6"/><g><path d="m141.957 173.78c2.449 0 4.868-1.121 6.437-3.241 10.138-13.697 23.502-25.018 38.649-32.74 3.937-2.007 5.5-6.824 3.494-10.76-2.007-3.937-6.824-5.501-10.761-3.494-17.341 8.84-32.64 21.799-44.243 37.475-3.938 5.321-.05 12.76 6.424 12.76z"/><path d="m123.749 210.222c3.447 0 6.63-2.246 7.664-5.719.591-1.983 1.245-3.972 1.946-5.913 1.5-4.156-.654-8.741-4.81-10.24-4.157-1.501-8.741.654-10.241 4.81-.803 2.225-1.553 4.505-2.229 6.777-1.528 5.127 2.321 10.285 7.67 10.285z"/><path d="m476.553 175.199c9.354-21.759-1.056-47.665-24.085-55.98-24.473-8.836-50.007-21.365-70.95-52.93-2.443-3.682-7.407-4.686-11.089-2.243s-4.686 7.407-2.243 11.089c23.512 35.439 51.792 49.365 78.849 59.134 13.865 5.006 20.759 20.8 14.82 34.612-24.948 58.027-22.154 97.069-.705 142.758 6.265 13.345-.029 29.386-13.995 34.954-58.677 23.392-84.305 52.979-101.443 100.446-5.007 13.866-20.8 20.759-34.612 14.82-58.026-24.948-97.068-22.153-142.757-.705-13.345 6.265-29.386-.029-34.954-13.995-23.389-58.672-52.972-84.303-100.446-101.444-13.865-5.006-20.759-20.8-14.82-34.612 24.948-58.027 22.154-97.069.705-142.758-6.265-13.345.029-29.386 13.995-34.954 58.677-23.392 84.305-52.979 101.443-100.446 5.076-14.059 20.991-20.677 34.612-14.82 58.027 24.948 97.069 22.153 142.757.705 13.345-6.264 29.386.029 34.954 13.995 1.637 4.104 6.29 6.104 10.394 4.469 4.104-1.636 6.105-6.29 4.469-10.394-8.771-22-34.452-32.957-56.615-22.553-37.629 17.664-72.44 23.671-129.639-.921-21.759-9.355-47.666 1.057-55.98 24.085-14.117 39.097-34.484 67.96-92.319 91.017-22.004 8.771-32.96 34.452-22.556 56.615 17.664 37.628 23.671 72.44-.921 129.639-9.354 21.759 1.056 47.665 24.085 55.98 39.097 14.116 67.96 34.484 91.017 92.32 8.771 22 34.452 32.957 56.615 22.553 37.629-17.664 72.44-23.671 129.639.921 21.614 9.293 47.616-.919 55.98-24.085 14.117-39.097 34.484-67.96 92.319-91.017 22.002-8.771 32.958-34.452 22.554-56.615-17.663-37.629-23.671-72.441.922-129.64z"/><path d="m70.367 276.827c-4.271 1.134-6.813 5.515-5.679 9.785.283 1.066.575 2.128.877 3.187 1.21 4.242 5.632 6.712 9.888 5.498 4.249-1.212 6.71-5.639 5.498-9.888-.275-.964-.542-1.932-.799-2.903-1.134-4.271-5.517-6.812-9.785-5.679z"/><path d="m85.451 319.01c-3.835 2.194-5.165 7.082-2.971 10.917 31.733 55.459 91.077 91.429 157.583 91.412 98.811-.002 179.722-79.196 181.25-178.559 1.543-100.213-78.309-182.575-178.537-184.117-100.226-1.531-182.574 78.312-184.115 178.537-.068 4.418 3.458 8.054 7.876 8.122 4.421.074 8.054-3.458 8.122-7.876 1.406-91.366 76.488-164.198 167.873-162.785 91.372 1.406 164.191 76.487 162.785 167.873-1.406 91.331-76.464 164.207-167.873 162.785-58.117-.894-112.174-32.828-141.076-83.339-2.195-3.835-7.083-5.165-10.917-2.97z"/></g></svg>