<svg id="Layer_1" enable-background="new 0 0 480.01 480.01" height="512" viewBox="0 0 480.01 480.01" width="512" xmlns="http://www.w3.org/2000/svg"><path d="m439.874 315.711c13.73-7.35 28.82 6.95 22.25 21.07-37.26 79.98-118.42 135.39-212.5 135.23-131.1-.23-235.75-107.08-233.37-238.16 2.05-112.87 84.03-205.59 190.28-225.53 15.33-2.88 25.42 15.25 14.92 26.78-29.33 32.2-47.17 75.05-47 122.08.34 99.65 82.36 180.63 182 179.77 30.15-.26 58.53-7.92 83.42-21.24z" fill="#ffe773"/><path d="m150.803 388.937c22.157 23.863-8.776 59.307-35.411 40.572-113.41-79.769-133.092-240.152-41.332-344.845 21.468-24.493 59.985 2.523 44.071 30.94-48.673 86.911-37.313 197.961 32.672 273.333z" fill="#fff0a6"/><g><path d="m436.098 308.655c-24.352 13.036-51.917 20.053-79.713 20.295-94.885.857-173.606-76.155-173.935-171.794-.149-43.275 15.802-84.709 44.916-116.67 15.687-17.221.545-44.32-22.313-40.033-53.683 10.078-102.981 38.698-138.814 80.585-100.841 117.88-66.072 300.72 72.833 372.243 3.925 2.023 8.752.479 10.774-3.45 2.023-3.928.478-8.752-3.45-10.775-76.92-39.607-123.722-118.18-122.144-205.058 1.937-106.588 79.216-198.194 183.753-217.819 7.789-1.469 12.874 7.668 7.533 13.533-31.817 34.929-49.25 80.209-49.087 127.499.357 103.765 85.161 187.75 188.407 187.746 30.617 0 61.376-7.52 88.792-22.195 6.954-3.721 14.556 3.48 11.219 10.643-36.97 79.376-117.341 130.606-204.84 130.606-5.204 0-8.397 3.827-8.405 7.985-.008 4.418 3.568 8.006 7.986 8.014 96.751 0 180.885-56.379 219.763-139.85 9.827-21.099-12.776-42.477-33.275-31.505z"/><path d="m183.029 453.994c-1.231-.38-2.459-.769-3.682-1.169-4.199-1.373-8.717.918-10.09 5.117-1.374 4.2.917 8.717 5.117 10.09 1.31.428 2.624.846 3.943 1.252 4.189 1.293 8.691-1.036 10.001-5.289 1.301-4.222-1.066-8.7-5.289-10.001z"/><path d="m260.214 123.011h8v8c0 4.418 3.582 8 8 8s8-3.582 8-8v-8h8c4.418 0 8-3.582 8-8s-3.582-8-8-8h-8v-8c0-4.418-3.582-8-8-8s-8 3.582-8 8v8h-8c-4.418 0-8 3.582-8 8s3.582 8 8 8z"/><path d="m320.214 243.011h8v8c0 4.418 3.582 8 8 8s8-3.582 8-8v-8h8c4.418 0 8-3.582 8-8s-3.582-8-8-8h-8v-8c0-4.418-3.582-8-8-8s-8 3.582-8 8v8h-8c-4.418 0-8 3.582-8 8s3.582 8 8 8z"/><path d="m390.214 133.011h8v8c0 4.418 3.582 8 8 8s8-3.582 8-8v-8h8c4.418 0 8-3.582 8-8s-3.582-8-8-8h-8v-8c0-4.418-3.582-8-8-8s-8 3.582-8 8v8h-8c-4.418 0-8 3.582-8 8s3.582 8 8 8z"/></g></svg>