<svg id="Layer_1" enable-background="new 0 0 480.003 480.003" height="512" viewBox="0 0 480.003 480.003" width="512" xmlns="http://www.w3.org/2000/svg"><path d="m471.943 239.968c0 53.017-42.974 95.991-95.98 95.991h-289.466c-43.359 0-78.496-35.137-78.496-78.496 0-45.043 37.647-80.291 81.708-78.417-17.006-71.978 25.194-143.984 94.905-165.089 87.177-26.485 177.783 37.906 179.327 130.766 56.977-7.203 108.002 37.183 108.002 95.245z" fill="#cbe3fa"/><g fill="#eef7ff"><path d="m205.387 58.11c-33.422 20.325-55.595 57.754-51.99 109.354 1.431 20.48-15.938 30.26-15.803 30.114-19.101 11.383-43.761.691-48.457-21.044-15.657-72.454 27.834-142.863 96.971-163.021 27.648-8.062 43.886 29.633 19.279 44.597z"/><path d="m377.499 193.165c-15.418 6.226-29.379 16.146-40.782 29.15-7.638 8.711-20.772 11.93-32.751 5.53-13.421-7.171-18.211-24.133-10.382-37.182 15.112-25.19 41.235-42.634 71.556-46.084 29.232-3.326 39.641 37.569 12.359 48.586z"/><path d="m84.311 212.109c-20.595 9.9-30.912 27.415-37.115 47.237-7.106 22.709-40.835 16.16-39.016-7.566 2.582-33.682 26.44-65.269 65.362-71.74 2.463 11.099 5.958 21.711 10.769 32.069z"/></g><g><path d="m205.582 262.66c3.364 0 5.115-1.911 6.085-2.659 3.497-2.7 4.144-7.725 1.444-11.222-2.699-3.498-7.724-4.144-11.221-1.444-.561.434-1.106.885-1.623 1.344-5.497 4.881-2.006 13.981 5.315 13.981z"/><path d="m80.001 294c0 4.418 3.582 8 8 8h132.5c16.818 0 30.5-13.683 30.5-30.5 0-8.183-3.196-15.865-9-21.634-3.134-3.113-8.199-3.099-11.313.035-3.115 3.134-3.099 8.199.035 11.314 9.136 9.078 2.672 24.784-10.222 24.784h-132.5c-4.418.001-8 3.583-8 8.001z"/><path d="m280.501 419h-114.855c-4.418 0-8 3.582-8 8s3.582 8 8 8h114.855c7.995 0 14.5 6.505 14.5 14.5 0 12.079-13.942 18.781-23.374 11.47-3.492-2.709-8.518-2.071-11.224 1.421-2.707 3.491-2.071 8.517 1.421 11.224 19.805 15.357 49.177 1.344 49.177-24.114 0-16.818-13.682-30.501-30.5-30.501z"/><path d="m127.969 419h-9.968c-4.418 0-8 3.582-8 8s3.582 8 8 8h9.968c4.418 0 8-3.582 8-8s-3.581-8-8-8z"/><path d="m321.021 302.52c-11.906 0-23.156 5.788-30.092 15.482-2.571 3.594-1.742 8.591 1.851 11.161 3.596 2.573 8.591 1.742 11.161-1.851 3.939-5.506 10.324-8.793 17.081-8.793 11.568 0 20.979 9.412 20.979 20.98s-9.411 20.98-20.979 20.98h-83.053c-4.418 0-8 3.582-8 8s3.582 8 8 8h83.053c20.391 0 36.979-16.59 36.979-36.98s-16.589-36.979-36.98-36.979z"/><path d="m169.001 360.48c-4.418 0-8 3.582-8 8s3.582 8 8 8h31.032c4.418 0 8-3.582 8-8s-3.582-8-8-8z"/><path d="m265.518 336c0-4.418-3.582-8-8-8h-171.017c-38.874 0-70.5-31.626-70.5-70.5 0-22.938 11.221-44.518 30.016-57.727 3.615-2.54 4.486-7.53 1.946-11.145-2.541-3.615-7.532-4.486-11.145-1.945-23.053 16.202-36.817 42.674-36.817 70.817 0 47.696 38.804 86.5 86.5 86.5h171.017c4.418 0 8-3.582 8-8z"/><path d="m376.001 136c-57.346 0-104 46.654-104 104 0 4.418 3.582 8 8 8s8-3.582 8-8c0-48.523 39.477-88 88-88s88 39.477 88 88c0 40.621-27.506 75.761-66.891 85.453-4.29 1.057-6.912 5.391-5.856 9.681 1.051 4.267 5.359 6.914 9.681 5.856 46.553-11.458 79.066-52.986 79.066-100.99 0-57.346-46.654-104-104-104z"/><path d="m109.396 232.194c6.325 0 10.215-7.108 6.642-12.449-14.416-21.549-22.037-46.703-22.037-72.745 0-72.233 58.766-131 131-131 53.394 0 100.988 31.918 121.252 81.315 1.677 4.089 6.353 6.039 10.438 4.365 4.088-1.677 6.042-6.35 4.365-10.438-22.276-54.3-75.378-91.242-136.055-91.242-81.056 0-147 65.944-147 147 0 29.221 8.555 57.451 24.739 81.642 1.543 2.306 4.075 3.552 6.656 3.552z"/></g></svg>