<svg id="Layer_1" enable-background="new 0 0 480.002 480.002" height="512" viewBox="0 0 480.002 480.002" width="512" xmlns="http://www.w3.org/2000/svg"><path d="m268.864 375.307 14.622 21.581c1.895 2.796 1.829 6.482-.165 9.209l-40.661 55.623c-2.31 3.161-7.316 1.463-7.228-2.451l.789-35.013c.059-2.611-1.16-5.086-3.266-6.631l-34.607-25.384c-2.539-1.863-3.75-5.042-3.092-8.122l13.777-64.493h73.211l-14.43 48.931c-.677 2.294-.291 4.77 1.05 6.75z" fill="#ffe773"/><path d="m277.415 336-6.209 21.062c-1.003 3.402-4.126 5.738-7.674 5.738h-53.837c-5.092 0-8.888-4.694-7.823-9.673l3.663-17.127z" fill="#fada86"/><path d="m471.942 239.968c0 53.017-42.974 95.991-95.98 95.991h-289.465c-43.359 0-78.496-35.137-78.496-78.496 0-45.043 37.647-80.291 81.708-78.417-17.006-71.978 25.194-143.984 94.905-165.089 87.177-26.485 177.783 37.906 179.327 130.766 56.977-7.203 108.001 37.183 108.001 95.245z" fill="#cbe3fa"/><g fill="#eef7ff"><path d="m205.387 58.11c-33.422 20.325-55.595 57.754-51.99 109.354 1.431 20.48-15.938 30.26-15.803 30.114-19.101 11.383-43.761.691-48.457-21.044-15.658-72.454 27.833-142.863 96.971-163.021 27.648-8.062 43.885 29.633 19.279 44.597z"/><path d="m377.499 193.165c-15.418 6.226-29.379 16.146-40.782 29.15-7.638 8.711-20.772 11.93-32.751 5.53-13.421-7.171-18.211-24.133-10.382-37.182 15.112-25.19 41.235-42.634 71.556-46.084 29.232-3.326 39.64 37.569 12.359 48.586z"/><path d="m84.311 212.109c-20.595 9.9-30.912 27.415-37.115 47.237-7.106 22.709-40.835 16.16-39.016-7.566 2.582-33.682 26.44-65.269 65.362-71.74 2.462 11.099 5.957 21.711 10.769 32.069z"/></g><g><path d="m51.001 461c-4.418 0-8 3.582-8 8v2c0 4.418 3.582 8 8 8s8-3.582 8-8v-2c0-4.418-3.582-8-8-8z"/><path d="m51.001 366c-4.418 0-8 3.582-8 8v56c0 4.418 3.582 8 8 8s8-3.582 8-8v-56c0-4.418-3.582-8-8-8z"/><path d="m127.001 415c-4.418 0-8 3.582-8 8v48c0 4.418 3.582 8 8 8s8-3.582 8-8v-48c0-4.418-3.582-8-8-8z"/><path d="m127.001 366c-4.418 0-8 3.582-8 8v10c0 4.418 3.582 8 8 8s8-3.582 8-8v-10c0-4.418-3.582-8-8-8z"/><path d="m429.001 366c-4.418 0-8 3.582-8 8v39c0 4.418 3.582 8 8 8s8-3.582 8-8v-39c0-4.418-3.582-8-8-8z"/><path d="m429.001 444c-4.418 0-8 3.582-8 8v19c0 4.418 3.582 8 8 8s8-3.582 8-8v-19c0-4.418-3.582-8-8-8z"/><path d="m353.001 408c-4.418 0-8 3.582-8 8v55c0 4.418 3.582 8 8 8s8-3.582 8-8v-55c0-4.418-3.582-8-8-8z"/><path d="m353.001 366c-4.418 0-8 3.582-8 8v11c0 4.418 3.582 8 8 8s8-3.582 8-8v-11c0-4.418-3.582-8-8-8z"/><path d="m376.001 136c-57.346 0-104 46.654-104 104 0 4.418 3.582 8 8 8s8-3.582 8-8c0-48.523 39.477-88 88-88s88 39.477 88 88-39.477 88-88 88h-289.5c-38.874 0-70.5-31.626-70.5-70.5 0-22.938 11.221-44.518 30.016-57.727 3.615-2.54 4.486-7.53 1.946-11.145-2.541-3.615-7.532-4.486-11.145-1.945-23.054 16.202-36.817 42.674-36.817 70.817 0 47.696 38.804 86.5 86.5 86.5h109.054l-9.298 43.51c-.658 3.08.552 6.26 3.091 8.122l38.776 28.444-1.077 47.743c-.175 7.767 9.836 11.223 14.457 4.901l51.5-70.454c1.993-2.727 2.059-6.412.164-9.208l-19.897-29.364c-2.479-3.658-7.452-4.614-11.11-2.136-3.658 2.479-4.613 7.453-2.135 11.11l16.738 24.702-33.146 45.346.596-26.445c.059-2.611-1.161-5.087-3.266-6.631l-37.963-27.849 8.931-41.791h164.085c57.346 0 104-46.654 104-104s-46.654-104-104-104z"/><path d="m109.396 232.194c6.325 0 10.215-7.108 6.642-12.449-14.417-21.549-22.037-46.703-22.037-72.745 0-72.233 58.766-131 131-131 53.394 0 100.988 31.918 121.252 81.315 1.676 4.088 6.348 6.04 10.438 4.365 4.088-1.677 6.042-6.35 4.365-10.438-22.275-54.299-75.378-91.242-136.055-91.242-81.056 0-147 65.944-147 147 0 29.221 8.555 57.451 24.739 81.642 1.542 2.306 4.075 3.552 6.656 3.552z"/></g></svg>