<svg id="Layer_1" enable-background="new 0 0 480.071 480.071" height="512" viewBox="0 0 480.071 480.071" width="512" xmlns="http://www.w3.org/2000/svg"><g fill="#a4ebfc"><path d="m439.982 224.152c9.324 16.669 7.36 37.469-5.16 52.11-18.272 21.35-51.312 21.37-69.58 0-12.46-14.57-14.53-35.37-5.16-52.11 7.62-13.62 17.36-26.24 29.19-36.97 6.1-5.53 15.42-5.53 21.52 0 11.83 10.73 21.57 23.35 29.19 36.97z"/><path d="m143.162 139.522c11.852 21.176 9.356 47.604-6.56 66.21-23.208 27.126-65.159 27.141-88.38 0-15.84-18.52-18.47-44.94-6.56-66.21 10.34-18.48 23.75-35.52 40.2-49.72 6.08-5.25 15.02-5.25 21.1 0 16.45 14.2 29.86 31.24 40.2 49.72z"/><path d="m328.762 57.732c11.296 20.18 8.871 45.331-6.24 62.99-22.145 25.876-62.052 25.751-84.09 0-15.07-17.62-17.56-42.76-6.24-62.99 9.21-16.46 20.98-31.72 35.28-44.68 7.38-6.69 18.63-6.69 26.01 0 14.31 12.96 26.07 28.22 35.28 44.68z"/><path d="m298.662 333.482c18.967 33.902 14.947 76.244-10.51 106.01-37.147 43.445-104.359 43.462-141.54 0-25.36-29.65-29.56-71.97-10.5-106.01 17.99-32.14 41.76-61.56 71.28-85.39 5.82-4.7 14.17-4.7 19.99 0 29.52 23.83 53.28 53.25 71.28 85.39z"/></g><path d="m103.425 90.203c7.807 6.786 8.196 18.88.799 26.111-11.585 11.324-26.73 32.418-32.968 43.944-10.794 19.942-41.289 5.49-32.278-15.318.791-1.826 1.684-3.634 2.683-5.418 10.34-18.48 23.75-35.52 40.2-49.72 5.686-4.91 14.521-5.721 21.564.401z" fill="#caf1fc"/><path d="m293.639 13.194c6.907 6.277 6.757 17.174-.167 23.433-12.715 11.494-25.968 31.61-31.28 41.105-2.573 4.598-4.432 9.449-5.593 14.407-4.064 17.36-29.425 15.748-31.213-1.992-1.083-10.741.974-21.993 6.806-32.416 9.21-16.46 20.98-31.72 35.28-44.68 7.153-6.484 18.365-6.947 26.167.143z" fill="#caf1fc"/><path d="m411.704 188.015c7.318 6.746 7.664 18.206.794 25.408-8.135 8.529-17.962 22.547-22.665 31.18-10.819 19.859-40.795 5.819-32.303-15.141 3.84-9.477 16.087-28.081 31.742-42.28 6.1-5.53 15.42-5.53 21.52 0 .305.276.609.554.912.833z" fill="#caf1fc"/><path d="m234.766 254.268c12.66 10.978 13.315 30.382 1.576 42.341-20.079 20.457-39.206 46.541-50.826 67.952-18.024 33.211-68.48 7.596-51.883-26.35.776-1.587 1.602-3.164 2.478-4.729 17.99-32.14 41.76-61.56 71.28-85.39 5.82-4.7 14.17-4.7 19.99 0 2.504 2.019 4.965 4.078 7.385 6.176z" fill="#caf1fc"/><g><path d="m281.605 292.793c-2.669-3.521-7.688-4.211-11.208-1.542-3.521 2.67-4.211 7.688-1.542 11.208 8.29 10.934 15.968 22.685 22.821 34.927 17.339 30.974 13.48 69.916-9.604 96.903-33.993 39.742-95.434 39.682-129.376 0-23.084-26.987-26.943-65.93-9.604-96.903 18.374-32.82 41.697-60.77 69.322-83.069 2.88-2.326 7.061-2.325 9.94-.001 5.698 4.6 11.299 9.521 16.647 14.627 3.195 3.049 8.259 2.935 11.311-.264 3.051-3.195 2.933-8.26-.263-11.311-5.667-5.409-11.604-10.625-17.645-15.503-8.703-7.023-21.336-7.024-30.04.001-29.22 23.588-53.859 53.096-73.233 87.703-20.6 36.798-16.016 83.062 11.406 115.12 40.381 47.208 113.369 47.143 153.694 0 27.422-32.059 32.006-78.322 11.406-115.12-7.213-12.884-15.298-25.257-24.032-36.776z"/><path d="m142.684 210.929c11.056-12.925 16.667-29.4 15.802-46.39-.225-4.413-3.974-7.835-8.397-7.582-4.413.225-7.807 3.983-7.583 8.396.657 12.883-3.599 25.375-11.981 35.175-20.026 23.412-56.226 23.383-76.228 0-13.601-15.9-15.875-38.846-5.659-57.095 10.342-18.474 23.278-34.481 38.45-47.578 3.085-2.662 7.561-2.662 10.645 0 9.632 8.315 18.459 17.919 26.236 28.544 2.61 3.565 7.617 4.341 11.181 1.729 3.565-2.609 4.34-7.615 1.73-11.181-8.491-11.601-18.145-22.099-28.692-31.204-9.143-7.891-22.412-7.891-31.555 0-16.586 14.317-30.703 31.771-41.957 51.873-13.477 24.073-10.478 54.339 7.461 75.312 26.42 30.886 74.167 30.839 100.547.001z"/><path d="m298.854 7.121c-10.476-9.494-26.277-9.495-36.752 0-14.476 13.122-26.888 28.836-36.891 46.704-12.9 23.045-10.03 52.017 7.143 72.093 21.549 25.193 59.168 29.37 85.61 9.902 3.558-2.62 4.319-7.628 1.699-11.186-2.619-3.558-7.626-4.318-11.186-1.699-19.826 14.598-47.922 11.339-63.965-7.418-12.834-15.004-14.98-36.655-5.341-53.876 9.155-16.354 20.485-30.709 33.675-42.665 4.35-3.943 10.912-3.943 15.262 0 13.189 11.955 24.519 26.31 33.675 42.665 5.058 9.034 6.992 19.233 5.593 29.497-.597 4.378 2.469 8.41 6.847 9.007 4.38.587 8.41-2.47 9.007-6.847 1.871-13.733-.717-27.383-7.486-39.474-10.002-17.868-22.414-33.582-36.89-46.703z"/><path d="m446.962 220.245c-8.351-14.916-18.713-28.034-30.799-38.988-9.195-8.336-23.065-8.338-32.263-.001-7.974 7.228-15.27 15.485-21.685 24.544-2.553 3.605-1.7 8.599 1.905 11.151 3.606 2.555 8.599 1.701 11.152-1.905 5.743-8.108 12.26-15.488 19.373-21.936 3.07-2.783 7.701-2.784 10.771.001 10.8 9.789 20.081 21.548 27.584 34.949 13.957 24.934-3.954 56.225-32.97 56.225-20.902 0-37.631-16.9-37.78-37.516-.031-4.275-3.461-7.942-8.058-7.942-4.418.032-7.974 3.64-7.942 8.058.092 12.671 4.678 24.951 12.914 34.58 21.474 25.104 60.288 25.068 81.732 0 14.583-17.049 17.021-41.651 6.066-61.22z"/></g></svg>