<svg id="Layer_1" enable-background="new 0 0 480.578 480.578" height="512" viewBox="0 0 480.578 480.578" width="512" xmlns="http://www.w3.org/2000/svg"><g fill="#caf1fc"><path d="m399.102 333.499c9.37 9.37 9.37 24.57 0 33.94l-27.26 27.26c-9.37 9.38-24.57 9.38-33.94 0l-27.26-27.26c-9.38-9.37-9.38-24.57 0-33.94l27.26-27.26c9.37-9.37 24.57-9.37 33.94 0z"/><path d="m355.292 115.519c9.37 9.37 9.37 24.56 0 33.94l-27.26 27.26c-9.38 9.37-24.57 9.37-33.94 0l-27.27-27.26c-9.37-9.38-9.37-24.57 0-33.94l27.27-27.26c9.37-9.38 24.56-9.38 33.94 0z"/><path d="m115.932 188.179c9.37 9.37 9.37 24.57 0 33.94l-27.26 27.26c-9.37 9.37-24.57 9.37-33.94 0l-27.26-27.26c-9.37-9.37-9.37-24.57 0-33.94l27.26-27.26c9.37-9.38 24.57-9.38 33.94 0z"/><path d="m179.442 377.769c9.37 9.38 9.37 24.57 0 33.94l-53.83 53.83c-9.37 9.37-24.57 9.37-33.94 0l-53.83-53.83c-9.37-9.37-9.37-24.56 0-33.94l53.83-53.82c9.37-9.38 24.57-9.38 33.94 0z"/></g><path d="m70.065 234.698c9.648 9.652-4.488 25.526-15.333 14.681l-27.26-27.26c-9.37-9.37-9.37-24.57 0-33.94 0 0 27.895-27.879 28.222-28.172 10.112-9.079 23.992 5.969 14.384 15.58-3.383 3.384-7.526 7.519-12.606 12.592-9.376 9.364-9.376 24.576 0 33.94 5.073 5.068 9.213 9.198 12.593 12.579z" fill="#e3f7fc"/><path d="m309.421 162.04c9.649 9.65-4.485 25.524-15.329 14.679l-27.27-27.26c-9.37-9.38-9.37-24.57 0-33.94 0 0 27.903-27.877 28.228-28.169 10.109-9.081 23.988 5.97 14.38 15.579-3.383 3.383-7.527 7.516-12.608 12.59-9.377 9.363-9.379 24.569 0 33.94 5.074 5.07 9.217 9.199 12.599 12.581z" fill="#e3f7fc"/><path d="m92.582 466.409c-.61-.552 2.874 2.915-54.74-54.7-9.37-9.37-9.37-24.56 0-33.94l41.331-41.323c6.903-6.902 18.095-6.902 24.998.001 6.904 6.904 6.903 18.098-.002 25.001l-16.326 16.32c-9.37 9.38-9.37 24.57 0 33.94l28.75 28.75c16.049 16.051-7.161 41.141-24.011 25.951z" fill="#e3f7fc"/><path d="m353.251 380.034c9.666 9.669-4.516 25.511-15.349 14.665l-27.26-27.26c-9.38-9.37-9.38-24.57 0-33.94 0 0 27.891-27.874 28.215-28.165 10.111-9.074 23.983 5.975 14.379 15.584-3.38 3.381-7.518 7.513-12.594 12.581-9.383 9.367-9.383 24.573 0 33.94 5.082 5.073 9.225 9.21 12.609 12.595z" fill="#e3f7fc"/><g><path d="m94.329 255.037 27.262-27.262c3.124-3.125 3.124-8.189 0-11.314-3.125-3.123-8.189-3.123-11.314 0l-27.262 27.262c-6.237 6.237-16.387 6.239-22.626 0l-27.262-27.262c-6.238-6.237-6.238-16.389 0-22.627l27.262-27.262c6.254-6.254 16.372-6.254 22.627.001l11.751 11.75c3.123 3.123 8.188 3.124 11.313-.001 3.124-3.124 3.124-8.189-.001-11.313l-11.75-11.749c-12.505-12.507-32.747-12.509-45.255-.001l-27.262 27.262c-12.476 12.478-12.476 32.778 0 45.255l27.262 27.262c12.476 12.475 32.778 12.476 45.255-.001z"/><path d="m186.469 386.743c-4.418 0-8 3.582-8 8 0 4.273-1.665 8.291-4.688 11.313l-53.827 53.827c-6.238 6.238-16.389 6.238-22.627 0l-53.828-53.826c-6.238-6.239-6.238-16.391 0-22.628l53.827-53.828c6.239-6.238 16.391-6.238 22.628 0l31.782 31.783c3.125 3.123 8.189 3.125 11.314 0 3.124-3.124 3.124-8.189 0-11.314l-31.783-31.783c-12.477-12.475-32.776-12.475-45.255 0l-53.828 53.828c-12.476 12.477-12.476 32.778 0 45.256l53.828 53.827c12.506 12.504 32.747 12.507 45.256 0l53.827-53.827c6.044-6.045 9.373-14.081 9.373-22.628.001-4.418-3.582-8-7.999-8z"/><path d="m377.496 300.582c-12.477-12.475-32.776-12.475-45.255 0l-27.26 27.262c-12.508 12.506-12.508 32.747-.001 45.256l27.261 27.261c12.478 12.476 32.777 12.477 45.256 0l27.261-27.261c12.506-12.508 12.508-32.748 0-45.256zm15.947 61.203-27.261 27.261c-6.238 6.238-16.389 6.238-22.627 0l-27.261-27.261c-6.255-6.253-6.255-16.373 0-22.628l27.26-27.261c6.238-6.236 16.389-6.24 22.628 0l27.262 27.262c6.254 6.254 6.254 16.375-.001 22.627z"/><path d="m333.686 182.375 27.26-27.262c12.508-12.506 12.509-32.747.001-45.255l-27.261-27.262c-3.124-3.122-8.189-3.123-11.313 0-3.125 3.124-3.125 8.189-.001 11.314l27.262 27.262c6.254 6.254 6.254 16.373-.001 22.626l-27.26 27.262c-6.24 6.238-16.392 6.238-22.628 0l-27.262-27.262c-6.254-6.254-6.254-16.372.001-22.627l12.862-12.863c3.124-3.124 3.124-8.189-.001-11.313-3.123-3.123-8.188-3.124-11.313.001l-12.861 12.862c-12.507 12.505-12.509 32.747-.001 45.255l27.261 27.262c12.475 12.474 32.776 12.477 45.255 0z"/><path d="m173.128 110.652c2.047 0 4.095-.781 5.657-2.343l41.227-41.226c3.124-3.124 3.124-8.189 0-11.314-3.124-3.122-8.188-3.123-11.314 0l-41.228 41.226c-5.042 5.043-1.419 13.657 5.658 13.657z"/><path d="m143.277 140.503c2.048 0 4.095-.781 5.657-2.343l3.93-3.93c3.124-3.125 3.124-8.189 0-11.314-3.125-3.123-8.189-3.123-11.314 0l-3.93 3.93c-5.055 5.057-1.406 13.657 5.657 13.657z"/><path d="m376.188 76.424c2.047 0 4.095-.781 5.657-2.343l60.426-60.425c3.124-3.124 3.124-8.189 0-11.314-3.123-3.122-8.188-3.123-11.314 0l-60.426 60.425c-5.042 5.042-1.419 13.657 5.657 13.657z"/><path d="m258.919 233.151-3.016 3.016c-3.124 3.125-3.124 8.189 0 11.314 3.126 3.124 8.189 3.123 11.314 0l3.016-3.016c3.124-3.125 3.124-8.189 0-11.314-3.125-3.124-8.189-3.124-11.314 0z"/><path d="m226.121 265.948-46.603 46.603c-3.124 3.125-3.124 8.189 0 11.314 3.126 3.124 8.189 3.123 11.314 0l46.603-46.603c3.124-3.125 3.124-8.189 0-11.314-3.125-3.123-8.189-3.123-11.314 0z"/><path d="m465.779 240.63c-3.125-3.123-8.189-3.123-11.314 0l-42.38 42.381c-5.055 5.057-1.406 13.657 5.657 13.657 2.048 0 4.095-.781 5.657-2.343l42.38-42.381c3.124-3.125 3.124-8.19 0-11.314z"/></g></svg>