<svg id="Layer_1" enable-background="new 0 0 479.976 479.976" height="512" viewBox="0 0 479.976 479.976" width="512" xmlns="http://www.w3.org/2000/svg"><path d="m382.488 304.976c-9.47-32.96-30.92-42.81-43-77-18.105-51.231 2.433-107.725 29.7-155.01 39.443-31.272-37.724-64.99-149.7-64.99-88.37 0-160 21.49-160 48 0 .21.004.41.01.62 1.91 67.766 17 112.7 35.63 142.91 45.363 73.484 104.807 70.528 142.36 131.47 25.908 42.06 28.37 92.299 20 141 96.094 0 142.934-104.574 125-167z" fill="#e8f3ff"/><path d="m368.128 73.766c-77.324-25.616-222.179-19.459-267.28 14.41-15.292-5.059-41.36-16.021-41.36-32.2 0-26.51 71.63-48 160-48s160 21.49 160 48c0 7.308-5.475 13.54-11.36 17.79z" fill="#d1e7ff"/><path d="m368.128 73.766c-42.979 32.294-186.479 41.206-267.28 14.41 43.357-32.559 187.092-40.975 267.28-14.41z" fill="#b9dcff"/><g fill="#2e58ff"><path d="m94.446 207.466c24.546 5.369 53.979 8.588 56.685 8.588 4.074 0 7.558-3.101 7.954-7.239.421-4.397-2.804-8.305-7.202-8.726-18.941-1.813-36.334-4.401-51.671-7.652-17.844-30.119-28.464-67.196-31.684-110.53 6.977 4.771 16.611 9.498 29.802 13.869 2.605.864 5.398.291 7.415-1.268 22.84-17.068 80.571-28.532 143.744-28.532 14.51 0 28.877.591 42.702 1.757 4.409.39 8.273-2.897 8.644-7.3.371-4.402-2.896-8.272-7.3-8.644-14.27-1.203-29.089-1.813-44.046-1.813-64.545 0-122.43 11.425-149.862 29.323-9.924-3.538-31.927-12.804-32.137-23.335.013-6.427 10.799-17.158 41.162-26.266 61.029-18.31 160.634-18.313 221.676 0 30.382 9.114 41.162 19.853 41.162 26.278s-10.78 17.164-41.162 26.278c-51.152 15.346-124.557 16.966-179.186 9.053-4.377-.632-8.431 2.397-9.064 6.77-.634 4.373 2.397 8.432 6.77 9.064 61.328 8.885 147.963 6.185 200.881-14.644-10.563 21.664-17.851 42.304-21.712 61.594-.867 4.333 1.942 8.548 6.274 9.415 4.372.87 8.553-1.974 9.415-6.274 4.826-24.118 15.511-50.724 31.741-79.091 7.953-6.713 12.041-14.156 12.041-22.165 0-53.902-184.623-71.249-283.436-41.604-21.425 6.428-52.563 19.302-52.563 41.642 0 43.762 7.771 91.215 27.664 131.158-4.24-1.249-8.251-2.559-11.992-3.932-21.163-7.768-28.673-15.771-28.673-20.265 0-1.675.938-3.569 2.785-5.631 2.949-3.29 2.673-8.348-.617-11.297-3.291-2.95-8.348-2.673-11.297.617-4.56 5.087-6.871 10.574-6.871 16.311 0 22.706 35.199 36.219 69.849 44.021.678.253 1.387.407 2.109.47z"/><path d="m257.015 201.672c-16.108 1.006-32.575 1.417-48.587 1.277-4.575 0-8.032 3.628-8.069 7.931-.038 4.418 3.513 8.031 7.931 8.069 16.754.143 33.513-.296 49.724-1.309 4.409-.275 7.761-4.073 7.485-8.483-.276-4.409-4.078-7.766-8.484-7.485z"/><path d="m183.736 360.526c-10.478-5.817-16.248-12.051-16.248-17.55 0-6.193 7.412-11.986 11.83-14.889 3.692-2.426 4.72-7.386 2.294-11.079-2.426-3.692-7.384-4.72-11.079-2.294-26.327 17.293-26.173 42.248 5.436 59.8 3.855 2.139 8.728.761 10.878-3.11 2.144-3.864.751-8.734-3.111-10.878z"/><path d="m426.777 308.249c-3.994-1.889-8.764-.181-10.652 3.813-1.889 3.994-.182 8.764 3.813 10.652 13.696 6.477 21.551 13.861 21.551 20.263 0 10.186-19.294 22.631-53.193 30.912 7.106-24.971 7.871-50.272 1.881-71.121-11.634-40.493-40.46-49.125-48.073-96.962 32.009-7.79 64.385-21.053 64.385-42.829 0-8.713-5.24-16.705-15.576-23.754-3.651-2.488-8.627-1.549-11.117 2.102-2.489 3.65-1.549 8.628 2.102 11.117 5.541 3.778 8.592 7.52 8.592 10.535 0 7.061-16.088 19.407-58.428 28.759-.755.114-10.4 2.467-27.514 5.021-4.37.652-7.384 4.723-6.731 9.093.592 3.97 4.006 6.82 7.902 6.82 2.321 0 18.426-2.993 20.742-3.447 1.224 7.359 3.054 14.536 5.486 21.418 12.611 35.692 33.921 45.452 42.854 76.544 5.817 20.248 4.174 45.692-4.436 70.428-7.245 1.264-14.961 2.351-23.152 3.203-4.395.457-7.586 4.391-7.129 8.785.455 4.372 4.369 7.589 8.785 7.129 4.847-.505 9.577-1.096 14.202-1.755-7.266 14.62-16.792 27.681-28.013 38.274-5.245 4.951-1.718 13.817 5.493 13.817 1.971 0 3.945-.724 5.491-2.183 15.209-14.359 27.626-32.677 36.091-53.187 27.931-5.696 75.357-20.028 75.357-48.721-.002-9.217-5.33-22.724-30.713-34.726z"/><path d="m366.295 463.976h-99.459c3.385-23.748 3.845-45.946 1.375-66.487 11.748.98 23.901 1.487 36.277 1.487 4.418 0 8-3.582 8-8s-3.582-8-8-8c-13.35 0-26.415-.602-38.933-1.775-4.101-19.895-11.184-38.073-21.257-54.421-28.723-46.617-67.769-56.643-104.256-87.323-3.382-2.842-8.429-2.407-11.271.975-2.844 3.382-2.407 8.428.975 11.271 37.399 31.449 74.667 40.845 100.932 83.47 8.195 13.3 14.214 28.007 18.049 44.051-9.88-1.398-19.312-3.173-28.132-5.319-4.289-1.044-8.62 1.588-9.665 5.882-1.044 4.293 1.589 8.62 5.882 9.665 10.906 2.653 22.672 4.769 35.032 6.329 2.912 20.787 2.519 43.563-1.179 68.195h-52.177c-4.418 0-8 3.582-8 8s3.582 8 8 8h167.807c4.418 0 8-3.582 8-8s-3.582-8-8-8z"/><path d="m210.367 441.122c3.377 2.817 8.426 2.384 11.267-1.024 2.829-3.394 2.37-8.438-1.024-11.267l-12-10c-3.393-2.83-8.438-2.371-11.267 1.024-2.829 3.394-2.37 8.438 1.024 11.267z"/><path d="m407.695 426.932-13 7c-3.89 2.095-5.346 6.946-3.251 10.837 2.088 3.877 6.931 5.353 10.837 3.251l13-7c3.89-2.095 5.346-6.946 3.251-10.837-2.095-3.89-6.944-5.346-10.837-3.251z"/></g></svg>