<svg id="Layer_1" enable-background="new 0 0 479.992 479.992" height="512" viewBox="0 0 479.992 479.992" width="512" xmlns="http://www.w3.org/2000/svg"><path d="m470.115 147.768c5.216-12.141-.766-26.236-13.199-30.726-27.654-9.984-48.463-24.411-64.932-65.712-4.89-12.27-19.094-18.008-31.052-12.392-26.616 12.494-51.536 17.005-92.382-.556-12.141-5.216-26.236.766-30.726 13.199-9.984 27.654-24.411 48.463-65.712 64.932-12.27 4.89-18.008 19.094-12.392 31.052 12.494 26.616 17.005 51.536-.556 92.382-5.216 12.141.766 26.236 13.199 30.726 27.654 9.984 48.463 24.411 64.932 65.712 4.89 12.27 19.094 18.008 31.052 12.392 26.616-12.494 51.536-17.005 92.382.556 12.141 5.216 26.236-.766 30.726-13.199 9.984-27.654 24.411-48.463 65.712-64.932 12.27-4.89 18.008-19.094 12.392-31.052-12.494-26.616-17.005-51.536.556-92.382z" fill="#ffe773"/><ellipse cx="316.02" cy="195.512" fill="#fff0a6" rx="97.46" ry="100.5"/><path d="m326.177 139.779c-29.283 10.073-52.982 34.497-63.055 64.38-8.197 24.319-44.991 19.082-44.563-8.647-.84-54.66 42.79-99.66 97.46-100.5 1.421.022 2.834.074 4.239.154 25.222 1.452 29.809 36.396 5.919 44.613z" fill="#fff8d6"/><path d="m418.24 358.612c0 46.88-38 84.88-84.87 84.88h-255.96c-38.34 0-69.41-31.07-69.41-69.41 0-39.829 33.289-70.997 72.25-69.34-15.038-63.646 22.278-127.318 83.92-145.98 77.086-23.419 157.205 33.519 158.57 115.63 50.382-6.37 95.5 32.879 95.5 84.22z" fill="#cbe3fa"/><g fill="#eef7ff"><path d="m182.538 197.804c-29.553 17.973-49.16 51.069-45.972 96.696 1.265 18.109-14.094 26.757-13.974 26.629-16.89 10.065-38.695.611-42.848-18.608-13.845-64.068 24.612-126.327 85.747-144.152 24.448-7.128 38.806 26.203 17.047 39.435z"/><path d="m41.276 378.781c-4.602 19.227-33.011 15.995-33.27-3.773-.448-34.273 23.915-62.813 56.114-69.055 1.312 5.974 2.973 11.781 5.006 17.445 2.355 6.56.344 13.937-5.002 18.408-11.744 9.821-19.481 22.906-22.848 36.975z"/><path d="m334.728 317.226c-13.633 5.505-25.979 14.277-36.062 25.776-6.754 7.703-18.368 10.549-28.96 4.89-11.868-6.341-16.103-21.339-9.181-32.878 13.363-22.275 36.462-37.699 63.273-40.75 25.85-2.94 35.054 33.221 10.93 42.962z"/></g><g><path d="m97.649 352.639c6.323 0 10.215-7.108 6.642-12.449-12.644-18.899-19.327-40.961-19.327-63.802 0-63.354 51.542-114.896 114.896-114.896 46.358 0 87.94 27.607 105.937 70.333 1.714 4.072 6.404 5.981 10.478 4.267 4.072-1.715 5.982-6.406 4.267-10.478-15.848-37.626-47.76-64.944-85.823-75.413 29.527-53.987 102.734-63.241 145.101-19.55 29.539 30.462 33.255 75.78 12.853 109.933-3.2 5.357.714 12.104 6.86 12.104 2.723 0 5.377-1.391 6.875-3.898 9.568-16.016 14.778-34.396 15.066-53.152.91-59.123-46.201-107.711-105.329-108.621-42.226-.649-79.78 23.351-97.683 59.804-78.667-11.201-149.5 49.811-149.5 129.568 0 26.019 7.618 51.158 22.029 72.699 1.544 2.305 4.077 3.551 6.658 3.551z"/><path d="m477.459 151.021c6.935-16.131-.816-35.289-17.839-41.435-26.541-9.583-44.912-22.671-60.276-61.209-6.501-16.308-25.528-24.377-41.912-16.685-25.543 11.991-47.788 15.727-85.903-.66-16.132-6.935-35.288.815-41.435 17.839-8.878 24.588-21.201 42.824-55.152 57.741-4.045 1.777-5.883 6.497-4.106 10.542 1.777 4.044 6.496 5.884 10.542 4.106 39.051-17.159 53.734-39.176 63.764-66.956 2.93-8.114 12.137-11.982 20.066-8.573 43.306 18.619 70.905 13.643 99.021.444 7.8-3.662 17.051.099 20.251 8.127 17.457 43.787 40.49 59.785 69.705 70.333 8.106 2.927 11.986 12.128 8.573 20.066-18.619 43.305-13.643 70.905-.444 99.021 3.656 7.789-.085 17.045-8.127 20.252-22.478 8.961-38.837 19.868-50.657 33.851-17.043-19.645-42.178-32.09-70.167-32.09-51.213 0-92.878 41.665-92.878 92.878 0 4.418 3.582 8 8 8s8-3.582 8-8c0-42.391 34.487-76.878 76.878-76.878s76.878 34.487 76.878 76.878-34.487 76.878-76.878 76.878h-255.958c-33.859.001-61.405-27.545-61.405-61.404 0-18.076 7.916-35.155 21.718-46.858 3.37-2.857 3.785-7.906.928-11.276s-7.905-3.785-11.275-.928c-17.395 14.749-27.371 36.276-27.371 59.062 0 42.681 34.724 77.406 77.405 77.406h255.96c51.213 0 92.878-41.665 92.878-92.878 0-17.279-4.748-33.467-13-47.338 10.247-13.556 24.926-23.69 46.87-32.439 16.296-6.497 24.383-25.516 16.686-41.913-11.99-25.545-15.726-47.789.66-85.904z"/></g></svg>