<svg id="Layer_1" enable-background="new 0 0 480.035 480.035" height="512" viewBox="0 0 480.035 480.035" width="512" xmlns="http://www.w3.org/2000/svg"><path d="m455.084 204.949c10.515-4.793 21.001 6.514 15.51 16.682-23.322 43.19-69.027 72.516-121.571 72.427-77.252-.136-138.916-63.1-137.514-140.34 1.157-63.696 45.512-116.5 104.257-131.174 11.132-2.781 19.55 10.137 12.361 19.081-14.712 18.305-23.491 41.582-23.399 66.917.263 76.939 80.416 128.289 150.356 96.407z" fill="#ffe773"/><path d="m260.486 216.372c10.142 17.165-14.749 33.242-25.894 16.711-27.377-40.609-29.852-92.65-10.587-134.15 6.464-13.924 27.297-6.094 22.992 8.641-10.338 35.383-6.337 75.243 13.489 108.798z" fill="#fff0a6"/><path d="m418.24 373.145c0 46.88-38 84.88-84.87 84.88h-255.96c-38.34 0-69.41-31.07-69.41-69.41 0-39.829 33.289-70.997 72.25-69.34-15.038-63.646 22.278-127.318 83.92-145.98 77.086-23.419 157.205 33.519 158.57 115.63 50.382-6.37 95.5 32.879 95.5 84.22z" fill="#cbe3fa"/><g fill="#eef7ff"><path d="m182.538 212.337c-29.553 17.973-49.16 51.069-45.972 96.696 1.265 18.109-14.094 26.757-13.974 26.629-16.89 10.065-38.695.611-42.848-18.608-13.845-64.068 24.612-126.327 85.747-144.152 24.448-7.128 38.806 26.203 17.047 39.435z"/><path d="m41.276 393.314c-4.602 19.227-33.011 15.995-33.27-3.773-.448-34.273 23.915-62.813 56.114-69.055 1.312 5.974 2.973 11.781 5.006 17.445 2.355 6.56.344 13.937-5.002 18.408-11.744 9.821-19.481 22.906-22.848 36.975z"/><path d="m334.728 331.76c-13.633 5.505-25.979 14.277-36.062 25.776-6.754 7.703-18.368 10.549-28.96 4.89-11.868-6.341-16.103-21.339-9.181-32.878 13.363-22.275 36.462-37.699 63.273-40.75 25.85-2.941 35.054 33.22 10.93 42.962z"/></g><g><path d="m333.366 280.27c-51.213 0-92.878 41.665-92.878 92.878 0 4.418 3.582 8 8 8s8-3.582 8-8c0-42.391 34.487-76.878 76.878-76.878s76.878 34.487 76.878 76.878-34.487 76.878-76.878 76.878h-255.961c-33.859-.001-61.405-27.547-61.405-61.406 0-20.131 9.891-39.009 26.459-50.499 3.63-2.518 4.533-7.502 2.015-11.133-2.518-3.63-7.501-4.534-11.133-2.015-20.877 14.478-33.341 38.272-33.341 63.647 0 42.682 34.724 77.405 77.405 77.405h255.96c51.213 0 92.878-41.665 92.878-92.878s-41.664-92.877-92.877-92.877z"/><path d="m451.458 197.759c-65.135 29.293-139.233-19.154-138.674-90.557.174-22.135 7.523-42.984 21.254-60.293 12.072-15.217-1.921-36.984-20.644-32.236-65.661 16.652-111.715 76.81-109.847 145.415-73.742-2.083-134.584 57.352-134.584 130.834 0 26.019 7.618 51.158 22.029 72.699 2.469 3.691 7.442 4.646 11.098 2.2 3.672-2.457 4.657-7.425 2.2-11.098-12.644-18.899-19.327-40.961-19.327-63.801 0-63.354 51.542-114.896 114.896-114.896 41.669 0 80.161 22.64 100.456 59.084 2.15 3.86 7.021 5.249 10.881 3.097 3.86-2.149 5.247-7.021 3.097-10.881-19.869-35.681-55.06-59.728-94.697-65.784-2.568-61.629 38.47-116.33 97.731-131.36 2.49-.631 3.854.811 4.446 1.726.505.781 1.491 2.838-.271 5.059-15.969 20.13-24.516 44.375-24.718 70.11-.497 63.298 51.059 115.287 114.366 115.289 16.322.001 32.094-3.37 46.869-10.015 2.476-1.113 4.178.316 4.795.982.624.673 1.931 2.499.616 4.909-10.654 19.521-26.25 36.1-45.103 47.942-3.742 2.351-4.869 7.289-2.519 11.03 2.358 3.752 7.3 4.863 11.03 2.519 21.164-13.295 38.674-31.908 50.636-53.826 9.282-17.001-8.352-36.092-26.016-28.148z"/></g></svg>