<svg id="Layer_1" enable-background="new 0 0 480.003 480.003" height="512" viewBox="0 0 480.003 480.003" width="512" xmlns="http://www.w3.org/2000/svg"><path d="m350.317 114.551c-18.721-5.485-31.996-12.093-43.03-17.29-20.792-9.704-22.406-40.173.15-51.01 13.41-6.61 11.81-26.17-2.39-30.87-86.053-28.394-165.493 29.319-190.45 114.34-5.531 18.834-12.166 32.121-17.3 43.03-9.716 20.817-40.202 22.378-51.01-.14-6.61-13.42-26.18-11.81-30.87 2.39-28.382 86.02 29.285 165.473 114.34 190.44 18.68 5.49 31.62 11.97 42.98 17.27 20.87 9.75 21.98 39.4 1.61 50.17-.58.31-1.18.61-1.78.91-13.39 6.57-11.71 26.14 2.45 30.82 86.04 28.437 165.504-29.324 190.47-114.33 5.518-18.834 12.158-32.123 17.29-43.03 9.725-20.836 40.21-22.361 51.01.14 6.61 13.42 26.18 11.81 30.87-2.39 28.385-86.028-29.288-165.47-114.34-190.45z" fill="#eef7ff"/><circle cx="239.537" cy="239.502" fill="#cbe3fa" r="45.5"/><g fill="#fafcff"><path d="m121.352 181.684c-12.668-4.704-18.967-18.943-13.886-31.464 2.458-6.058 4.832-12.673 7.131-20.498 20.224-68.899 73.232-113.204 128.093-120.508 16.395-2.183 22.98 20.578 7.896 27.365-43.051 19.373-76.534 60.606-90.989 109.852-2.425 8.257-5.062 15.448-7.692 21.84-4.926 11.973-18.416 17.92-30.553 13.413z"/><path d="m54.541 256.077c3.657 23.941-30.498 32.483-38.509 9.628-10.188-29.066-10.875-59.605-.615-90.703 4.69-14.2 24.26-15.81 30.87-2.39 1.585 3.303 3.548 6.093 5.842 8.386 5.116 5.113 7.34 12.409 5.524 19.411-4.289 16.526-5.904 37.389-3.112 55.668z"/><path d="m191.092 468.973c-5.641-1.195-11.011-2.685-16.076-4.361-14.16-4.68-15.84-24.25-2.45-30.82 7.471-3.733 12.218-9.278 14.608-15.396 4.496-11.51 18.168-17.359 30.562-11.574 40.793 19.057-4.98 66.739-26.644 62.151z"/></g><g><path d="m213.031 152.939c1.456 0 2.072-.305 4.353-.892 4.279-1.103 6.853-5.465 5.75-9.744-1.103-4.278-5.464-6.846-9.743-5.75-.852.22-1.699.449-2.542.688-4.25 1.207-6.716 5.632-5.509 9.882 1 3.52 4.205 5.816 7.691 5.816z"/><path d="m184.257 168.408c3.479-2.724 4.09-7.752 1.366-11.23-2.725-3.478-7.753-4.089-11.231-1.365-47.171 36.942-54.202 104.422-17.784 150.207 2.751 3.459 7.785 4.031 11.241 1.281 3.458-2.75 4.031-7.783 1.281-11.24-30.942-38.902-24.971-96.248 15.127-127.653z"/><path d="m240.037 346.289c19.119 0 37.876-5.125 54.242-14.821 3.801-2.252 5.057-7.159 2.805-10.961-2.252-3.801-7.159-5.059-10.96-2.805-13.899 8.234-29.835 12.587-46.086 12.587-4.418 0-8 3.582-8 8s3.58 8 7.999 8z"/><path d="m335.913 264.004c4.4.732 8.488-2.253 9.209-6.571 5.613-33.581-4.725-68.927-31.126-94.389-3.181-3.068-8.245-2.977-11.312.204s-2.976 8.245.205 11.312c22.512 21.712 31.208 51.788 26.452 80.234-.729 4.358 2.214 8.481 6.572 9.21z"/><path d="m363.302 110.356c-4.165-1.477-8.737.701-10.214 4.866-1.477 4.164.701 8.736 4.865 10.214 70.104 24.864 126.657 93.664 99.107 177.051-2.473 7.486-12.69 8.288-16.098 1.366-14.163-28.751-52.967-26.697-65.437.012-22.268 47.692-40.596 145.062-138.696 158.928-19.445 2.746-39.396.806-59.301-5.775-7.43-2.457-8.326-12.663-1.433-16.047 29.142-14.307 26.73-53.032.023-65.505-47.29-22.091-145.01-40.586-158.873-138.671-2.747-19.436-.807-39.38 5.768-59.278 2.473-7.486 12.689-8.287 16.098-1.366 14.109 28.645 52.922 26.794 65.437-.012 22.214-47.577 40.46-145.043 138.696-158.928 19.438-2.744 39.386-.804 59.289 5.771 7.481 2.473 8.283 12.684 1.366 16.091-28.776 14.166-26.705 52.971.002 65.44 4.004 1.867 8.764.139 10.633-3.864 1.869-4.004.139-8.765-3.865-10.634-14.519-6.778-16.474-28.331.297-36.589 20.045-9.868 17.353-38.774-3.413-45.636-22.262-7.356-44.651-9.518-66.548-6.422-108.243 15.298-129.376 121.787-150.955 168-6.769 14.502-28.325 16.481-36.585-.289-9.865-20.029-38.776-17.369-45.644 3.417-7.353 22.257-9.512 44.643-6.418 66.536 15.269 108.03 121.912 129.427 167.945 150.929 14.507 6.776 16.814 28.242-.303 36.646-19.986 9.812-17.32 38.731 3.461 45.602 22.788 7.533 45.178 9.449 66.562 6.426 107.974-15.26 128.418-119.739 150.955-168 6.745-14.449 28.288-16.555 36.585.289 9.855 20.007 38.768 17.394 45.644-3.417 28.453-86.121-24.893-167.338-108.95-197.151z"/><path d="m239.537 293.002c29.5 0 53.5-24 53.5-53.5s-24-53.5-53.5-53.5c-4.418 0-8 3.582-8 8s3.582 8 8 8c20.678 0 37.5 16.822 37.5 37.5s-16.822 37.5-37.5 37.5c-28.1 0-45.907-29.756-33.513-54.348 1.988-3.945.402-8.756-3.543-10.744-3.947-1.992-8.756-.401-10.745 3.543-17.741 35.207 7.805 77.549 47.801 77.549z"/></g></svg>