<svg id="Layer_1" enable-background="new 0 0 479.996 479.996" height="512" viewBox="0 0 479.996 479.996" width="512" xmlns="http://www.w3.org/2000/svg"><path d="m349.02 201.115c-3.34-18.33 4.57-39.3 19.24-49.4 18.76-12.92 37.02-.11 66.44-13.61 7.106-3.261 12.925-7.169 17.492-10.819 4.122-3.294 10.23-1.687 12.318 3.159 5.183 12.03 11.089 32.482 4.721 55.29-8.31 29.74-36.96 61.58-70.74 58.06-22.321-2.327-45.261-19.428-49.471-42.68z" fill="#befa91"/><path d="m455.142 156.685c-28.968 14.755-50.026 1.599-68.962 14.64-11.436 7.873-19.253 22.845-19.932 38.446-.323 7.423-10.302 9.404-13.463 2.68-10.711-22.786-.969-49.415 15.475-60.736 22.005-15.155 46.998 5.134 83.932-24.429 4.13-3.29 10.228-1.69 12.318 3.159 4.407 10.228-.084 21.511-9.368 26.24z" fill="#daffbf"/><g><path d="m165.581 31.825c3.364 0 5.115-1.911 6.085-2.659 3.497-2.7 4.144-7.725 1.444-11.222-2.7-3.498-7.724-4.145-11.221-1.444-.561.434-1.106.885-1.623 1.344-5.498 4.881-2.007 13.981 5.315 13.981z"/><path d="m211 40.665c0-8.183-3.196-15.865-9-21.634-3.134-3.114-8.199-3.099-11.313.035-3.115 3.134-3.099 8.199.035 11.314 9.136 9.078 2.672 24.784-10.222 24.784h-172.5c-4.418 0-8 3.582-8 8s3.582 8 8 8h172.5c16.818.001 30.5-13.682 30.5-30.499z"/><path d="m365.581 425.825c3.364 0 5.115-1.911 6.085-2.659 3.497-2.7 4.144-7.725 1.444-11.222-2.7-3.498-7.724-4.145-11.221-1.444-.561.434-1.106.885-1.623 1.344-5.498 4.881-2.007 13.981 5.315 13.981z"/><path d="m390.687 413.066c-3.115 3.134-3.099 8.199.035 11.314 9.136 9.078 2.672 24.784-10.222 24.784h-119.5c-4.418 0-8 3.582-8 8s3.582 8 8 8h119.5c16.818 0 30.5-13.683 30.5-30.5 0-8.183-3.196-15.865-9-21.634-3.134-3.113-8.199-3.098-11.313.036z"/><path d="m221 449.165h-53c-4.418 0-8 3.582-8 8s3.582 8 8 8h53c4.418 0 8-3.582 8-8s-3.582-8-8-8z"/><path d="m191.626 263.134c-3.493-2.709-8.518-2.072-11.224 1.421-2.708 3.491-2.071 8.517 1.42 11.224 19.808 15.356 49.178 1.344 49.178-24.114 0-16.817-13.682-30.5-30.5-30.5h-114.5c-4.418 0-8 3.582-8 8s3.582 8 8 8h114.5c7.995 0 14.5 6.505 14.5 14.5 0 12.076-13.942 18.781-23.374 11.469z"/><path d="m56 229.165c0-4.418-3.582-8-8-8h-10c-4.418 0-8 3.582-8 8s3.582 8 8 8h10c4.418 0 8-3.582 8-8z"/><path d="m262.78 105.849c3.596 2.572 8.592 1.742 11.161-1.853 3.938-5.505 10.322-8.792 17.079-8.792 11.568 0 20.98 9.412 20.98 20.98s-9.412 20.979-20.98 20.979h-143.02c-4.418 0-8 3.582-8 8s3.582 8 8 8h143.02c20.391 0 36.98-16.59 36.98-36.98s-16.589-36.979-36.98-36.979c-11.908 0-23.158 5.788-30.093 15.483-2.57 3.595-1.74 8.592 1.853 11.162z"/><path d="m326.07 338.045c0-17.711-14.409-32.12-32.12-32.12-10.343 0-20.114 5.027-26.137 13.448-2.57 3.594-1.741 8.591 1.853 11.161 3.594 2.572 8.59 1.742 11.161-1.853 3.026-4.23 7.932-6.757 13.124-6.757 8.889 0 16.12 7.231 16.12 16.12s-7.231 16.12-16.12 16.12h-149.951c-4.418 0-8 3.582-8 8s3.582 8 8 8h149.95c17.711.001 32.12-14.409 32.12-32.119z"/><path d="m110 153.165c4.418 0 8-3.582 8-8s-3.582-8-8-8h-21c-4.418 0-8 3.582-8 8s3.582 8 8 8z"/><path d="m54 354.165h-5c-4.418 0-8 3.582-8 8s3.582 8 8 8h5c4.418 0 8-3.582 8-8s-3.582-8-8-8z"/><path d="m110 354.165h-25c-4.418 0-8 3.582-8 8s3.582 8 8 8h25c4.418 0 8-3.582 8-8s-3.582-8-8-8z"/><path d="m466.528 116.653c-2.624-4.531-8.843-5.369-12.568-1.66-6.757 6.729-14.359 12.058-22.593 15.837-27.399 12.574-46.246-.443-67.647 14.296-20.817 14.338-31.468 48.258-16.212 74.586-4.9 6.306-9.325 13.055-13.182 20.19-2.896 5.357 1.035 11.806 7.031 11.806 2.844 0 5.597-1.521 7.044-4.198 14.129-26.138 36.414-46.712 65.096-57.396 4.14-1.543 6.246-6.149 4.704-10.29-1.542-4.139-6.148-6.245-10.29-4.704-18.697 6.967-35.022 17.549-48.974 31.59-6.96-17.348.497-39.204 13.858-48.406 15.563-10.718 34.623 1.122 65.246-12.933 6.763-3.104 13.156-7.055 19.1-11.799 4.992 11.572 9.998 29.907 4.382 50.012-7.667 27.45-33.627 55.242-62.205 52.254-4.402-.459-8.328 2.733-8.787 7.127-.458 4.395 2.733 8.329 7.127 8.787 36.841 3.832 69.46-28.729 79.274-63.863 9.059-32.431-4.258-60.621-10.404-71.236z"/></g></svg>