<svg id="Layer_1" enable-background="new 0 0 479.979 479.979" height="512" viewBox="0 0 479.979 479.979" width="512" xmlns="http://www.w3.org/2000/svg"><path d="m220.989 300.742v-257.663c0-14.092-9.201-26.565-22.696-30.625-19.745-5.941-40.564-5.965-60.344-.085-13.6 4.04-22.96 16.51-22.96 30.7v257.673c0 2.479-1.154 4.815-3.117 6.328-21.389 16.492-35.322 42.186-35.866 71.148-.953 50.748 39.964 93.07 90.716 93.753 51.391.692 93.267-40.76 93.267-91.991 0-29.67-14.053-56.066-35.862-72.893-1.97-1.521-3.138-3.856-3.138-6.345z" fill="#cbe3fa"/><path d="m167.99 331.979c26.51 0 47.999 21.49 47.999 48s-21.49 48-48 48-48-21.491-48-48.001 21.491-47.999 48.001-47.999z" fill="#ff6d7a"/><path d="m175.017 359.035c-12.708 4.956-23.016 15.263-27.972 27.971-5.396 13.835-26.079 10.717-26.968-4.106-1.725-28.741 21.995-52.565 50.835-50.833 14.822.889 17.939 21.572 4.105 26.968z" fill="#ff8c95"/><path d="m157.714 8.548c12.226-1.269 15.577 16.222 3.776 19.662-14.767 4.304-23.501 17.206-23.501 30.859v257.67c0 2.491-1.171 4.83-3.146 6.35-11.113 8.554-19.684 19.093-25.655 30.698-8.23 15.996-32.508 4.736-25.146-11.678 5.928-13.218 15.168-25.318 27.813-35.032 1.971-1.514 3.133-3.85 3.133-6.336v-257.672c0-14.19 9.36-26.66 22.96-30.7 5.836-1.734 12.628-3.08 19.766-3.821z" fill="#eef7ff"/><g><path d="m403.989 131.979h-36c-17.645 0-32 14.355-32 32v88c0 4.418 3.582 8 8 8s8-3.582 8-8v-41h36c4.418 0 8-3.582 8-8s-3.582-8-8-8h-36v-31c0-8.822 7.178-16 16-16h36c4.418 0 8-3.582 8-8s-3.582-8-8-8z"/><path d="m290.989 99.979c-15.439 0-28 12.561-28 28s12.561 28 28 28 28-12.561 28-28-12.56-28-28-28zm0 40c-6.617 0-12-5.383-12-12s5.383-12 12-12 12 5.383 12 12-5.382 12-12 12z"/><path d="m250.476 338.413c-4.103 1.641-6.098 6.296-4.457 10.398 21.956 54.899-18.624 115.167-78.029 115.167-46.317 0-84-37.683-84-84 0-27.254 13.313-52.925 35.614-68.67 2.123-1.499 3.386-3.936 3.386-6.535v-261.7c0-10.546 7.089-20.018 17.238-23.032 18.261-5.426 37.66-5.381 55.773.078 10.002 3.014 16.988 12.453 16.988 22.956v261.699c0 4.418 3.582 8 8 8s8-3.582 8-8v-261.699c0-17.781-11.402-33.163-28.372-38.276-21.092-6.355-43.705-6.407-64.946-.096-16.888 5.017-28.682 20.795-28.682 38.37v257.665c-24.497 18.888-39 48.2-39 79.241 0 55.141 44.859 100 100 100 70.682 0 119.044-71.707 92.885-137.108-1.64-4.105-6.3-6.098-10.398-4.458z"/><path d="m130.702 348.711c-3.807-2.25-8.71-.985-10.957 2.818-5.074 8.588-7.756 18.426-7.756 28.449 0 30.879 25.121 56 56 56s56-25.121 56-56c0-28.162-20.898-51.525-48-55.419v-55.452c0-4.418-3.582-8-8-8s-8 3.582-8 8v62.871c0 4.418 3.582 8 8 8 22.056 0 40 17.944 40 40s-17.944 40-40 40c-30.965 0-50.105-33.841-34.469-60.311 2.248-3.802.986-8.709-2.818-10.956z"/><path d="m159.989 228.592c0 4.418 3.582 8 8 8s8-3.582 8-8v-93.613c0-4.418-3.582-8-8-8s-8 3.582-8 8z"/><path d="m167.989 103.979c4.418 0 8-3.582 8-8v-13c0-4.418-3.582-8-8-8s-8 3.582-8 8v13c0 4.418 3.582 8 8 8z"/></g></svg>