<svg id="Layer_1" enable-background="new 0 0 479.988 479.988" height="512" viewBox="0 0 479.988 479.988" width="512" xmlns="http://www.w3.org/2000/svg"><path d="m470.43 160.263c4.33-10.07-.63-21.76-10.94-25.48-22.93-8.28-40.19-20.25-53.85-54.5-4.06-10.18-15.83-14.93-25.75-10.28-22.07 10.36-42.74 14.11-76.61-.45-10.07-4.33-21.76.63-25.48 10.94-8.28 22.93-20.25 40.19-54.5 53.85-10.18 4.06-14.93 15.83-10.28 25.75 10.36 22.07 14.11 42.74-.45 76.61-4.33 10.07.63 21.76 10.94 25.48 22.93 8.28 40.19 20.25 53.85 54.5 4.06 10.18 15.83 14.93 25.75 10.28 22.07-10.36 42.74-14.11 76.61.45 10.07 4.33 21.76-.63 25.48-10.94 8.28-22.93 20.25-40.19 54.5-53.85 10.18-4.06 14.93-15.83 10.28-25.75-10.36-22.07-14.11-42.74.45-76.61z" fill="#ffe773"/><path d="m342.69 121.273c42.64.65 76.68 35.75 76.02 78.4-.65 42.64-35.75 76.68-78.4 76.02-42.64-.65-76.68-35.75-76.02-78.4.65-42.64 35.75-76.68 78.4-76.02z" fill="#fff0a6"/><path d="m153 300.747v-257.664c0-14.092-9.201-26.565-22.696-30.625-19.745-5.94-40.564-5.964-60.344-.085-13.6 4.04-22.96 16.51-22.96 30.7v257.673c0 2.479-1.154 4.815-3.117 6.328-21.389 16.492-35.323 42.187-35.867 71.148-.953 50.748 39.964 93.07 90.716 93.753 51.391.692 93.267-40.76 93.267-91.991 0-29.67-14.053-56.066-35.862-72.893-1.97-1.521-3.137-3.856-3.137-6.344z" fill="#cbe3fa"/><path d="m89.724 8.553c12.226-1.269 15.577 16.222 3.776 19.662-14.766 4.304-23.5 17.205-23.5 30.858v257.67c0 2.491-1.171 4.83-3.146 6.35-11.113 8.554-19.684 19.093-25.655 30.698-8.23 15.996-32.508 4.736-25.146-11.678 5.928-13.218 15.168-25.318 27.813-35.032 1.971-1.514 3.133-3.85 3.133-6.336v-257.672c0-14.19 9.36-26.66 22.96-30.7 5.835-1.734 12.628-3.08 19.765-3.82z" fill="#eef7ff"/><path d="m100.001 331.983c26.51 0 47.999 21.49 47.999 48s-21.49 48-48 48-48-21.491-48-48.001 21.491-47.999 48.001-47.999z" fill="#ff6d7a"/><path d="m107.027 359.039c-12.708 4.956-23.016 15.263-27.972 27.971-5.396 13.835-26.079 10.717-26.968-4.106-1.725-28.741 21.995-52.565 50.835-50.833 14.823.89 17.94 21.573 4.105 26.968z" fill="#ff8c95"/><path d="m352.964 153.264c-27.345 7.126-49.589 29.497-56.655 56.853-4.409 17.07-29.126 15.868-31.388-1.616-6.489-50.158 35.956-92.821 86.115-86.656 17.632 2.168 19.118 26.939 1.928 31.419z" fill="#fff8d6"/><g><path d="m477.784 163.421c6.001-13.958-.599-30.757-15.575-36.163-21.624-7.808-36.595-18.481-49.135-49.934-5.625-14.113-22.168-21.325-36.584-14.56-14.874 6.983-26.215 9.328-39.148 8.098-4.406-.406-8.303 2.809-8.722 7.206-.419 4.398 2.808 8.304 7.206 8.722 19.881 1.893 35.149-3.761 47.462-9.541 5.735-2.696 12.561.075 14.923 6 14.653 36.756 34.009 50.192 58.564 59.058 5.927 2.141 8.843 8.901 6.309 14.794-15.629 36.354-11.443 59.54-.35 83.171 2.677 5.706-.04 12.547-6 14.923-36.756 14.654-50.192 34.01-59.058 58.564-2.164 5.995-8.969 8.811-14.795 6.309-36.35-15.628-59.538-11.441-83.17-.35-5.737 2.696-12.561-.074-14.923-6-14.653-36.756-34.009-50.192-58.564-59.058-5.927-2.141-8.843-8.901-6.309-14.794 15.629-36.354 11.443-59.54.35-83.171-2.677-5.706.04-12.547 6-14.923 36.756-14.654 50.192-34.01 59.058-58.563.982-2.719 2.967-4.901 5.591-6.146 3.992-1.893 5.694-6.663 3.802-10.655-1.893-3.992-6.666-5.694-10.656-3.802-6.464 3.064-11.36 8.451-13.786 15.168-7.808 21.624-18.481 36.596-49.934 49.135-14.116 5.628-21.324 22.174-14.559 36.585 9.77 20.811 12.809 38.944-.565 70.052-6.001 13.958.599 30.757 15.575 36.163 21.624 7.808 36.595 18.481 49.135 49.934 5.624 14.111 22.168 21.327 36.584 14.56 20.811-9.771 38.945-12.811 70.052.564 13.954 6.001 30.755-.595 36.164-15.574 7.808-21.624 18.481-36.596 49.934-49.135 14.116-5.628 21.324-22.174 14.559-36.585-9.77-20.811-12.809-38.945.565-70.052z"/><path d="m382.368 254.358c-3.564 2.611-4.336 7.617-1.725 11.182 2.611 3.563 7.618 4.335 11.181 1.725 21.757-15.941 34.473-40.533 34.888-67.47.723-46.985-36.915-85.8-83.9-86.522-46.992-.728-85.799 36.913-86.522 83.899-.723 46.985 36.915 85.8 83.9 86.522 4.296.1 8.053-3.374 8.122-7.876.068-4.418-3.458-8.054-7.876-8.122-38.165-.587-68.736-32.114-68.148-70.278s32.117-68.715 70.278-68.147c38.165.587 68.736 32.114 68.148 70.278-.338 21.88-10.669 41.857-28.346 54.809z"/><path d="m182.487 338.417c-4.103 1.641-6.098 6.297-4.458 10.398 21.954 54.909-18.624 115.168-78.029 115.168-46.318 0-84-37.683-84-84 0-27.254 13.313-52.925 35.614-68.67 2.123-1.499 3.386-3.936 3.386-6.535v-261.701c0-10.546 7.088-20.018 17.238-23.032 18.261-5.426 37.66-5.381 55.773.078 10.003 3.014 16.989 12.453 16.989 22.956v261.699c0 4.418 3.582 8 8 8s8-3.582 8-8v-261.699c0-17.781-11.402-33.163-28.373-38.276-21.089-6.355-43.704-6.406-64.946-.096-16.887 5.016-28.681 20.795-28.681 38.37v257.665c-24.498 18.888-39 48.2-39 79.241 0 55.141 44.86 100 100 100 70.69 0 119.038-71.704 92.886-137.107-1.641-4.103-6.297-6.098-10.399-4.459z"/><path d="m62.712 348.716c-3.802-2.247-8.709-.984-10.957 2.818-5.073 8.589-7.755 18.427-7.755 28.449 0 30.879 25.122 56 56 56s56-25.121 56-56c0-28.162-20.899-51.525-48-55.419v-55.452c0-4.418-3.582-8-8-8s-8 3.582-8 8v62.871c0 4.418 3.582 8 8 8 22.056 0 40 17.944 40 40s-17.944 40-40 40c-30.965 0-50.107-33.841-34.469-60.311 2.248-3.804.986-8.709-2.819-10.956z"/><path d="m92 228.597c0 4.418 3.582 8 8 8s8-3.582 8-8v-93.613c0-4.418-3.582-8-8-8s-8 3.582-8 8z"/><path d="m100 103.983c4.418 0 8-3.582 8-8v-13c0-4.418-3.582-8-8-8s-8 3.582-8 8v13c0 4.418 3.582 8 8 8z"/></g></svg>