<svg id="Layer_1" enable-background="new 0 0 480.031 480.031" height="512" viewBox="0 0 480.031 480.031" width="512" xmlns="http://www.w3.org/2000/svg"><path d="m452.39 241.025c12.96-4.86 24.68 9.33 17.34 21.06-23.6 37.69-65.35 62.86-113.01 63.26-74.91.62-136.38-60.89-135.71-135.8.52-59.71 39.92-109.83 93.47-127.02 13.11-4.2 24.14 10.57 16.25 21.86-12.05 17.24-18.99 38.32-18.64 61.03 1.098 71.149 72.905 120.903 140.3 95.61z" fill="#ffe773"/><path d="m316.457 279.374c18.435 13.475 1.343 42.197-19.221 32.271-57.652-27.829-85.478-88.628-73.598-147.389 4.572-22.613 37.816-19.103 37.39 3.963-.83 44.893 20.465 85.598 55.429 111.155z" fill="#fff0a6"/><path d="m153 300.768v-257.663c0-14.092-9.201-26.565-22.696-30.625-19.745-5.941-40.564-5.965-60.344-.085-13.6 4.04-22.96 16.51-22.96 30.7v257.673c0 2.479-1.154 4.815-3.117 6.328-21.389 16.492-35.323 42.186-35.867 71.148-.953 50.748 39.964 93.07 90.716 93.753 51.391.692 93.267-40.76 93.267-91.991 0-29.67-14.053-56.066-35.862-72.893-1.97-1.521-3.137-3.856-3.137-6.345z" fill="#cbe3fa"/><path d="m89.724 8.574c12.226-1.269 15.577 16.222 3.776 19.662-14.766 4.304-23.5 17.205-23.5 30.859v257.67c0 2.491-1.171 4.83-3.146 6.35-11.113 8.554-19.684 19.093-25.655 30.698-8.23 15.996-32.508 4.736-25.146-11.678 5.928-13.218 15.168-25.318 27.813-35.032 1.971-1.514 3.133-3.85 3.133-6.336v-257.672c0-14.19 9.36-26.66 22.96-30.7 5.835-1.734 12.628-3.08 19.765-3.821z" fill="#eef7ff"/><path d="m100.001 332.005c26.51 0 47.999 21.49 47.999 48s-21.49 48-48 48-48-21.491-48-48.001 21.491-47.999 48.001-47.999z" fill="#ff6d7a"/><path d="m107.027 359.061c-12.708 4.956-23.016 15.263-27.972 27.971-5.396 13.835-26.079 10.716-26.968-4.106-1.725-28.741 21.995-52.565 50.835-50.833 14.823.889 17.94 21.572 4.105 26.968z" fill="#ff8c95"/><g><path d="m230.225 141.064c4.003 1.87 8.764.141 10.634-3.861.183-.391.367-.779.554-1.167 1.916-3.981.241-8.762-3.74-10.678-3.983-1.917-8.762-.241-10.678 3.74-.213.442-.423.886-.631 1.331-1.871 4.003-.142 8.764 3.861 10.635z"/><path d="m449.581 233.534c-61.618 23.126-128.465-21.533-129.494-88.24-.313-20.297 5.635-39.776 17.202-56.332 12.27-17.563-4.851-40.605-25.257-34.051-22.178 7.116-42.528 19.787-58.853 36.644-3.074 3.174-2.992 8.238.182 11.313 3.174 3.073 8.239 2.991 11.313-.182 14.5-14.973 32.566-26.225 52.247-32.54 5.809-1.86 10.759 4.634 7.252 9.652-30.407 43.524-26.295 103.218 12.016 142.251 31.849 32.45 78.593 41.635 119.014 26.466 5.829-2.189 11.012 4.113 7.749 9.324-43.088 68.815-138.817 80.262-196.771 22.275-30.032-30.051-42.356-71.414-35.232-111.595.771-4.351-2.131-8.503-6.481-9.273-4.348-.775-8.502 2.131-9.273 6.48-7.992 45.105 5.748 91.756 39.67 125.697 64.926 64.967 172.886 52.783 221.648-25.094 11.382-18.178-6.775-40.357-26.932-32.795z"/><path d="m182.487 338.438c-4.103 1.641-6.098 6.297-4.458 10.398 21.954 54.909-18.624 115.168-78.029 115.168-46.318 0-84-37.683-84-84 0-27.254 13.313-52.925 35.614-68.67 2.123-1.498 3.386-3.935 3.386-6.534v-261.702c0-10.546 7.088-20.018 17.238-23.032 18.261-5.426 37.66-5.381 55.773.078 10.003 3.014 16.989 12.453 16.989 22.956v261.7c0 4.418 3.582 8 8 8s8-3.582 8-8v-261.7c0-17.781-11.402-33.163-28.373-38.276-21.089-6.355-43.704-6.406-64.946-.096-16.887 5.017-28.681 20.795-28.681 38.37v257.665c-24.498 18.888-39 48.2-39 79.241 0 55.141 44.86 100 100 100 70.69 0 119.038-71.704 92.886-137.107-1.64-4.102-6.295-6.097-10.399-4.459z"/><path d="m62.712 348.737c-3.802-2.247-8.709-.984-10.957 2.818-5.073 8.589-7.755 18.427-7.755 28.45 0 30.879 25.122 56 56 56s56-25.121 56-56c0-28.162-20.899-51.525-48-55.419v-55.452c0-4.418-3.582-8-8-8s-8 3.582-8 8v62.871c0 4.418 3.582 8 8 8 22.056 0 40 17.944 40 40s-17.944 40-40 40c-30.965 0-50.107-33.841-34.469-60.311 2.248-3.805.986-8.71-2.819-10.957z"/><path d="m92 228.618c0 4.418 3.582 8 8 8s8-3.582 8-8v-93.613c0-4.418-3.582-8-8-8s-8 3.582-8 8z"/><path d="m100 104.005c4.418 0 8-3.582 8-8v-13c0-4.418-3.582-8-8-8s-8 3.582-8 8v13c0 4.418 3.582 8 8 8z"/></g></svg>