<svg id="Layer_1" enable-background="new 0 0 479.978 479.978" height="512" viewBox="0 0 479.978 479.978" width="512" xmlns="http://www.w3.org/2000/svg"><g fill="#a4ebfc"><path d="m346.086 243.198c11.537 20.595 9.098 46.36-6.39 64.47-22.667 26.475-63.525 26.379-86.09 0-15.42-18.03-17.98-43.77-6.39-64.47 10.22-18.26 23.51-35.08 39.85-49.03 5.51-4.7 13.66-4.7 19.17 0 16.34 13.95 29.62 30.77 39.85 49.03z"/><path d="m379.926 67.028c8.876 15.843 7.008 35.632-4.91 49.55-17.359 20.295-48.771 20.319-66.15 0-11.85-13.86-13.81-33.64-4.91-49.55 7.14-12.75 16.22-24.58 27.23-34.67 6.07-5.57 15.44-5.57 21.52 0 11.01 10.09 20.09 21.92 27.22 34.67z"/><path d="m467.416 197.938c7.345 13.116 5.789 29.478-4.06 41-14.4 16.823-40.39 16.777-54.73 0-9.81-11.47-11.43-27.83-4.06-41 5.4-9.65 12.15-18.66 20.25-26.53 6.22-6.05 16.13-6.05 22.36 0 8.09 7.871 14.84 16.88 20.24 26.53z"/></g><path d="m353.772 33.346c7.169 6.721 7.565 18.01.84 25.176-7.553 8.049-16.568 21.001-20.888 28.925-10.618 19.476-40.403 6.216-32.524-14.52 3.38-8.896 15.01-26.845 29.986-40.569 6.07-5.57 15.44-5.57 21.52 0 .357.328.713.657 1.066.988z" fill="#caf1fc"/><path d="m308.117 222.146c-10.415 9.582-23.44 24.528-31.205 41.675-9.519 21.019-41.483 7.876-33.032-13.594.935-2.376 2.045-4.724 3.336-7.029 10.22-18.26 23.51-35.08 39.85-49.03 5.51-4.7 13.66-4.7 19.17 0 .518.442 1.033.887 1.544 1.334 8.022 7.019 8.181 19.428.337 26.644z" fill="#caf1fc"/><path d="m422.881 211.364c-5.636 13.18-25.682 5.694-20.87-7.809.676-1.898 1.525-3.776 2.555-5.616 5.4-9.65 12.15-18.66 20.25-26.53 6.22-6.05 16.13-6.05 22.36 0 2.699 2.621 2.258 6.758-.504 8.758-8.663 6.273-20.459 23.407-23.791 31.197z" fill="#caf1fc"/><path d="m153.006 300.742v-257.663c0-14.092-9.201-26.565-22.696-30.625-19.745-5.941-40.564-5.965-60.344-.085-13.6 4.04-22.96 16.51-22.96 30.7v257.673c0 2.479-1.154 4.815-3.117 6.328-21.389 16.492-35.322 42.186-35.866 71.147-.953 50.748 39.964 93.07 90.716 93.753 51.391.692 93.267-40.76 93.267-91.991 0-29.67-14.053-56.066-35.862-72.893-1.97-1.521-3.138-3.856-3.138-6.344z" fill="#cbe3fa"/><path d="m89.731 8.548c12.226-1.269 15.577 16.222 3.776 19.662-14.767 4.304-23.501 17.205-23.501 30.858v257.67c0 2.491-1.171 4.83-3.146 6.35-11.113 8.554-19.684 19.093-25.655 30.698-8.23 15.996-32.508 4.736-25.146-11.678 5.928-13.218 15.168-25.318 27.813-35.032 1.971-1.514 3.133-3.85 3.133-6.336v-257.672c0-14.19 9.36-26.66 22.96-30.7 5.835-1.734 12.628-3.08 19.766-3.82z" fill="#eef7ff"/><path d="m100.007 331.978c26.51 0 47.999 21.49 47.999 48s-21.49 48-48 48-48-21.491-48-48.001 21.491-47.999 48.001-47.999z" fill="#ff6d7a"/><path d="m107.033 359.034c-12.708 4.956-23.016 15.263-27.972 27.971-5.396 13.835-26.079 10.717-26.968-4.106-1.725-28.741 21.995-52.565 50.835-50.833 14.823.89 17.94 21.573 4.105 26.968z" fill="#ff8c95"/><g><path d="m311.429 188.088c-4.11-3.509-9.359-5.441-14.778-5.441-4.418 0-8 3.582-8 8s3.582 8 8 8c1.614 0 3.174.572 4.391 1.61 15.042 12.843 27.848 28.604 38.06 46.847 9.907 17.697 7.701 39.948-5.488 55.368-19.425 22.708-54.529 22.674-73.924 0-13.189-15.42-15.396-37.671-5.488-55.369 5.077-9.069 10.886-17.646 17.265-25.493 2.787-3.429 2.268-8.467-1.16-11.254-3.429-2.788-8.468-2.268-11.254 1.16-6.958 8.559-13.287 17.902-18.812 27.771-13.167 23.522-10.238 53.094 7.291 73.585 25.811 30.178 72.468 30.132 98.24 0 17.528-20.491 20.459-50.063 7.291-73.585-11.14-19.897-25.147-37.124-41.634-51.199z"/><path d="m384.114 101.715c-3.894-2.08-8.742-.607-10.824 3.291-11.819 22.133-42.146 25.301-58.341 6.368-9.633-11.262-11.244-27.513-4.009-40.438 6.995-12.496 15.626-23.492 25.653-32.682 3-2.75 7.703-2.75 10.703 0 10.025 9.188 18.656 20.184 25.652 32.682 2.158 3.855 7.034 5.231 10.889 3.072 3.854-2.158 5.23-7.033 3.072-10.889-7.829-13.985-17.52-26.319-28.803-36.661-9.065-8.306-23.263-8.305-32.324.001-11.284 10.342-20.976 22.676-28.804 36.661-10.496 18.749-8.16 42.32 5.812 58.654 23.523 27.5 67.516 22.812 84.614-9.235 2.082-3.897.609-8.744-3.29-10.824z"/><path d="m474.401 194.036c-5.967-10.658-13.252-20.201-21.652-28.362-9.396-9.13-24.114-9.129-33.512-.001-8.402 8.164-15.688 17.707-21.652 28.362-8.966 16.016-6.971 36.15 4.964 50.102 17.574 20.546 49.34 20.516 66.889 0 11.932-13.952 13.928-34.086 4.963-50.101zm-17.122 39.7c-11.185 13.077-31.403 13.058-42.572 0-7.596-8.88-8.866-21.693-3.161-31.885 5.21-9.307 11.549-17.618 18.841-24.703 3.143-3.053 8.068-3.054 11.213.001 7.291 7.083 13.63 15.395 18.841 24.701 5.703 10.193 4.433 23.006-3.162 31.886z"/><path d="m182.493 338.412c-4.103 1.641-6.098 6.297-4.458 10.398 21.954 54.909-18.624 115.168-78.029 115.168-46.318 0-84-37.683-84-84 0-27.254 13.313-52.925 35.614-68.67 2.123-1.499 3.386-3.936 3.386-6.535v-261.701c0-10.546 7.088-20.018 17.238-23.032 18.261-5.426 37.66-5.381 55.773.078 10.003 3.014 16.989 12.453 16.989 22.956v261.699c0 4.418 3.582 8 8 8s8-3.582 8-8v-261.699c0-17.781-11.402-33.163-28.373-38.276-21.088-6.356-43.703-6.406-64.945-.096-16.887 5.017-28.682 20.795-28.682 38.37v257.665c-24.498 18.888-39 48.2-39 79.241 0 55.141 44.86 100 100 100 70.69 0 119.038-71.704 92.886-137.107-1.64-4.103-6.296-6.098-10.399-4.459z"/><path d="m62.718 348.711c-3.801-2.247-8.708-.984-10.957 2.818-5.074 8.589-7.756 18.427-7.756 28.449 0 30.879 25.122 56 56 56s56-25.121 56-56c0-28.162-20.899-51.525-48-55.419v-55.452c0-4.418-3.582-8-8-8s-8 3.582-8 8v62.871c0 4.418 3.582 8 8 8 22.056 0 40 17.944 40 40s-17.944 40-40 40c-30.965 0-50.107-33.841-34.469-60.311 2.249-3.804.987-8.709-2.818-10.956z"/><path d="m92.006 228.592c0 4.418 3.582 8 8 8s8-3.582 8-8v-93.613c0-4.418-3.582-8-8-8s-8 3.582-8 8z"/><path d="m100.006 103.978c4.418 0 8-3.582 8-8v-13c0-4.418-3.582-8-8-8s-8 3.582-8 8v13c0 4.418 3.582 8 8 8z"/></g></svg>