<svg id="Layer_1" enable-background="new 0 0 480.092 480.092" height="512" viewBox="0 0 480.092 480.092" width="512" xmlns="http://www.w3.org/2000/svg"><path d="m469.68 162.815c2.96 4.36 3.18 10.02.58 14.61l-22.43 39.43c-5.33 9.37-19.65 5.41-19.4-5.37l.28-12.58c.1-4.52-2.01-8.8-5.65-11.47l-36.4-26.71c-4.4-3.22-6.49-8.72-5.35-14.05l9.12-42.69c1.36-6.39 7.01-10.95 13.54-10.95h41.21c9.24 0 15.89 8.89 13.27 17.76l-5.43 18.42c-1.17 3.97-.51 8.26 1.82 11.68z" fill="#ffe773"/><path d="m354.95 232.125c4 5.9 4.3 13.56.78 19.75l-41.26 72.54c-6.16 10.83-22.71 6.26-22.43-6.2l.77-34.08c.14-6.11-2.72-11.9-7.64-15.51l-56.52-41.46c-5.94-4.36-8.78-11.8-7.24-19l14.31-66.94c1.84-8.63 9.47-14.8 18.3-14.8h66.2c12.5 0 21.49 12.02 17.95 24.01l-9.2 31.18c-1.59 5.36-.68 11.16 2.45 15.79z" fill="#ffe773"/><g fill="#fff0a6"><path d="m446.124 93.054c12.918.524 12.313 19.981-.616 19.981h-21.538c-6.53 0-12.196 4.557-13.54 10.95-3.221 15.322-5.341 25.228-6.781 31.788-1.551 7.062-9.852 10.188-15.682 5.911l-1.307-.959c-4.4-3.22-6.49-8.72-5.35-14.05l9.12-42.69c1.36-6.39 7.01-10.95 13.54-10.95 0 0 41.847.007 42.154.019z"/><path d="m321.398 126.461c12.716.778 11.825 19.964-.915 19.964h-46.463c-8.83 0-16.498 6.162-18.3 14.8-7.147 34.25-11.001 51.282-13.026 60.627-1.372 6.335-8.819 9.147-14.044 5.313-5.94-4.359-8.78-11.8-7.24-19l14.31-66.94c1.84-8.63 9.47-14.8 18.3-14.8 0 0 66.989.013 67.378.036z"/><path d="m312.81 304.135-.419 18.611c-.089 3.943-3.053 7.3-6.977 7.699-6.582.668-13.531-4.103-13.374-12.229.207-10.742.366-18.166.513-23.424.18-6.392 7.461-9.95 12.617-6.167 4.92 3.611 7.78 9.401 7.64 15.51z"/></g><path d="m153 300.799v-257.663c0-14.092-9.201-26.565-22.696-30.625-19.745-5.941-40.564-5.965-60.344-.085-13.6 4.04-22.96 16.509-22.96 30.699v257.673c0 2.479-1.154 4.815-3.117 6.328-21.389 16.493-35.323 42.187-35.867 71.148-.953 50.748 39.964 93.07 90.716 93.753 51.391.692 93.267-40.76 93.267-91.991 0-29.67-14.053-56.066-35.862-72.893-1.97-1.521-3.137-3.856-3.137-6.344z" fill="#cbe3fa"/><path d="m89.724 8.605c12.226-1.269 15.577 16.222 3.776 19.662-14.766 4.304-23.5 17.205-23.5 30.858v257.67c0 2.491-1.171 4.83-3.146 6.35-11.113 8.554-19.684 19.093-25.655 30.698-8.23 15.996-32.508 4.736-25.146-11.678 5.928-13.218 15.168-25.318 27.813-35.032 1.971-1.514 3.133-3.85 3.133-6.336v-257.672c0-14.19 9.36-26.66 22.96-30.7 5.835-1.734 12.628-3.08 19.765-3.82z" fill="#eef7ff"/><path d="m100.001 332.035c26.51 0 47.999 21.49 47.999 48s-21.49 48-48 48-48-21.491-48-48.001 21.491-47.999 48.001-47.999z" fill="#ff6d7a"/><path d="m107.027 359.091c-12.708 4.956-23.016 15.263-27.972 27.971-5.396 13.835-26.079 10.717-26.968-4.106-1.725-28.741 21.995-52.565 50.835-50.833 14.823.89 17.94 21.573 4.105 26.968z" fill="#ff8c95"/><g><path d="m338.048 192.92c-1.804-2.662-2.316-5.958-1.406-9.043l9.2-31.18c5.054-17.125-7.76-34.273-25.621-34.273h-30.634c-4.418 0-8 3.582-8 8s3.582 8 8 8h30.634c7.159 0 12.304 6.874 10.275 13.745l-9.2 31.18c-2.27 7.689-.991 15.907 3.506 22.547l23.526 34.717c2.306 3.402 2.476 7.735.444 11.307l-41.259 72.541c-1.39 2.445-3.641 2.129-4.543 1.878-.903-.249-2.996-1.134-2.933-3.945l.769-34.074c.196-8.711-3.881-16.988-10.907-22.142l-56.522-41.463c-3.395-2.49-5.02-6.76-4.14-10.877l14.305-66.938c.924-4.32-1.831-8.572-6.151-9.495-4.32-.921-8.571 1.832-9.495 6.151l-14.305 66.938c-2.194 10.267 1.857 20.913 10.323 27.122l56.522 41.463c2.817 2.067 4.453 5.387 4.374 8.88l-.769 34.074c-.467 20.744 27.115 28.388 37.38 10.339l41.259-72.541c5.065-8.906 4.642-19.708-1.106-28.192z"/><path d="m476.308 158.324-14.85-21.914c-.983-1.451-1.263-3.248-.767-4.93l5.436-18.42c4.132-14.001-6.343-28.025-20.95-28.025h-41.211c-10.238 0-19.222 7.267-21.36 17.278l-9.122 42.688c-.924 4.321 1.831 8.572 6.151 9.495 4.323.921 8.572-1.831 9.495-6.151l9.122-42.689c.572-2.678 2.976-4.621 5.714-4.621h41.211c3.905 0 6.71 3.749 5.604 7.496l-5.436 18.42c-1.856 6.288-.811 13.007 2.867 18.435l14.85 21.914c1.257 1.854 1.35 4.218.241 6.166l-22.428 39.433c-.608 1.069-1.515 1.452-2.706 1.118-1.187-.328-1.773-1.118-1.746-2.349l.284-12.582c.16-7.124-3.174-13.892-8.919-18.105l-11.48-8.421c-3.563-2.612-8.57-1.842-11.183 1.72-2.612 3.563-1.843 8.569 1.72 11.183l11.48 8.421c1.537 1.127 2.429 2.938 2.386 4.843l-.284 12.581c-.431 19.074 24.923 26.087 34.356 9.502l22.428-39.434c4.143-7.284 3.796-16.117-.903-23.052z"/><path d="m182.486 338.47c-4.103 1.641-6.098 6.296-4.457 10.398 21.956 54.899-18.624 115.167-78.029 115.167-46.317 0-84-37.683-84-84 0-27.254 13.313-52.925 35.614-68.67 2.123-1.499 3.386-3.935 3.386-6.535v-261.701c0-10.546 7.089-20.018 17.238-23.032 18.261-5.426 37.66-5.381 55.773.078 10.003 3.014 16.989 12.453 16.989 22.956v261.699c0 4.418 3.582 8 8 8s8-3.582 8-8v-261.699c0-17.781-11.402-33.163-28.372-38.276-21.093-6.356-43.706-6.407-64.946-.096-16.888 5.017-28.682 20.795-28.682 38.37v257.665c-24.497 18.888-39 48.2-39 79.241 0 55.141 44.859 100 100 100 70.682 0 119.044-71.707 92.885-137.108-1.641-4.104-6.3-6.096-10.399-4.457z"/><path d="m62.713 348.768c-3.808-2.25-8.71-.984-10.957 2.818-5.074 8.588-7.756 18.426-7.756 28.449 0 30.879 25.121 56 56 56s56-25.121 56-56c0-28.162-20.898-51.525-48-55.419v-55.452c0-4.418-3.582-8-8-8s-8 3.582-8 8v62.871c0 4.418 3.582 8 8 8 22.056 0 40 17.944 40 40s-17.944 40-40 40c-30.965 0-50.105-33.841-34.469-60.311 2.247-3.803.986-8.709-2.818-10.956z"/><path d="m92 228.649c0 4.418 3.582 8 8 8s8-3.582 8-8v-93.613c0-4.418-3.582-8-8-8s-8 3.582-8 8z"/><path d="m100 104.035c4.418 0 8-3.582 8-8v-13c0-4.418-3.582-8-8-8s-8 3.582-8 8v13c0 4.418 3.582 8 8 8z"/></g></svg>