<svg id="Layer_1" enable-background="new 0 0 480 480" height="512" viewBox="0 0 480 480" width="512" xmlns="http://www.w3.org/2000/svg"><g fill="#caf1fc"><path d="m301.48 106.7c6.25 6.25 6.25 16.38 0 22.63l-14.63 14.63c-6.25 6.25-16.38 6.25-22.63 0l-14.63-14.63c-6.25-6.25-6.25-16.38 0-22.63l14.63-14.63c6.25-6.25 16.38-6.25 22.63 0z"/><path d="m433.87 235.17c6.25 6.25 6.25 16.38 0 22.63l-14.63 14.63c-6.25 6.25-16.38 6.25-22.63 0l-14.63-14.63c-6.25-6.25-6.25-16.38 0-22.63l14.63-14.63c6.25-6.25 16.38-6.25 22.63 0z"/><path d="m294.48 256.46c9.38 9.38 9.38 24.57 0 33.95l-19.49 19.49c-9.37 9.37-24.57 9.37-33.94 0l-19.49-19.49c-9.37-9.38-9.37-24.57 0-33.95l19.49-19.49c9.37-9.37 24.57-9.37 33.94 0z"/></g><path d="m153 300.753v-257.663c0-14.092-9.201-26.565-22.696-30.625-19.745-5.941-40.564-5.965-60.344-.085-13.6 4.04-22.96 16.51-22.96 30.7v257.673c0 2.479-1.154 4.815-3.117 6.328-21.389 16.492-35.323 42.186-35.867 71.148-.953 50.748 39.964 93.07 90.716 93.753 51.391.691 93.268-40.76 93.268-91.992 0-29.67-14.053-56.066-35.862-72.893-1.971-1.52-3.138-3.855-3.138-6.344z" fill="#cbe3fa"/><path d="m100.001 331.99c26.51 0 47.999 21.49 47.999 48s-21.49 48-48 48-48-21.491-48-48.001 21.491-47.999 48.001-47.999z" fill="#ff6d7a"/><path d="m107.027 359.046c-12.708 4.956-23.016 15.263-27.972 27.971-5.396 13.835-26.079 10.716-26.968-4.106-1.725-28.741 21.995-52.565 50.835-50.833 14.823.889 17.94 21.572 4.105 26.968z" fill="#ff8c95"/><path d="m89.724 8.559c12.226-1.269 15.577 16.222 3.776 19.662-14.766 4.304-23.5 17.205-23.5 30.859v257.67c0 2.491-1.171 4.83-3.146 6.35-11.113 8.554-19.684 19.093-25.655 30.698-8.23 15.996-32.508 4.736-25.146-11.678 5.928-13.218 15.168-25.318 27.813-35.032 1.971-1.514 3.133-3.85 3.133-6.336v-257.672c0-14.19 9.36-26.66 22.96-30.7 5.835-1.734 12.628-3.08 19.765-3.821z" fill="#eef7ff"/><path d="m153 300.753v-257.663c0-14.092-9.201-26.565-22.696-30.625-19.745-5.941-40.564-5.965-60.344-.085-13.6 4.04-22.96 16.51-22.96 30.7v257.673c0 2.479-1.154 4.815-3.117 6.328-21.389 16.492-35.323 42.186-35.867 71.148-.953 50.748 39.964 93.07 90.716 93.753 51.391.691 93.268-40.76 93.268-91.992 0-29.67-14.053-56.066-35.862-72.893-1.971-1.52-3.138-3.855-3.138-6.344z" fill="#cbe3fa"/><path d="m100.001 331.99c26.51 0 47.999 21.49 47.999 48s-21.49 48-48 48-48-21.491-48-48.001 21.491-47.999 48.001-47.999z" fill="#ff6d7a"/><path d="m107.027 359.046c-12.708 4.956-23.016 15.263-27.972 27.971-5.396 13.835-26.079 10.716-26.968-4.106-1.725-28.741 21.995-52.565 50.835-50.833 14.823.889 17.94 21.572 4.105 26.968z" fill="#ff8c95"/><path d="m89.724 8.559c12.226-1.269 15.577 16.222 3.776 19.662-14.766 4.304-23.5 17.205-23.5 30.859v257.67c0 2.491-1.171 4.83-3.146 6.35-11.113 8.554-19.684 19.093-25.655 30.698-8.23 15.996-32.508 4.736-25.146-11.678 5.928-13.218 15.168-25.318 27.813-35.032 1.971-1.514 3.133-3.85 3.133-6.336v-257.672c0-14.19 9.36-26.66 22.96-30.7 5.835-1.734 12.628-3.08 19.765-3.821z" fill="#eef7ff"/><path d="m274.478 134.21c6.41 6.407-2.949 17.059-10.258 9.75l-14.63-14.63c-6.249-6.249-6.249-16.381 0-22.63 0 0 15.129-15.113 15.387-15.34 6.756-5.944 15.875 4.091 9.51 10.452-1.418 1.417-3.041 3.034-4.898 4.888-6.255 6.245-6.254 16.384 0 22.63 1.85 1.846 3.47 3.461 4.889 4.88z" fill="#e3f7fc"/><path d="m256.383 295.221c9.673 9.658-4.496 25.516-15.333 14.679l-19.49-19.49c-9.37-9.38-9.37-24.57 0-33.95 0 0 20.121-20.104 20.445-20.395 10.114-9.077 23.989 5.985 14.373 15.588-1.458 1.456-3.061 3.052-4.819 4.807-9.381 9.37-9.38 24.581 0 33.95 1.759 1.756 3.364 3.353 4.824 4.811z" fill="#e3f7fc"/><path d="m406.879 262.689c6.41 6.406-2.944 17.065-10.269 9.741l-14.63-14.63c-6.249-6.249-6.249-16.381 0-22.63 0 0 15.122-15.107 15.376-15.331 6.75-5.95 15.876 4.089 9.512 10.45-1.419 1.419-3.04 3.035-4.888 4.881-6.254 6.246-6.255 16.385 0 22.63 1.856 1.852 3.48 3.47 4.899 4.889z" fill="#e3f7fc"/><g><path d="m258.563 149.614c9.358 9.356 24.583 9.358 33.942 0l14.632-14.632c9.357-9.357 9.357-24.584 0-33.941l-14.632-14.632c-3.125-3.123-8.189-3.123-11.314 0-3.124 3.125-3.124 8.189 0 11.314l14.632 14.632c3.119 3.119 3.119 8.193 0 11.313l-14.632 14.632c-3.125 3.127-8.187 3.128-11.313 0l-14.632-14.632c-1.57-1.569-2.4-3.656-2.34-5.878.121-4.416-3.361-8.095-7.778-8.216-4.434-.12-8.096 3.36-8.216 7.778-.18 6.563 2.379 12.988 7.02 17.63z"/><path d="m280.648 231.314c-3.144-3.143-6.822-5.553-10.933-7.165-4.113-1.615-8.755.414-10.368 4.528-1.612 4.113.415 8.755 4.528 10.368 2.047.803 3.885 2.009 5.46 3.583l19.492 19.493c6.251 6.251 6.254 16.373-.001 22.626l-19.491 19.491c-6.238 6.238-16.389 6.238-22.627 0l-19.492-19.491c-6.251-6.251-6.254-16.373.001-22.626l11.65-11.65c3.124-3.125 3.124-8.189 0-11.314-3.125-3.123-8.189-3.123-11.314 0l-11.649 11.65c-12.505 12.503-12.509 32.747-.001 45.255l19.491 19.491c12.478 12.476 32.777 12.477 45.256 0l19.49-19.491c12.504-12.502 12.51-32.747.001-45.254z"/><path d="m424.894 214.879c-9.357-9.355-24.582-9.354-33.941 0l-14.632 14.633c-9.356 9.358-9.356 24.584 0 33.941l14.632 14.632c9.357 9.355 24.582 9.356 33.942 0l14.632-14.632c9.356-9.357 9.356-24.583 0-33.942zm3.318 37.26-14.631 14.632c-3.12 3.12-8.197 3.118-11.315 0l-14.631-14.632c-3.119-3.119-3.119-8.194 0-11.313l14.631-14.632c3.12-3.116 8.196-3.12 11.314 0l14.632 14.631c3.119 3.12 3.119 8.195 0 11.314z"/><path d="m368.037 24.859c-3.125-3.123-8.189-3.123-11.314 0l-20.098 20.098c-5.055 5.057-1.406 13.657 5.657 13.657 2.048 0 4.095-.781 5.657-2.343l20.098-20.098c3.124-3.125 3.124-8.189 0-11.314z"/><path d="m319.109 81.787c3.847 0 5.547-2.232 8.05-4.735 3.124-3.125 3.124-8.189 0-11.314-3.125-3.123-8.189-3.123-11.314 0l-2.393 2.393c-5.055 5.055-1.406 13.656 5.657 13.656z"/><path d="m347.296 172.847-1.836 1.837c-3.123 3.125-3.122 8.19.003 11.313 3.132 3.13 8.197 3.116 11.313-.003l1.836-1.837c3.123-3.125 3.122-8.19-.003-11.313-3.126-3.124-8.191-3.121-11.313.003z"/><path d="m327.33 192.813-20.371 20.372c-3.124 3.124-3.124 8.189.001 11.313 3.124 3.124 8.188 3.124 11.313-.001l20.371-20.372c3.124-3.124 3.124-8.189-.001-11.313-3.122-3.121-8.187-3.124-11.313.001z"/><path d="m477.657 177.399c-3.125-3.123-8.189-3.123-11.314 0l-17.801 17.801c-5.055 5.057-1.406 13.657 5.657 13.657 2.048 0 4.095-.781 5.657-2.343l17.801-17.801c3.124-3.125 3.124-8.189 0-11.314z"/><path d="m182.486 338.424c-4.103 1.641-6.098 6.296-4.457 10.398 21.957 54.9-18.624 115.168-78.029 115.168-46.317 0-84-37.683-84-84 0-27.254 13.313-52.925 35.614-68.67 2.123-1.499 3.386-3.936 3.386-6.535v-261.702c0-10.546 7.089-20.018 17.238-23.032 18.261-5.426 37.66-5.381 55.773.078 10.003 3.014 16.989 12.453 16.989 22.956v261.699c0 4.418 3.582 8 8 8s8-3.582 8-8v-261.699c0-17.781-11.402-33.163-28.372-38.276-21.092-6.356-43.705-6.407-64.946-.096-16.888 5.017-28.682 20.795-28.682 38.37v257.665c-24.497 18.888-39 48.2-39 79.241 0 55.141 44.859 100 100 100 70.682 0 119.044-71.707 92.885-137.108-1.642-4.104-6.301-6.095-10.399-4.457z"/><path d="m62.713 348.722c-3.807-2.25-8.71-.984-10.957 2.818-5.074 8.588-7.756 18.426-7.756 28.45 0 30.879 25.121 56 56 56s56-25.121 56-56c0-28.162-20.898-51.525-48-55.419v-55.452c0-4.418-3.582-8-8-8s-8 3.582-8 8v62.871c0 4.418 3.582 8 8 8 22.056 0 40 17.944 40 40s-17.944 40-40 40c-30.965 0-50.105-33.841-34.469-60.311 2.247-3.804.986-8.71-2.818-10.957z"/><path d="m92 228.603c0 4.418 3.582 8 8 8s8-3.582 8-8v-93.613c0-4.418-3.582-8-8-8s-8 3.582-8 8z"/><path d="m100 103.99c4.418 0 8-3.582 8-8v-13c0-4.418-3.582-8-8-8s-8 3.582-8 8v13c0 4.418 3.582 8 8 8z"/></g></svg>