<svg id="Layer_1" enable-background="new 0 0 480.001 480.001" height="512" viewBox="0 0 480.001 480.001" width="512" xmlns="http://www.w3.org/2000/svg"><path d="m153 300.753v-257.663c0-14.092-9.201-26.565-22.696-30.625-19.745-5.941-40.564-5.965-60.344-.085-13.6 4.04-22.96 16.51-22.96 30.7v257.673c0 2.479-1.154 4.815-3.117 6.328-21.389 16.492-35.323 42.186-35.867 71.148-.953 50.748 39.964 93.07 90.716 93.753 51.391.691 93.268-40.76 93.268-91.992 0-29.67-14.053-56.066-35.862-72.893-1.971-1.52-3.138-3.855-3.138-6.344z" fill="#cbe3fa"/><path d="m89.724 8.559c12.226-1.269 15.577 16.222 3.776 19.662-14.766 4.304-23.5 17.205-23.5 30.859v257.67c0 2.491-1.171 4.83-3.146 6.35-11.113 8.554-19.684 19.093-25.655 30.698-8.23 15.996-32.508 4.736-25.146-11.678 5.928-13.218 15.168-25.318 27.813-35.032 1.971-1.514 3.133-3.85 3.133-6.336v-257.672c0-14.19 9.36-26.66 22.96-30.7 5.835-1.734 12.628-3.08 19.765-3.821z" fill="#eef7ff"/><path d="m100.001 331.99c26.51 0 47.999 21.49 47.999 48s-21.49 48-48 48-48-21.491-48-48.001 21.491-47.999 48.001-47.999z" fill="#ff6d7a"/><path d="m107.027 359.046c-12.708 4.956-23.016 15.263-27.972 27.971-5.396 13.835-26.079 10.717-26.968-4.106-1.725-28.741 21.995-52.565 50.835-50.833 14.823.889 17.94 21.572 4.105 26.968z" fill="#ff8c95"/><g><path d="m476 252.709-18.56-10.716 14.806-6.042c4.091-1.67 6.054-6.339 4.385-10.43s-6.338-6.05-10.43-4.385l-26.298 10.731-59.903-34.585 29.611-17.096c3.826-2.209 5.137-7.102 2.928-10.928-2.209-3.825-7.102-5.137-10.928-2.928l-29.611 17.096v-69.171l22.442-17.409c3.491-2.708 4.126-7.733 1.418-11.225s-7.734-4.127-11.225-1.418l-12.635 9.802v-21.43c0-4.418-3.582-8-8-8s-8 3.582-8 8v21.431l-12.636-9.802c-3.492-2.709-8.517-2.072-11.225 1.418-2.708 3.491-2.073 8.517 1.418 11.225l22.443 17.408v78.408l-67.903 39.204-26.298-10.731c-4.093-1.67-8.76.293-10.43 4.385-1.669 4.091.294 8.76 4.385 10.43l14.806 6.042-18.56 10.716c-3.826 2.209-5.137 7.102-2.928 10.928 2.22 3.845 7.12 5.127 10.928 2.928l18.56-10.716-2.171 15.844c-.6 4.377 2.462 8.412 6.84 9.012 4.344.599 8.408-2.434 9.012-6.84l3.856-28.14 59.903-34.587v69.171l-22.442 17.409c-3.491 2.708-4.126 7.733-1.418 11.225 2.708 3.49 7.733 4.125 11.225 1.418l12.635-9.802v21.431c0 4.418 3.582 8 8 8s8-3.582 8-8v-21.431l12.636 9.802c3.484 2.701 8.51 2.08 11.225-1.418 2.708-3.491 2.073-8.517-1.418-11.225l-22.443-17.409v-69.171l59.904 34.585 3.856 28.141c.549 4.01 3.979 6.915 7.916 6.915 4.848 0 8.596-4.271 7.936-9.087l-2.171-15.844 18.559 10.716c3.801 2.195 8.705.923 10.928-2.928 2.209-3.826.898-8.718-2.928-10.927z"/><path d="m252 141.856 18.56 10.716-14.806 6.042c-4.091 1.67-6.054 6.339-4.385 10.43 1.266 3.102 4.255 4.979 7.41 4.979 2.148 0 .935.256 29.318-11.326l29.822 17.218c3.801 2.195 8.705.923 10.928-2.928 2.209-3.826.898-8.719-2.928-10.928l-29.823-17.218-3.856-28.142c-.6-4.377-4.635-7.439-9.012-6.84-4.377.6-7.44 4.635-6.84 9.012l2.171 15.845-18.559-10.715c-3.826-2.212-8.719-.899-10.928 2.928-2.209 3.825-.898 8.718 2.928 10.927z"/><path d="m431.304 153.802c-.006 2.631 1.306 5.013 3.206 6.416 1.16.868-.233.192 31.691 13.21 4.117 1.679 8.77-.318 10.43-4.385 1.669-4.091-.294-8.76-4.385-10.43l-14.806-6.042 18.56-10.715c3.826-2.209 5.137-7.102 2.928-10.928s-7.102-5.136-10.928-2.928l-18.56 10.716 2.171-15.845c.6-4.377-2.462-8.412-6.84-9.012-4.373-.598-8.412 2.463-9.012 6.84-4.712 34.379-4.454 32.262-4.455 33.103z"/><path d="m182.487 338.423c-4.103 1.641-6.098 6.297-4.458 10.398 21.954 54.91-18.624 115.169-78.029 115.169-46.318 0-84-37.683-84-84 0-27.254 13.313-52.925 35.614-68.67 2.123-1.499 3.386-3.936 3.386-6.535v-261.701c0-10.546 7.088-20.018 17.238-23.032 18.261-5.426 37.66-5.38 55.773.078 10.003 3.013 16.989 12.453 16.989 22.956v261.699c0 4.418 3.582 8 8 8s8-3.582 8-8v-261.699c0-17.781-11.402-33.163-28.373-38.276-21.089-6.355-43.704-6.406-64.946-.096-16.887 5.016-28.681 20.794-28.681 38.37v257.665c-24.498 18.888-39 48.2-39 79.241 0 55.141 44.86 100 100 100 70.69 0 119.038-71.704 92.886-137.107-1.641-4.103-6.297-6.096-10.399-4.46z"/><path d="m62.712 348.722c-3.802-2.248-8.709-.984-10.957 2.818-5.073 8.589-7.755 18.427-7.755 28.45 0 30.879 25.122 56 56 56s56-25.121 56-56c0-28.162-20.899-51.524-48-55.42v-55.451c0-4.418-3.582-8-8-8s-8 3.582-8 8v62.871c0 4.418 3.582 8 8 8 22.056 0 40 17.944 40 40s-17.944 40-40 40c-30.965 0-50.107-33.841-34.469-60.311 2.248-3.804.986-8.71-2.819-10.957z"/><path d="m92 228.603c0 4.418 3.582 8 8 8s8-3.582 8-8v-93.613c0-4.418-3.582-8-8-8s-8 3.582-8 8z"/><path d="m100 103.99c4.418 0 8-3.582 8-8v-13c0-4.418-3.582-8-8-8s-8 3.582-8 8v13c0 4.418 3.582 8 8 8z"/></g></svg>