<svg id="Layer_1" enable-background="new 0 0 479.978 479.978" height="512" viewBox="0 0 479.978 479.978" width="512" xmlns="http://www.w3.org/2000/svg"><path d="m153.489 300.742v-257.663c0-14.092-9.201-26.565-22.696-30.625-19.745-5.941-40.564-5.965-60.344-.085-13.6 4.04-22.96 16.51-22.96 30.7v257.673c0 2.479-1.154 4.815-3.117 6.328-21.389 16.492-35.322 42.186-35.866 71.147-.953 50.748 39.964 93.07 90.716 93.753 51.391.692 93.267-40.76 93.267-91.991 0-29.67-14.053-56.066-35.862-72.893-1.97-1.521-3.138-3.856-3.138-6.344z" fill="#cbe3fa"/><path d="m90.214 8.548c12.226-1.269 15.576 16.222 3.776 19.661-14.767 4.304-23.501 17.206-23.501 30.859v257.67c0 2.491-1.171 4.83-3.146 6.35-11.113 8.554-19.684 19.093-25.655 30.698-8.23 15.996-32.508 4.736-25.146-11.678 5.928-13.218 15.168-25.318 27.813-35.032 1.971-1.514 3.133-3.85 3.133-6.336v-257.672c0-14.19 9.36-26.66 22.96-30.7 5.835-1.734 12.628-3.08 19.766-3.82z" fill="#eef7ff"/><path d="m100.49 331.978c26.51 0 47.999 21.49 47.999 48s-21.49 48-48 48-48-21.491-48-48.001 21.491-47.999 48.001-47.999z" fill="#ff6d7a"/><path d="m107.517 359.034c-12.708 4.956-23.016 15.263-27.972 27.971-5.396 13.835-26.079 10.717-26.968-4.106-1.725-28.741 21.995-52.565 50.835-50.833 14.822.89 17.939 21.573 4.105 26.968z" fill="#ff8c95"/><g><path d="m327.07 92.639c3.364 0 5.115-1.911 6.085-2.659 3.497-2.7 4.144-7.725 1.444-11.222-2.7-3.498-7.723-4.145-11.221-1.444-.561.434-1.106.885-1.623 1.344-5.497 4.881-2.006 13.981 5.315 13.981z"/><path d="m372.489 101.478c0-8.183-3.196-15.865-9-21.634-3.134-3.114-8.199-3.099-11.313.035-3.115 3.134-3.099 8.199.035 11.314 9.136 9.078 2.672 24.784-10.222 24.784h-132.5c-4.418 0-8 3.582-8 8s3.582 8 8 8h132.5c16.818.001 30.5-13.681 30.5-30.499z"/><path d="m401.989 248.978h-114.855c-4.418 0-8 3.582-8 8s3.582 8 8 8h114.855c7.995 0 14.5 6.505 14.5 14.5 0 12.077-13.942 18.782-23.374 11.47-3.494-2.71-8.518-2.072-11.224 1.421-2.708 3.491-2.071 8.517 1.42 11.224 19.807 15.356 49.177 1.344 49.177-24.114.001-16.818-13.681-30.501-30.499-30.501z"/><path d="m249.457 248.978h-9.968c-4.418 0-8 3.582-8 8s3.582 8 8 8h9.968c4.418 0 8-3.582 8-8s-3.582-8-8-8z"/><path d="m442.509 132.498c-11.907 0-23.157 5.788-30.092 15.483-2.571 3.593-1.742 8.59 1.852 11.161 3.594 2.57 8.591 1.741 11.161-1.853 3.938-5.505 10.324-8.792 17.08-8.792 11.568 0 20.98 9.412 20.98 20.98s-9.412 20.98-20.98 20.98h-83.052c-4.418 0-8 3.582-8 8s3.582 8 8 8h83.052c20.391 0 36.98-16.59 36.98-36.98s-16.59-36.979-36.981-36.979z"/><path d="m290.489 190.459c-4.418 0-8 3.582-8 8s3.582 8 8 8h31.032c4.418 0 8-3.582 8-8s-3.582-8-8-8z"/><path d="m182.977 338.412c-4.103 1.641-6.098 6.297-4.458 10.398 21.954 54.909-18.624 115.168-78.029 115.168-46.318 0-84-37.683-84-84 0-27.254 13.313-52.925 35.614-68.67 2.123-1.499 3.386-3.936 3.386-6.535v-261.701c0-10.546 7.088-20.018 17.238-23.032 18.261-5.426 37.66-5.38 55.773.078 10.003 3.014 16.989 12.453 16.989 22.956v261.699c0 4.418 3.582 8 8 8s8-3.582 8-8v-261.699c0-17.781-11.402-33.163-28.373-38.276-21.089-6.355-43.704-6.406-64.946-.096-16.887 5.017-28.682 20.795-28.682 38.37v257.665c-24.498 18.888-39 48.2-39 79.241 0 55.141 44.86 100 100 100 70.69 0 119.038-71.704 92.886-137.107-1.64-4.103-6.295-6.096-10.398-4.459z"/><path d="m63.202 348.711c-3.802-2.248-8.709-.984-10.957 2.818-5.074 8.589-7.756 18.427-7.756 28.449 0 30.879 25.122 56 56 56s56-25.121 56-56c0-28.162-20.899-51.524-48-55.42v-55.451c0-4.418-3.582-8-8-8s-8 3.582-8 8v62.871c0 4.418 3.582 8 8 8 22.056 0 40 17.944 40 40s-17.944 40-40 40c-30.965 0-50.107-33.841-34.469-60.311 2.248-3.804.986-8.709-2.818-10.956z"/><path d="m92.489 228.592c0 4.418 3.582 8 8 8s8-3.582 8-8v-93.613c0-4.418-3.582-8-8-8s-8 3.582-8 8z"/><path d="m100.489 103.978c4.418 0 8-3.582 8-8v-13c0-4.418-3.582-8-8-8s-8 3.582-8 8v13c0 4.418 3.582 8 8 8z"/></g></svg>