<svg id="Layer_1" enable-background="new 0 0 480 480" height="512" viewBox="0 0 480 480" width="512" xmlns="http://www.w3.org/2000/svg"><path d="m472.08 233.912c0 29.003-23.51 52.513-52.507 52.513h-158.355c-23.72 0-42.942-19.222-42.942-42.942 0-24.641 20.595-43.924 44.699-42.899-9.303-39.376 13.783-78.768 51.919-90.314 47.691-14.489 97.258 20.737 98.103 71.537 31.17-3.94 59.083 20.342 59.083 52.105z" fill="#cbe3fa"/><g fill="#eef7ff"><path d="m326.258 134.425c-18.284 11.119-30.414 31.595-28.442 59.823.783 11.204-8.719 16.554-8.645 16.474-10.45 6.227-23.94.378-26.509-11.512-8.565-39.637 15.227-78.155 53.049-89.183 15.126-4.41 24.009 16.211 10.547 24.398z"/><path d="m420.414 208.308c-8.434 3.406-16.072 8.833-22.31 15.947-4.179 4.765-11.364 6.527-17.917 3.025-7.342-3.923-9.962-13.202-5.68-20.341 8.267-13.781 22.558-23.323 39.145-25.211 15.993-1.819 21.687 20.553 6.762 26.58z"/><path d="m260.023 218.671c-11.267 5.416-16.911 14.998-20.304 25.841-3.888 12.423-22.339 8.84-21.344-4.139 1.412-18.426 14.464-35.706 35.757-39.246 1.346 6.073 3.258 11.878 5.891 17.544z"/></g><path d="m153 300.753v-257.664c0-14.092-9.201-26.565-22.696-30.625-19.745-5.94-40.564-5.964-60.344-.085-13.6 4.04-22.96 16.51-22.96 30.7v257.673c0 2.479-1.154 4.815-3.117 6.328-21.389 16.492-35.323 42.187-35.867 71.148-.953 50.748 39.964 93.07 90.716 93.753 51.391.692 93.267-40.76 93.267-91.991 0-29.67-14.053-56.066-35.862-72.893-1.97-1.521-3.137-3.856-3.137-6.344z" fill="#cbe3fa"/><path d="m89.724 8.559c12.226-1.269 15.577 16.221 3.777 19.661-14.767 4.305-23.501 17.206-23.501 30.859v257.67c0 2.491-1.171 4.83-3.146 6.35-11.113 8.554-19.684 19.093-25.655 30.698-8.23 15.996-32.508 4.736-25.146-11.678 5.928-13.218 15.168-25.318 27.813-35.032 1.971-1.514 3.133-3.85 3.133-6.336v-257.672c0-14.19 9.36-26.66 22.96-30.7 5.835-1.734 12.628-3.08 19.765-3.82z" fill="#eef7ff"/><path d="m100.001 331.989c26.51 0 47.999 21.49 47.999 48s-21.49 48-48 48-48-21.491-48-48.001 21.491-47.999 48.001-47.999z" fill="#ff6d7a"/><path d="m107.027 359.045c-12.708 4.956-23.016 15.263-27.972 27.971-5.396 13.835-26.079 10.716-26.968-4.106-1.725-28.741 21.995-52.565 50.835-50.833 14.823.89 17.94 21.573 4.105 26.968z" fill="#ff8c95"/><g><path d="m419.448 173.437c-33.389 0-60.552 27.163-60.552 60.552 0 4.418 3.582 8 8 8s8-3.582 8-8c0-24.565 19.985-44.552 44.552-44.552 24.565 0 44.552 19.986 44.552 44.552s-19.986 44.552-44.552 44.552h-158.476c-28.634 0-44.849-32.551-28.399-55.386 2.583-3.585 1.77-8.584-1.815-11.167-3.585-2.584-8.585-1.769-11.167 1.815-6.274 8.709-9.59 19.002-9.59 29.766 0 28.105 22.866 50.972 50.972 50.972h158.477c33.389 0 60.552-27.163 60.552-60.552s-27.165-60.552-60.554-60.552z"/><path d="m273.509 233.338c6.323 0 10.215-7.108 6.642-12.449-7.492-11.198-11.452-24.272-11.452-37.809 0-37.546 30.546-68.091 68.091-68.091 21.022 0 40.543 9.49 53.557 26.038 2.729 3.473 7.76 4.076 11.233 1.343 3.473-2.73 4.074-7.761 1.343-11.233-16.065-20.43-40.171-32.147-66.133-32.147-46.368 0-84.091 37.723-84.091 84.091 0 16.715 4.895 32.865 14.153 46.705 1.543 2.306 4.076 3.552 6.657 3.552z"/><path d="m182.487 338.423c-4.103 1.641-6.098 6.297-4.458 10.398 21.954 54.909-18.624 115.168-78.029 115.168-46.318 0-84-37.683-84-84 0-27.254 13.313-52.925 35.614-68.67 2.123-1.499 3.386-3.936 3.386-6.535v-261.701c0-10.546 7.088-20.018 17.238-23.032 18.261-5.426 37.66-5.38 55.773.078 10.003 3.014 16.989 12.453 16.989 22.956v261.699c0 4.418 3.582 8 8 8s8-3.582 8-8v-261.699c0-17.781-11.402-33.163-28.373-38.276-21.089-6.355-43.704-6.406-64.946-.096-16.887 5.016-28.681 20.795-28.681 38.37v257.665c-24.498 18.888-39 48.2-39 79.241 0 55.141 44.86 100 100 100 70.69 0 119.038-71.704 92.886-137.107-1.64-4.103-6.296-6.096-10.399-4.459z"/><path d="m62.712 348.722c-3.801-2.248-8.708-.984-10.957 2.818-5.073 8.589-7.755 18.427-7.755 28.449 0 30.879 25.122 56 56 56s56-25.121 56-56c0-28.162-20.899-51.524-48-55.42v-55.451c0-4.418-3.582-8-8-8s-8 3.582-8 8v62.871c0 4.418 3.582 8 8 8 22.056 0 40 17.944 40 40s-17.944 40-40 40c-30.965 0-50.107-33.841-34.469-60.311 2.248-3.804.986-8.709-2.819-10.956z"/><path d="m92 228.602c0 4.418 3.582 8 8 8s8-3.582 8-8v-93.613c0-4.418-3.582-8-8-8s-8 3.582-8 8z"/><path d="m100 103.989c4.418 0 8-3.582 8-8v-13c0-4.418-3.582-8-8-8s-8 3.582-8 8v13c0 4.418 3.582 8 8 8z"/></g></svg>