<svg id="Layer_1" enable-background="new 0 0 480 480" height="512" viewBox="0 0 480 480" width="512" xmlns="http://www.w3.org/2000/svg"><path d="m287 364.708-61-90-36 41-95-153-87 97.549v211.451h423v-285z" fill="#eef7ff"/><g><path d="m472 463.708h-33v-211c0-4.418-3.582-8-8-8s-8 3.582-8 8v211h-128v-24c0-4.418-3.582-8-8-8s-8 3.582-8 8v24h-81v-11c0-4.418-3.582-8-8-8s-8 3.582-8 8v11h-166v-200.402l77.849-87.288 88.151 141.972v16.718c0 4.418 3.582 8 8 8s8-3.582 8-8c0-20.272.154-19.851-.431-21.575-.458-1.333 5.414 8.312-95.772-154.645-2.806-4.519-9.195-5.11-12.768-1.105l-73.029 81.883v-171.558c0-4.418-3.582-8-8-8s-8 3.582-8 8v404c0 4.418 3.582 8 8 8h464c4.418 0 8-3.582 8-8s-3.582-8-8-8z"/><path d="m232.622 270.219c-2.479-3.658-7.455-4.615-11.11-2.134-3.657 2.479-4.613 7.453-2.134 11.11l59.622 87.968v29.545c0 4.418 3.582 8 8 8s8-3.582 8-8v-29.169l142.22-175.8c2.778-3.435 2.247-8.472-1.188-11.251-3.433-2.778-8.471-2.246-11.251 1.188l-137.213 169.61z"/><path d="m190 366.041c-4.418 0-8 3.582-8 8v39.333c0 4.418 3.582 8 8 8s8-3.582 8-8v-39.333c0-4.418-3.582-8-8-8z"/><path d="m172.072 170.775c2.22 3.845 7.12 5.127 10.928 2.928l13.563-7.831-1.5 10.951c-.66 4.815 3.086 9.087 7.936 9.087 3.937 0 7.367-2.906 7.916-6.915l3.185-23.248 48.4-27.943v55.888l-18.54 14.382c-3.491 2.708-4.126 7.733-1.418 11.225 2.709 3.492 7.735 4.127 11.225 1.418l8.733-6.774v15.661c0 4.418 3.582 8 8 8s8-3.582 8-8v-15.661l8.733 6.774c1.458 1.131 3.185 1.679 4.897 1.679 7.582 0 10.94-9.644 4.909-14.321l-18.54-14.382v-65.125l56.399-32.563 21.727 8.866c4.108 1.675 8.767-.31 10.43-4.385 1.669-4.091-.294-8.76-4.385-10.43l-10.235-4.177 13.565-7.832c3.826-2.209 5.138-7.102 2.928-10.928-2.209-3.825-7.1-5.139-10.928-2.928l-13.563 7.831 1.5-10.951c.6-4.378-2.463-8.412-6.84-9.012-4.378-.604-8.413 2.463-9.012 6.84l-3.185 23.248-48.4 27.944v-20.48c0-4.418-3.582-8-8-8s-8 3.582-8 8v20.481l-48.4-27.944-3.185-23.248c-.599-4.376-4.636-7.438-9.012-6.84-4.377.6-7.439 4.634-6.84 9.012l1.5 10.951-13.563-7.831c-3.826-2.209-8.72-.899-10.928 2.928-2.21 3.826-.898 8.719 2.928 10.928l13.564 7.831-10.235 4.177c-4.091 1.67-6.054 6.339-4.385 10.43 1.664 4.078 6.325 6.058 10.43 4.385l21.727-8.866 48.4 27.944-48.4 27.943-21.727-8.866c-4.088-1.668-8.76.293-10.43 4.385-1.669 4.091.294 8.76 4.385 10.43l10.235 4.177-13.564 7.829c-3.826 2.209-5.138 7.102-2.928 10.928z"/><path d="m367.056 137.41c-1.669-4.091-6.34-6.052-10.43-4.385l-21.726 8.866-18.869-10.895c-3.826-2.21-8.72-.9-10.928 2.928-2.21 3.826-.898 8.719 2.928 10.928l18.87 10.895 3.185 23.248c.549 4.009 3.979 6.915 7.916 6.915 4.862 0 8.593-4.284 7.936-9.087l-1.5-10.951 13.562 7.831c3.808 2.199 8.709.916 10.928-2.928 2.21-3.826.898-8.719-2.928-10.928l-13.564-7.831 10.235-4.177c4.091-1.67 6.054-6.339 4.385-10.429z"/><path d="m243.96 29.822c22.851 17.726 21.973 17.119 22.8 17.532 2.574 1.367 5.938 1.28 8.546-.685 1.19-.904-1.573 1.232 21.734-16.848 3.491-2.708 4.126-7.733 1.418-11.225-2.709-3.491-7.734-4.124-11.225-1.418l-8.733 6.775v-15.661c0-4.418-3.582-8-8-8s-8 3.582-8 8v15.662l-8.733-6.775c-3.491-2.709-8.517-2.072-11.225 1.418-2.708 3.491-2.073 8.517 1.418 11.225z"/></g></svg>