<svg id="Layer_1" enable-background="new 0 0 480.151 480.151" height="512" viewBox="0 0 480.151 480.151" width="512" xmlns="http://www.w3.org/2000/svg"><path d="m214.516 39.111c13.393 23.933-3.9 53.6-31.42 53.6-27.782 0-44.68-29.94-31.43-53.6 5.4-9.65 12.15-18.66 20.24-26.53 6.23-6.05 16.14-6.05 22.36 0 8.1 7.87 14.85 16.88 20.25 26.53z" fill="#a4ebfc"/><path d="m353.866 123.371c21.037 37.572-6.089 84.29-49.43 84.29-43.509 0-70.385-46.9-49.44-84.29 10.23-18.26 23.51-35.08 39.85-49.03 5.51-4.7 13.66-4.7 19.17 0 16.34 13.95 29.63 30.77 39.85 49.03z" fill="#a4ebfc"/><path d="m287.076 365.151-61-90-36 41-95-153-87 97.55v211.45h423v-285z" fill="#eef7ff"/><path d="m315.431 75.563c7.844 6.847 8.159 18.858.806 26.23-11.4 11.43-25.326 30.703-31.575 42.181-10.841 19.914-41.273 5.496-32.281-15.318.77-1.783 1.641-3.547 2.614-5.284 10.23-18.26 23.51-35.08 39.85-49.03 5.51-4.7 13.66-4.7 19.17 0 .475.404.947.811 1.416 1.221z" fill="#caf1fc"/><path d="m169.919 54.676c-5.514 13.019-25.297 6.397-21.639-7.26.756-2.823 1.876-5.61 3.385-8.305 5.4-9.65 12.15-18.66 20.24-26.53 6.121-5.944 16.009-6.184 22.435.073 3.177 3.093 2.799 8.353-.786 10.963-8.804 6.411-20.337 23.271-23.635 31.059z" fill="#caf1fc"/><g><path d="m472.076 464.151h-33v-211c0-4.418-3.582-8-8-8s-8 3.582-8 8v211h-128v-24c0-4.418-3.582-8-8-8s-8 3.582-8 8v24h-81v-11c0-4.418-3.582-8-8-8s-8 3.582-8 8v11h-166v-200.401l77.849-87.288 88.151 141.972v16.718c0 4.418 3.582 8 8 8s8-3.582 8-8c0-20.272.154-19.851-.431-21.575-.458-1.333 5.414 8.312-95.772-154.645-2.805-4.518-9.195-5.11-12.768-1.105l-73.029 81.883v-171.559c0-4.418-3.582-8-8-8s-8 3.582-8 8v404c0 4.418 3.582 8 8 8h464c4.418 0 8-3.582 8-8s-3.582-8-8-8z"/><path d="m221.587 268.529c-3.657 2.479-4.613 7.453-2.134 11.11l59.622 87.967v29.545c0 4.418 3.582 8 8 8s8-3.582 8-8v-29.169l142.22-175.8c2.778-3.435 2.247-8.472-1.188-11.251-3.434-2.778-8.471-2.246-11.251 1.188l-137.213 169.611-54.945-81.067c-2.481-3.658-7.455-4.615-11.111-2.134z"/><path d="m190.076 366.484c-4.418 0-8 3.582-8 8v39.333c0 4.418 3.582 8 8 8s8-3.582 8-8v-39.333c0-4.418-3.582-8-8-8z"/><path d="m304.431 215.668c18.919 0 36.823-8.246 49.12-22.623 17.528-20.491 20.459-50.063 7.291-73.584-11.138-19.898-25.145-37.124-41.632-51.199-8.564-7.313-20.994-7.311-29.559 0-7.491 6.396-14.569 13.552-21.039 21.269-2.838 3.387-2.395 8.433.991 11.271 3.388 2.839 8.434 2.395 11.271-.991 5.9-7.039 12.349-13.56 19.166-19.38 2.504-2.137 6.279-2.137 8.781 0 15.043 12.844 27.849 28.604 38.06 46.847 17.972 32.103-5.093 72.392-42.45 72.392-31.996 0-55.2-30.366-47.014-61.141 1.136-4.271-1.405-8.652-5.675-9.788-4.273-1.135-8.652 1.405-9.788 5.675-10.885 40.924 19.984 81.252 62.477 81.252z"/><path d="m183.089 100.713c21.589 0 39.831-15.616 43.396-36.663.738-4.356-2.195-8.485-6.552-9.224-4.348-.728-8.485 2.194-9.224 6.552-2.268 13.386-13.869 23.335-27.62 23.335-21.526 0-34.788-23.213-24.447-41.688 5.211-9.308 11.55-17.619 18.842-24.703 3.142-3.054 8.067-3.054 11.211-.001 3.133 3.044 6.13 6.36 8.908 9.857 2.748 3.461 7.78 4.035 11.24 1.287 3.459-2.748 4.035-7.781 1.287-11.24-3.203-4.031-6.663-7.86-10.286-11.38-9.394-9.126-24.114-9.127-33.51.001-8.401 8.162-15.687 17.704-21.653 28.363-16.261 29.049 4.604 65.504 38.408 65.504z"/></g></svg>