<svg id="Layer_1" enable-background="new 0 0 479.997 479.997" height="512" viewBox="0 0 479.997 479.997" width="512" xmlns="http://www.w3.org/2000/svg"><g fill="#ffe773"><path d="m310.157 413.509 8.744 9.772c2.855 3.191 2.692 8.063-.37 11.056l-31.411 30.697c-2.577 2.519-6.91.612-6.794-2.99l.522-16.178c.097-2.996-1.49-5.795-4.111-7.251l-26.302-14.612c-3.195-1.775-4.781-5.489-3.853-9.024l12.811-49.154 60.387 8.323-11.21 31.379c-.966 2.751-.358 5.809 1.587 7.982z"/><path d="m157.157 413.509 8.744 9.772c2.855 3.191 2.692 8.063-.37 11.056l-31.411 30.697c-2.577 2.519-6.91.612-6.794-2.99l.522-16.178c.097-2.996-1.49-5.795-4.111-7.251l-26.302-14.612c-3.195-1.775-4.781-5.489-3.853-9.024l12.811-49.154 60.387 8.323-11.21 31.379c-.966 2.751-.358 5.809 1.587 7.982z"/><path d="m470.255 110.867c4.83-11.22-.7-24.25-12.2-28.4-25.57-9.24-44.81-22.58-60.03-60.76-4.53-11.35-17.66-16.66-28.72-11.46-24.61 11.55-47.65 15.72-85.42-.51-11.22-4.83-24.25.7-28.4 12.2-9.24 25.57-22.58 44.81-60.76 60.03-11.35 4.53-16.66 17.66-11.46 28.72 11.55 24.61 15.72 47.65-.51 85.42-4.83 11.22.7 24.25 12.2 28.4 25.57 9.24 44.81 22.58 60.03 60.76 4.53 11.35 17.66 16.66 28.72 11.46 24.61-11.55 47.65-15.72 85.42.51 11.22 4.83 24.25-.7 28.4-12.2 9.24-25.57 22.58-44.81 60.76-60.03 11.35-4.53 16.66-17.66 11.46-28.72-11.55-24.61-15.72-47.65.51-85.42z"/></g><path d="m327.855 65.627c48.52.75 87.25 40.69 86.51 89.21-.75 48.52-40.69 87.25-89.21 86.51-48.52-.75-87.25-40.69-86.51-89.21.75-48.52 40.69-87.25 89.21-86.51z" fill="#fff0a6"/><path d="m333.051 98.54c-29.182 8.597-52.977 32.531-61.478 61.761-5.352 18.401-32.359 14.878-32.903-4.278-1.433-50.507 39.803-91.674 90.127-90.377 19.115.493 22.595 27.491 4.254 32.894z" fill="#fff8d6"/><path d="m418.245 299.107c0 46.88-38 84.88-84.87 84.88h-255.96c-38.34 0-69.41-31.07-69.41-69.41 0-39.829 33.289-70.997 72.25-69.34-15.038-63.646 22.278-127.318 83.92-145.98 77.086-23.419 157.205 33.519 158.57 115.63 50.382-6.371 95.5 32.878 95.5 84.22z" fill="#cbe3fa"/><path d="m182.543 138.298c-29.553 17.973-49.16 51.069-45.972 96.696 1.265 18.109-14.094 26.757-13.974 26.629-16.89 10.065-38.695.611-42.848-18.608-13.845-64.068 24.612-126.327 85.747-144.152 24.448-7.128 38.806 26.204 17.047 39.435z" fill="#eef7ff"/><path d="m41.281 319.275c-4.602 19.227-33.011 15.995-33.27-3.773-.448-34.273 23.915-62.813 56.114-69.055 1.312 5.974 2.973 11.781 5.006 17.445 2.355 6.56.344 13.937-5.002 18.408-11.744 9.821-19.481 22.906-22.848 36.975z" fill="#eef7ff"/><path d="m334.733 257.721c-13.633 5.505-25.979 14.277-36.062 25.776-6.754 7.703-18.368 10.549-28.96 4.89-11.868-6.341-16.103-21.339-9.181-32.878 13.363-22.275 36.462-37.699 63.273-40.75 25.85-2.941 35.054 33.221 10.93 42.962z" fill="#eef7ff"/><path d="m316.125 383.987-4.912 13.999c-1.125 3.206-4.152 5.351-7.549 5.351h-43.658c-5.243 0-9.069-4.96-7.738-10.031l2.446-9.319z" fill="#fada86"/><path d="m163.125 383.987-4.912 13.999c-1.125 3.206-4.152 5.351-7.549 5.351h-43.658c-5.243 0-9.069-4.96-7.738-10.031l2.446-9.319z" fill="#fada86"/><g><path d="m97.654 293.134c6.324 0 10.215-7.108 6.642-12.45-12.644-18.899-19.327-40.961-19.327-63.801 0-63.354 51.542-114.896 114.896-114.896 44.223 0 85.019 25.846 103.932 65.846 1.889 3.995 6.66 5.702 10.652 3.813 3.995-1.889 5.702-6.658 3.813-10.652-11.413-24.138-29.989-44.398-53.716-57.91 15.38-18.958 38.415-29.839 63.189-29.454 58.603.902 96.015 62.643 70.618 114.786-2.612 5.362 1.356 11.505 7.187 11.505 2.964 0 5.813-1.655 7.198-4.499 30.524-62.669-14.503-136.709-84.757-137.79-30.994-.493-59.7 13.71-78.113 38.254-15.753-6.513-32.703-9.899-50.002-9.899-72.177 0-130.896 58.72-130.896 130.896 0 26.019 7.618 51.158 22.029 72.699 1.541 2.306 4.074 3.552 6.655 3.552z"/><path d="m477.608 114.031c6.49-15.096-.654-33.251-16.833-39.092-24.355-8.794-41.216-20.809-55.324-56.198-6.082-15.256-23.966-23.053-39.544-15.74-23.441 11.004-43.858 14.43-78.858-.618-15.09-6.488-33.249.647-39.092 16.833-5.716 15.83-12.248 26.33-21.842 35.107-3.26 2.982-3.484 8.043-.502 11.303 2.982 3.259 8.042 3.484 11.303.502 11.633-10.644 19.436-23.048 26.09-41.479 2.597-7.19 10.747-10.565 17.724-7.567 40.216 17.29 65.854 12.665 91.977.402 6.858-3.22 15.044.061 17.883 7.182 16.21 40.662 37.609 55.521 64.753 65.322 7.154 2.584 10.583 10.708 7.567 17.724-17.29 40.215-12.665 65.854-.402 91.977 3.232 6.886-.089 15.055-7.182 17.883-19.736 7.868-34.374 17.339-45.188 29.317-16.736-24.524-44.902-40.657-76.767-40.657-51.213 0-92.878 41.665-92.878 92.878 0 4.418 3.582 8 8 8s8-3.582 8-8c0-42.391 34.487-76.878 76.878-76.878s76.878 34.487 76.878 76.878-34.487 76.878-76.878 76.878h-255.961c-33.859 0-61.405-27.546-61.405-61.405 0-20.432 10.123-39.468 27.079-50.923 3.661-2.473 4.624-7.446 2.15-11.107s-7.446-4.625-11.107-2.15c-21.366 14.435-34.122 38.427-34.122 64.181 0 42.682 34.724 77.405 77.405 77.405h74.432l-5.386 15.352c-.965 2.751-.357 5.81 1.587 7.983l11.896 13.295-24.296 23.744.358-11.115c.097-2.996-1.49-5.795-4.11-7.251l-36-20c-3.864-2.148-8.733-.754-10.878 3.108-2.146 3.862-.754 8.733 3.108 10.878l31.732 17.629-.842 26.12c-.233 7.205 8.474 10.977 13.587 5.979l44-43c3.062-2.993 3.226-7.865.371-11.056l-13.848-15.477 5.68-16.188h136.044l-5.386 15.352c-.965 2.751-.357 5.81 1.587 7.983l11.896 13.295-24.296 23.744.358-11.115c.097-2.996-1.49-5.795-4.11-7.251l-36-20c-3.865-2.148-8.733-.754-10.878 3.108-2.146 3.862-.754 8.733 3.108 10.878l31.732 17.629-.842 26.12c-.232 7.187 8.443 11.006 13.587 5.979l44-43c3.062-2.993 3.226-7.865.371-11.056l-13.848-15.477 5.68-16.188h11.572c66.946 0 111.892-69.067 85.082-130.104 9.382-12.272 22.778-21.468 42.797-29.449 15.262-6.084 23.051-23.969 15.74-39.544-11.008-23.445-14.434-43.863.613-78.863z"/></g></svg>