<svg id="Layer_1" enable-background="new 0 0 479.989 479.989" height="512" viewBox="0 0 479.989 479.989" width="512" xmlns="http://www.w3.org/2000/svg"><path d="m469.7 156.748c6.36-14.81-.94-32.01-16.1-37.48-33.74-12.18-59.14-29.79-79.23-80.18-5.97-14.98-23.3-21.97-37.89-15.12-32.47 15.24-62.88 20.75-112.72-.68-14.81-6.36-32.01.94-37.48 16.1-12.18 33.74-29.79 59.14-80.18 79.23-14.98 5.97-21.97 23.3-15.12 37.89 15.24 32.47 20.75 62.88-.68 112.72-6.385 14.884 1.021 32.052 16.1 37.48 36.364 13.129 60.15 32.324 79.23 80.18 5.97 14.98 23.3 21.97 37.89 15.12 32.47-15.24 62.88-20.75 112.72.68 14.81 6.36 32.01-.94 37.48-16.1 12.18-33.74 29.79-59.14 80.18-79.23 14.98-5.97 21.97-23.3 15.12-37.89-15.24-32.47-20.75-62.88.68-112.72z" fill="#ffe773"/><path d="m267.01 339.308c-64.87-6.59-115-61.87-113.98-128.27 1.08-70.13 58.8-126.1 128.92-125.02 70.13 1.08 126.1 58.8 125.02 128.92-1.153 74.858-66.412 132.069-139.96 124.37z" fill="#fff0a6"/><path d="m288.452 129.474c-44.118 12.099-80.092 48.503-91.925 92.715-6.556 24.495-42.577 20.566-43.438-4.776-2.495-73.432 57.308-133.246 130.197-131.367 25.474.656 29.741 36.688 5.166 43.428z" fill="#fff8d6"/><g><path d="m310.678 327.983c-1.804.48-3.636.921-5.444 1.312-4.319.932-7.064 5.189-6.132 9.508.936 4.337 5.21 7.062 9.508 6.132 2.055-.443 4.136-.945 6.184-1.49 4.27-1.136 6.81-5.519 5.673-9.789-1.137-4.269-5.517-6.811-9.789-5.673z"/><path d="m343.972 313.328c-6.729 4.299-3.647 14.742 4.315 14.742 1.474 0 2.966-.407 4.3-1.26 38.361-24.511 61.682-66.285 62.381-111.746 1.145-74.422-58.47-135.9-132.892-137.045-74.442-1.144-135.9 58.47-137.045 132.892-.068 4.417 3.458 8.054 7.876 8.122 4.446.062 8.054-3.458 8.122-7.876 1.01-65.6 55.171-118.139 120.801-117.14 65.6 1.009 118.149 55.201 117.14 120.801-.616 40.074-21.176 76.9-54.998 98.51z"/><path d="m477.045 159.913c8.048-18.719-.908-41.013-20.731-48.171-32.824-11.852-55.539-28.023-74.512-75.616-7.559-18.961-29.678-28.344-48.721-19.403-31.589 14.829-59.086 19.457-106.156-.781-18.719-8.048-41.013.908-48.171 20.731-11.852 32.824-28.023 55.539-75.616 74.512-18.928 7.546-28.359 29.644-19.403 48.721 11.957 25.47 17.736 49.651 7.079 84.877-1.279 4.229 1.111 8.695 5.34 9.974 4.23 1.28 8.694-1.112 9.974-5.34 12.848-42.466 3.792-71.385-7.91-96.311-4.869-10.37.068-22.764 10.844-27.06 52.772-21.038 72.042-48.771 84.74-83.94 3.891-10.774 16.141-16.051 26.802-11.466 52.191 22.438 85.428 16.454 119.275.565 10.393-4.879 22.772.088 27.06 10.844 21.038 52.772 48.771 72.042 83.94 84.74 10.8 3.9 16.04 16.164 11.466 26.802-22.439 52.191-16.454 85.428-.565 119.275 4.869 10.37-.068 22.764-10.844 27.06-52.772 21.038-72.042 48.771-84.74 83.94-3.9 10.8-16.165 16.04-26.802 11.466-33.148-14.251-59.806-18.013-86.432-12.199-4.317.943-7.052 5.206-6.109 9.522.942 4.317 5.21 7.053 9.522 6.109 23.158-5.057 46.813-1.583 76.699 11.267 18.691 8.036 41.004-.882 48.171-20.731 11.852-32.824 28.024-55.539 75.616-74.512 18.928-7.546 28.359-29.644 19.403-48.721-14.829-31.588-19.455-59.086.781-106.154z"/><path d="m125.581 266.648c3.374 0 5.134-1.927 6.08-2.655 3.5-2.697 4.15-7.721 1.453-11.22-2.698-3.5-7.721-4.15-11.22-1.453-.549.424-1.094.874-1.619 1.339-5.482 4.853-2.045 13.989 5.306 13.989z"/><path d="m171 275.488c0-8.182-3.196-15.865-9-21.633-3.133-3.115-8.199-3.1-11.313.034-3.115 3.134-3.1 8.199.034 11.313 9.153 9.098 2.638 24.785-10.221 24.785h-132.5c-4.418 0-8 3.582-8 8s3.582 8 8 8h132.5c16.818.001 30.5-13.681 30.5-30.499z"/><path d="m200.5 405.988h-114.855c-4.418 0-8 3.582-8 8s3.582 8 8 8h114.855c7.995 0 14.5 6.505 14.5 14.5 0 12.097-13.96 18.77-23.373 11.469-3.492-2.707-8.518-2.071-11.225 1.42-2.707 3.492-2.071 8.517 1.42 11.225 19.807 15.357 49.178 1.345 49.178-24.114 0-16.818-13.682-30.5-30.5-30.5z"/><path d="m47.968 405.988h-9.968c-4.418 0-8 3.582-8 8s3.582 8 8 8h9.968c4.418 0 8-3.582 8-8s-3.582-8-8-8z"/><path d="m278 326.488c0-20.391-16.589-36.98-36.98-36.98-11.908 0-23.158 5.788-30.093 15.483-2.57 3.594-1.741 8.591 1.853 11.161 3.596 2.571 8.592 1.741 11.161-1.853 3.938-5.505 10.322-8.792 17.079-8.792 11.568 0 20.98 9.412 20.98 20.98s-9.412 20.98-20.98 20.98h-83.052c-4.418 0-8 3.582-8 8s3.582 8 8 8h83.052c20.391.001 36.98-16.588 36.98-36.979z"/><path d="m89 347.468c-4.418 0-8 3.582-8 8s3.582 8 8 8h31.032c4.418 0 8-3.582 8-8s-3.582-8-8-8z"/></g></svg>