<svg id="Layer_1" enable-background="new 0 0 479.992 479.992" height="512" viewBox="0 0 479.992 479.992" width="512" xmlns="http://www.w3.org/2000/svg"><path d="m470.25 110.869c4.83-11.22-.7-24.25-12.2-28.4-25.57-9.24-44.81-22.58-60.03-60.76-4.53-11.35-17.66-16.66-28.72-11.46-24.61 11.55-47.65 15.72-85.42-.51-11.22-4.83-24.25.7-28.4 12.2-9.24 25.57-22.58 44.81-60.76 60.03-11.35 4.53-16.66 17.66-11.46 28.72 11.55 24.61 15.72 47.65-.51 85.42-4.83 11.22.7 24.25 12.2 28.4 25.57 9.24 44.81 22.58 60.03 60.76 4.53 11.35 17.66 16.66 28.72 11.46 24.61-11.55 47.65-15.72 85.42.51 11.22 4.83 24.25-.7 28.4-12.2 9.24-25.57 22.58-44.81 60.76-60.03 11.35-4.53 16.66-17.66 11.46-28.72-11.55-24.61-15.72-47.65.51-85.42z" fill="#ffe773"/><path d="m327.85 65.629c48.52.75 87.25 40.69 86.51 89.21-.75 48.52-40.69 87.25-89.21 86.51-48.52-.75-87.25-40.69-86.51-89.21.75-48.52 40.69-87.25 89.21-86.51z" fill="#fff0a6"/><path d="m333.046 98.543c-29.182 8.597-52.977 32.531-61.477 61.761-5.352 18.401-32.359 14.878-32.903-4.278-1.433-50.507 39.803-91.674 90.127-90.377 19.114.493 22.594 27.49 4.253 32.894z" fill="#fff8d6"/><path d="m418.24 299.109c0 46.88-38 84.88-84.87 84.88h-255.96c-38.34 0-69.41-31.07-69.41-69.41 0-39.829 33.289-70.997 72.25-69.34-15.038-63.646 22.278-127.318 83.92-145.98 77.086-23.419 157.205 33.519 158.57 115.63 50.382-6.37 95.5 32.879 95.5 84.22z" fill="#cbe3fa"/><g fill="#eef7ff"><path d="m182.538 138.301c-29.553 17.973-49.16 51.069-45.972 96.696 1.265 18.109-14.094 26.757-13.974 26.629-16.89 10.065-38.695.611-42.848-18.608-13.845-64.068 24.612-126.327 85.747-144.152 24.448-7.128 38.806 26.203 17.047 39.435z"/><path d="m41.276 319.278c-4.602 19.227-33.011 15.995-33.27-3.773-.448-34.273 23.915-62.813 56.114-69.055 1.312 5.974 2.973 11.781 5.006 17.445 2.355 6.56.344 13.937-5.002 18.408-11.744 9.821-19.481 22.906-22.848 36.975z"/><path d="m334.728 257.724c-13.633 5.505-25.979 14.277-36.062 25.776-6.754 7.703-18.368 10.549-28.96 4.89-11.868-6.341-16.103-21.339-9.181-32.878 13.363-22.275 36.462-37.699 63.273-40.75 25.85-2.941 35.054 33.22 10.93 42.962z"/></g><g><path d="m39 462.989c-4.418 0-8 3.582-8 8v1c0 4.418 3.582 8 8 8s8-3.582 8-8v-1c0-4.418-3.582-8-8-8z"/><path d="m39 408.989c-4.418 0-8 3.582-8 8v20c0 4.418 3.582 8 8 8s8-3.582 8-8v-20c0-4.418-3.582-8-8-8z"/><path d="m115 446.989c-4.418 0-8 3.582-8 8v17c0 4.418 3.582 8 8 8s8-3.582 8-8v-17c0-4.418-3.582-8-8-8z"/><path d="m115 408.989c-4.418 0-8 3.582-8 8v4c0 4.418 3.582 8 8 8s8-3.582 8-8v-4c0-4.418-3.582-8-8-8z"/><path d="m377 408.989c-4.418 0-8 3.582-8 8v12c0 4.418 3.582 8 8 8s8-3.582 8-8v-12c0-4.418-3.582-8-8-8z"/><path d="m377 454.989c-4.418 0-8 3.582-8 8v9c0 4.418 3.582 8 8 8s8-3.582 8-8v-9c0-4.418-3.582-8-8-8z"/><path d="m301 455.489c-4.418 0-8 3.582-8 8v8.5c0 4.418 3.582 8 8 8s8-3.582 8-8v-8.5c0-4.418-3.582-8-8-8z"/><path d="m301 408.989c-4.418 0-8 3.582-8 8v5c0 4.418 3.582 8 8 8s8-3.582 8-8v-5c0-4.418-3.582-8-8-8z"/><circle cx="247.5" cy="426.489" r="13.5"/><circle cx="177" cy="463.989" r="16"/><path d="m97.649 293.137c6.324 0 10.215-7.108 6.642-12.45-12.644-18.899-19.327-40.961-19.327-63.801 0-63.354 51.542-114.896 114.896-114.896 44.223 0 85.018 25.846 103.932 65.846 1.889 3.994 6.657 5.7 10.652 3.813 3.994-1.889 5.701-6.658 3.813-10.652-11.413-24.137-29.989-44.399-53.716-57.909 15.119-18.635 37.631-29.464 61.928-29.464 59.097 0 97.536 62.117 71.879 114.795-1.935 3.972-.283 8.761 3.689 10.695 3.964 1.931 8.758.29 10.695-3.689 30.523-62.669-14.504-136.709-84.758-137.79-31.018-.474-59.704 13.713-78.113 38.254-15.753-6.513-32.703-9.899-50.002-9.899-72.177 0-130.896 58.72-130.896 130.896 0 26.019 7.618 51.158 22.029 72.699 1.543 2.305 4.076 3.552 6.657 3.552z"/><path d="m477.604 114.033c6.542-15.218-.77-33.293-16.833-39.092-24.354-8.794-41.215-20.809-55.323-56.198-6.083-15.256-23.966-23.053-39.545-15.74-23.441 11.004-43.859 14.43-78.858-.618-15.095-6.489-33.25.653-39.092 16.833-5.716 15.83-12.248 26.33-21.842 35.107-3.26 2.982-3.484 8.043-.502 11.303 2.982 3.259 8.042 3.484 11.303.502 11.634-10.644 19.437-23.049 26.09-41.478 2.588-7.168 10.722-10.577 17.723-7.567 40.219 17.29 65.854 12.665 91.978.402 6.858-3.22 15.044.061 17.883 7.182 16.211 40.662 37.61 55.521 64.753 65.322 7.149 2.582 10.585 10.703 7.567 17.724-17.29 40.216-12.665 65.854-.402 91.977 3.227 6.871-.074 15.05-7.182 17.883-19.736 7.868-34.373 17.339-45.187 29.317-16.736-24.525-44.901-40.658-76.767-40.658-51.213 0-92.878 41.665-92.878 92.878 0 4.418 3.582 8 8 8s8-3.582 8-8c0-42.391 34.487-76.878 76.878-76.878s76.878 34.487 76.878 76.878-34.487 76.878-76.878 76.878h-255.963c-33.859-.001-61.405-27.547-61.405-61.406 0-20.432 10.123-39.468 27.079-50.923 3.661-2.473 4.624-7.446 2.15-11.107s-7.446-4.625-11.107-2.15c-21.366 14.434-34.122 38.426-34.122 64.18 0 42.682 34.724 77.405 77.405 77.405h255.961c66.944 0 111.892-69.067 85.082-130.104 9.383-12.272 22.779-21.468 42.798-29.449 15.263-6.085 23.052-23.969 15.739-39.545-11.004-23.439-14.429-43.857.619-78.858z"/></g></svg>