<svg id="Layer_1" enable-background="new 0 0 480 480" height="512" viewBox="0 0 480 480" width="512" xmlns="http://www.w3.org/2000/svg"><path d="m471.941 308.009c0 53.017-42.974 95.991-95.98 95.991h-289.465c-43.359 0-78.496-35.137-78.496-78.496 0-45.043 37.647-80.291 81.708-78.417-17.006-71.978 25.194-143.984 94.905-165.089 87.177-26.485 177.783 37.906 179.327 130.766 56.977-7.204 108.001 37.183 108.001 95.245z" fill="#cbe3fa"/><g fill="#eef7ff"><path d="m205.386 126.151c-33.422 20.325-55.595 57.754-51.99 109.354 1.431 20.48-15.938 30.26-15.803 30.114-19.101 11.383-43.761.691-48.457-21.044-15.657-72.454 27.834-142.863 96.971-163.022 27.648-8.061 43.885 29.634 19.279 44.598z"/><path d="m377.498 261.206c-15.418 6.226-29.379 16.146-40.783 29.15-7.638 8.711-20.772 11.93-32.751 5.53-13.421-7.171-18.211-24.133-10.383-37.182 15.112-25.19 41.235-42.634 71.556-46.084 29.234-3.326 39.642 37.569 12.361 48.586z"/><path d="m84.31 280.15c-20.595 9.9-30.912 27.415-37.115 47.237-7.106 22.709-40.835 16.16-39.016-7.566 2.582-33.682 26.44-65.269 65.362-71.74 2.462 11.099 5.957 21.711 10.769 32.069z"/></g><g><path d="m376 204c-57.346 0-104 46.654-104 104 0 4.418 3.582 8 8 8s8-3.582 8-8c0-48.523 39.477-88 88-88s88 39.477 88 88-39.477 88-88 88h-289.5c-38.874 0-70.5-31.626-70.5-70.5 0-22.354 10.772-43.612 28.816-56.864 3.561-2.615 4.328-7.622 1.712-11.183-2.615-3.562-7.623-4.328-11.183-1.712-22.132 16.254-35.345 42.332-35.345 69.759 0 47.696 38.804 86.5 86.5 86.5h289.5c57.346 0 104-46.654 104-104s-46.654-104-104-104z"/><path d="m109.395 300.194c6.31 0 10.222-7.098 6.642-12.449-14.417-21.549-22.037-46.704-22.037-72.745 0-72.233 58.767-131 131-131 53.938 0 103.125 33.837 122.395 84.199 1.578 4.126 6.2 6.191 10.331 4.613 4.126-1.579 6.191-6.204 4.612-10.331-21.423-55.99-75.386-94.481-137.338-94.481-81.056 0-147 65.944-147 147 0 29.22 8.554 57.451 24.739 81.642 1.542 2.306 4.075 3.552 6.656 3.552z"/></g></svg>