<svg id="Layer_1" enable-background="new 0 0 480.785 480.785" height="512" viewBox="0 0 480.785 480.785" width="512" xmlns="http://www.w3.org/2000/svg"><path d="m470.646 110.866c4.83-11.22-.7-24.25-12.2-28.4-25.57-9.24-44.81-22.58-60.03-60.76-4.53-11.35-17.66-16.66-28.72-11.46-24.61 11.55-47.65 15.72-85.42-.51-11.22-4.83-24.25.7-28.4 12.2-9.24 25.57-22.58 44.81-60.76 60.03-11.35 4.53-16.66 17.66-11.46 28.72 11.55 24.61 15.72 47.65-.51 85.42-4.83 11.22.7 24.25 12.2 28.4 25.57 9.24 44.81 22.58 60.03 60.76 4.53 11.35 17.66 16.66 28.72 11.46 24.61-11.55 47.65-15.72 85.42.51 11.22 4.83 24.25-.7 28.4-12.2 9.24-25.57 22.58-44.81 60.76-60.03 11.35-4.53 16.66-17.66 11.46-28.72-11.55-24.61-15.72-47.65.51-85.42z" fill="#ffe773"/><path d="m328.246 65.626c48.52.75 87.25 40.69 86.51 89.21-.75 48.52-40.69 87.25-89.21 86.51-48.52-.75-87.25-40.69-86.51-89.21.75-48.52 40.69-87.25 89.21-86.51z" fill="#fff0a6"/><path d="m333.442 98.54c-29.182 8.597-52.977 32.531-61.477 61.761-5.352 18.401-32.359 14.878-32.903-4.278-1.433-50.507 39.803-91.674 90.127-90.377 19.114.493 22.594 27.49 4.253 32.894z" fill="#fff8d6"/><path d="m418.636 299.106c0 46.88-38 84.88-84.87 84.88h-255.96c-38.34 0-69.41-31.07-69.41-69.41 0-39.829 33.289-70.997 72.25-69.34-15.038-63.646 22.278-127.318 83.92-145.98 77.086-23.419 157.205 33.519 158.57 115.63 50.382-6.37 95.5 32.879 95.5 84.22z" fill="#cbe3fa"/><g fill="#eef7ff"><path d="m182.935 138.298c-29.553 17.973-49.16 51.069-45.972 96.696 1.265 18.109-14.094 26.757-13.974 26.629-16.89 10.065-38.695.611-42.848-18.608-13.845-64.068 24.612-126.327 85.747-144.152 24.447-7.128 38.805 26.203 17.047 39.435z"/><path d="m41.672 319.275c-4.602 19.227-33.011 15.995-33.27-3.773-.448-34.273 23.915-62.813 56.114-69.055 1.312 5.974 2.973 11.781 5.006 17.445 2.355 6.56.344 13.937-5.002 18.408-11.743 9.821-19.481 22.906-22.848 36.975z"/><path d="m335.125 257.721c-13.633 5.505-25.979 14.277-36.062 25.776-6.754 7.703-18.368 10.549-28.96 4.89-11.868-6.341-16.103-21.339-9.181-32.878 13.363-22.275 36.462-37.699 63.273-40.75 25.85-2.941 35.053 33.22 10.93 42.962z"/></g><g><path d="m39.396 462.986c-4.418 0-8 3.582-8 8v1c0 4.418 3.582 8 8 8s8-3.582 8-8v-1c0-4.418-3.582-8-8-8z"/><path d="m39.396 408.986c-4.418 0-8 3.582-8 8v20c0 4.418 3.582 8 8 8s8-3.582 8-8v-20c0-4.418-3.582-8-8-8z"/><path d="m115.396 446.986c-4.418 0-8 3.582-8 8v17c0 4.418 3.582 8 8 8s8-3.582 8-8v-17c0-4.418-3.582-8-8-8z"/><path d="m115.396 408.986c-4.418 0-8 3.582-8 8v4c0 4.418 3.582 8 8 8s8-3.582 8-8v-4c0-4.418-3.582-8-8-8z"/><path d="m377.396 408.986c-4.418 0-8 3.582-8 8v12c0 4.418 3.582 8 8 8s8-3.582 8-8v-12c0-4.418-3.582-8-8-8z"/><path d="m377.396 454.986c-4.418 0-8 3.582-8 8v9c0 4.418 3.582 8 8 8s8-3.582 8-8v-9c0-4.418-3.582-8-8-8z"/><path d="m301.396 455.486c-4.418 0-8 3.582-8 8v8.5c0 4.418 3.582 8 8 8s8-3.582 8-8v-8.5c0-4.418-3.582-8-8-8z"/><path d="m301.396 408.986c-4.418 0-8 3.582-8 8v5c0 4.418 3.582 8 8 8s8-3.582 8-8v-5c0-4.418-3.582-8-8-8z"/><path d="m98.045 293.134c6.312 0 10.222-7.098 6.643-12.45-12.644-18.898-19.327-40.96-19.327-63.801 0-63.354 51.542-114.896 114.896-114.896 44.223 0 85.019 25.846 103.933 65.846 1.888 3.994 6.658 5.7 10.652 3.813 3.994-1.889 5.701-6.658 3.813-10.652-11.393-24.093-29.943-44.37-53.717-57.909 15.375-18.953 38.392-29.824 63.188-29.455 58.603.902 96.015 62.643 70.619 114.786-2.612 5.362 1.356 11.505 7.187 11.505 2.964 0 5.813-1.655 7.198-4.499 30.523-62.669-14.504-136.709-84.758-137.79-31.005-.474-59.702 13.713-78.113 38.254-15.753-6.513-32.703-9.899-50.002-9.899-72.176 0-130.896 58.72-130.896 130.896 0 26.02 7.617 51.158 22.028 72.699 1.542 2.305 4.076 3.552 6.656 3.552z"/><path d="m478 114.03c6.542-15.218-.77-33.293-16.833-39.092-24.354-8.794-41.215-20.809-55.323-56.198-6.083-15.256-23.966-23.053-39.545-15.74-23.441 11.004-43.859 14.43-78.858-.618-15.095-6.489-33.25.653-39.092 16.833-5.716 15.83-12.247 26.33-21.842 35.107-3.26 2.982-3.484 8.043-.502 11.303 2.983 3.26 8.043 3.484 11.303.502 11.634-10.644 19.437-23.049 26.09-41.478 2.588-7.168 10.722-10.577 17.723-7.567 40.218 17.29 65.855 12.665 91.978.402 6.859-3.222 15.045.062 17.883 7.182 16.211 40.662 37.61 55.521 64.753 65.322 7.149 2.582 10.585 10.703 7.567 17.724-17.29 40.216-12.665 65.854-.402 91.977 3.227 6.871-.074 15.05-7.182 17.883-19.736 7.868-34.374 17.339-45.187 29.317-16.736-24.525-44.902-40.658-76.767-40.658-51.213 0-92.878 41.665-92.878 92.878 0 4.418 3.582 8 8 8s8-3.582 8-8c0-42.391 34.487-76.878 76.878-76.878s76.878 34.487 76.878 76.878-34.487 76.878-76.878 76.878h-255.962c-33.859 0-61.405-27.546-61.405-61.405 0-20.431 10.123-39.468 27.079-50.923 3.661-2.473 4.624-7.446 2.15-11.107-2.475-3.662-7.447-4.624-11.107-2.15-21.366 14.435-34.122 38.428-34.122 64.181 0 42.682 34.724 77.405 77.405 77.405h255.961c66.944 0 111.892-69.067 85.082-130.104 9.383-12.272 22.779-21.468 42.798-29.449 15.263-6.085 23.052-23.969 15.739-39.545-11.004-23.441-14.43-43.859.618-78.86z"/><path d="m191.511 418.986c0-4.418-3.582-8-8-8h-16c-4.418 0-8 3.582-8 8v16c0 4.418 3.582 8 8 8h16c4.418 0 8-3.582 8-8z"/><path d="m262.181 459.762-3.606 14.902c-1.039 4.294-5.363 6.933-9.657 5.894l-14.97-3.622c-4.294-1.039-6.933-5.363-5.894-9.657l3.615-14.939c1.041-4.302 5.377-6.941 9.676-5.889l14.961 3.659c4.284 1.047 6.912 5.365 5.875 9.652z"/></g></svg>