<svg id="Layer_1" enable-background="new 0 0 480.035 480.035" height="512" viewBox="0 0 480.035 480.035" width="512" xmlns="http://www.w3.org/2000/svg"><path d="m457.29 163.995c9.1-4.09 18.17 5.75 13.39 14.5-19.78 36.25-58.09 60.92-102.2 61.29-65.4.54-119.05-53.15-118.48-118.55.49-54.66 38.29-100.13 88.52-112.87 9.68-2.45 16.78 8.81 10.58 16.63-12.13 15.28-19.43 34.57-19.59 55.56-.524 65.631 67.666 110.5 127.78 83.44z" fill="#ffe773"/><path d="m301.147 179.314c10.867 15.524-11.591 32.643-23.798 18.149-29.386-34.892-34.87-82.405-17.606-121.424 6.142-13.881 27.296-6.683 23.662 8.054-8.017 32.512-1.897 67.165 17.742 95.221z" fill="#fff0a6"/><path d="m418.24 299.145c0 46.88-38 84.88-84.87 84.88h-255.96c-38.34 0-69.41-31.07-69.41-69.41 0-39.829 33.289-70.997 72.25-69.34-15.038-63.646 22.278-127.318 83.92-145.98 77.086-23.419 157.205 33.519 158.57 115.63 50.382-6.37 95.5 32.879 95.5 84.22z" fill="#cbe3fa"/><g fill="#eef7ff"><path d="m182.538 138.337c-29.553 17.973-49.16 51.069-45.972 96.696 1.265 18.109-14.094 26.757-13.974 26.629-16.89 10.065-38.695.611-42.848-18.608-13.845-64.068 24.612-126.327 85.747-144.152 24.448-7.128 38.806 26.203 17.047 39.435z"/><path d="m41.276 319.314c-4.602 19.227-33.011 15.995-33.27-3.773-.448-34.273 23.915-62.813 56.114-69.055 1.312 5.974 2.973 11.781 5.006 17.445 2.355 6.56.344 13.937-5.002 18.408-11.744 9.821-19.481 22.906-22.848 36.975z"/><path d="m334.728 257.76c-13.633 5.505-25.979 14.277-36.062 25.776-6.754 7.703-18.368 10.549-28.96 4.89-11.868-6.341-16.103-21.339-9.181-32.878 13.363-22.275 36.462-37.699 63.273-40.75 25.85-2.941 35.054 33.22 10.93 42.962z"/></g><g><path d="m454.01 156.698c-54.718 24.606-116.974-16.098-116.502-76.08.146-18.596 6.32-36.112 17.854-50.652 10.996-13.863-1.768-33.675-18.809-29.352-31.251 7.926-57.992 27.412-75.299 54.871-2.356 3.738-1.236 8.678 2.502 11.033 3.736 2.357 8.678 1.235 11.033-2.502 15.109-23.972 38.441-40.98 65.697-47.893 1.069-.271 1.914.053 2.505.966.362.561.823 1.688-.165 2.934-13.772 17.362-21.145 38.272-21.319 60.47-.563 71.74 73.79 120.156 139.064 90.797 1.292-.58 2.2-.016 2.733.562.543.586 1.044 1.549.354 2.813-14.818 27.151-40.16 46.635-69.937 53.95-16.245-13.922-37.335-22.345-60.357-22.345-51.213 0-92.878 41.665-92.878 92.878 0 4.418 3.582 8 8 8s8-3.582 8-8c0-42.391 34.487-76.878 76.878-76.878s76.878 34.487 76.878 76.878-34.487 76.878-76.878 76.878h-255.959c-33.859-.001-61.405-27.547-61.405-61.406 0-20.432 10.123-39.468 27.079-50.923 3.661-2.473 4.624-7.446 2.15-11.107s-7.446-4.625-11.107-2.15c-21.366 14.434-34.122 38.426-34.122 64.18 0 42.682 34.724 77.405 77.405 77.405h255.961c51.213 0 92.878-41.665 92.878-92.878 0-21.681-7.469-41.65-19.968-57.472 30.336-9.828 55.917-30.925 71.429-59.347 8.45-15.484-7.612-32.865-23.695-25.63z"/><path d="m97.649 293.173c6.324 0 10.215-7.108 6.642-12.45-12.644-18.899-19.327-40.961-19.327-63.801 0-63.354 51.542-114.896 114.896-114.896 44.223 0 85.018 25.846 103.932 65.846 1.889 3.994 6.657 5.7 10.652 3.813 3.994-1.889 5.701-6.658 3.813-10.652-21.192-44.816-66.612-75.006-118.397-75.006-72.177 0-130.896 58.72-130.896 130.896 0 26.019 7.618 51.158 22.029 72.699 1.542 2.304 4.075 3.551 6.656 3.551z"/><path d="m99 463.025c-4.418 0-8 3.582-8 8v1c0 4.418 3.582 8 8 8s8-3.582 8-8v-1c0-4.418-3.582-8-8-8z"/><path d="m99 409.025c-4.418 0-8 3.582-8 8v20c0 4.418 3.582 8 8 8s8-3.582 8-8v-20c0-4.418-3.582-8-8-8z"/><path d="m175 447.025c-4.418 0-8 3.582-8 8v17c0 4.418 3.582 8 8 8s8-3.582 8-8v-17c0-4.418-3.582-8-8-8z"/><path d="m175 409.025c-4.418 0-8 3.582-8 8v4c0 4.418 3.582 8 8 8s8-3.582 8-8v-4c0-4.418-3.582-8-8-8z"/><path d="m327 409.025c-4.418 0-8 3.582-8 8v12c0 4.418 3.582 8 8 8s8-3.582 8-8v-12c0-4.418-3.582-8-8-8z"/><path d="m327 455.025c-4.418 0-8 3.582-8 8v9c0 4.418 3.582 8 8 8s8-3.582 8-8v-9c0-4.418-3.582-8-8-8z"/><path d="m251 455.525c-4.418 0-8 3.582-8 8v8.5c0 4.418 3.582 8 8 8s8-3.582 8-8v-8.5c0-4.418-3.582-8-8-8z"/><path d="m251 409.025c-4.418 0-8 3.582-8 8v5c0 4.418 3.582 8 8 8s8-3.582 8-8v-5c0-4.418-3.582-8-8-8z"/></g></svg>