<svg id="Layer_1" enable-background="new 0 0 480.035 480.035" height="512" viewBox="0 0 480.035 480.035" width="512" xmlns="http://www.w3.org/2000/svg"><path d="m235.028 413.548 8.744 9.772c2.855 3.191 2.692 8.063-.37 11.056l-31.411 30.697c-2.577 2.519-6.91.612-6.794-2.99l.522-16.178c.097-2.996-1.49-5.795-4.111-7.251l-26.302-14.612c-3.195-1.775-4.781-5.489-3.853-9.024l12.811-49.154 60.387 8.323-11.21 31.379c-.965 2.751-.357 5.809 1.587 7.982z" fill="#ffe773"/><path d="m240.996 384.026-4.912 13.999c-1.125 3.206-4.152 5.351-7.549 5.351h-43.658c-5.243 0-9.069-4.96-7.738-10.031l2.446-9.319z" fill="#fada86"/><path d="m457.29 163.996c9.1-4.09 18.17 5.75 13.39 14.5-19.78 36.25-58.09 60.92-102.2 61.29-65.4.54-119.05-53.15-118.48-118.55.49-54.66 38.29-100.13 88.52-112.87 9.68-2.45 16.78 8.81 10.58 16.63-12.13 15.28-19.43 34.57-19.59 55.56-.524 65.63 67.666 110.499 127.78 83.44z" fill="#ffe773"/><path d="m301.147 179.314c10.867 15.524-11.591 32.643-23.798 18.149-29.386-34.892-34.87-82.405-17.606-121.424 6.142-13.881 27.296-6.683 23.662 8.054-8.017 32.512-1.897 67.165 17.742 95.221z" fill="#fff0a6"/><path d="m418.24 299.146c0 46.88-38 84.88-84.87 84.88h-255.96c-38.34 0-69.41-31.07-69.41-69.41 0-39.829 33.289-70.997 72.25-69.34-15.038-63.646 22.278-127.318 83.92-145.98 77.086-23.419 157.205 33.519 158.57 115.63 50.382-6.37 95.5 32.879 95.5 84.22z" fill="#cbe3fa"/><g fill="#eef7ff"><path d="m182.538 138.338c-29.553 17.973-49.16 51.069-45.972 96.696 1.265 18.109-14.094 26.757-13.974 26.629-16.89 10.065-38.695.611-42.848-18.608-13.845-64.068 24.612-126.327 85.747-144.152 24.448-7.129 38.806 26.203 17.047 39.435z"/><path d="m41.276 319.315c-4.602 19.227-33.011 15.995-33.27-3.773-.448-34.273 23.915-62.813 56.114-69.055 1.312 5.974 2.973 11.781 5.006 17.445 2.355 6.56.344 13.937-5.002 18.408-11.744 9.82-19.481 22.905-22.848 36.975z"/><path d="m334.728 257.76c-13.633 5.505-25.979 14.277-36.062 25.776-6.754 7.703-18.368 10.549-28.96 4.89-11.868-6.341-16.103-21.339-9.181-32.878 13.363-22.275 36.462-37.699 63.273-40.75 25.85-2.941 35.054 33.221 10.93 42.962z"/></g><g><path d="m39 463.026c-4.418 0-8 3.582-8 8v1c0 4.418 3.582 8 8 8s8-3.582 8-8v-1c0-4.419-3.582-8-8-8z"/><path d="m39 409.026c-4.418 0-8 3.582-8 8v20c0 4.418 3.582 8 8 8s8-3.582 8-8v-20c0-4.419-3.582-8-8-8z"/><path d="m115 447.026c-4.418 0-8 3.582-8 8v17c0 4.418 3.582 8 8 8s8-3.582 8-8v-17c0-4.419-3.582-8-8-8z"/><path d="m115 409.026c-4.418 0-8 3.582-8 8v4c0 4.418 3.582 8 8 8s8-3.582 8-8v-4c0-4.419-3.582-8-8-8z"/><path d="m377 409.026c-4.418 0-8 3.582-8 8v12c0 4.418 3.582 8 8 8s8-3.582 8-8v-12c0-4.419-3.582-8-8-8z"/><path d="m377 455.026c-4.418 0-8 3.582-8 8v9c0 4.418 3.582 8 8 8s8-3.582 8-8v-9c0-4.419-3.582-8-8-8z"/><path d="m301 455.526c-4.418 0-8 3.582-8 8v8.5c0 4.418 3.582 8 8 8s8-3.582 8-8v-8.5c0-4.419-3.582-8-8-8z"/><path d="m301 409.026c-4.418 0-8 3.582-8 8v5c0 4.418 3.582 8 8 8s8-3.582 8-8v-5c0-4.419-3.582-8-8-8z"/><path d="m454.01 156.698c-54.718 24.606-116.974-16.098-116.502-76.08.146-18.596 6.32-36.112 17.854-50.652 10.994-13.861-1.767-33.677-18.809-29.352-31.251 7.926-57.992 27.412-75.299 54.871-2.356 3.738-1.236 8.678 2.502 11.033 3.737 2.358 8.679 1.236 11.033-2.502 15.109-23.972 38.441-40.98 65.697-47.893 1.067-.271 1.914.053 2.505.966.362.561.823 1.688-.165 2.934-13.772 17.362-21.145 38.272-21.319 60.47-.563 71.74 73.79 120.156 139.064 90.797 1.291-.58 2.199-.015 2.733.562.543.586 1.044 1.549.354 2.813-14.818 27.151-40.16 46.635-69.937 53.95-16.245-13.922-37.335-22.345-60.357-22.345-51.213 0-92.878 41.665-92.878 92.878 0 4.418 3.582 8 8 8s8-3.582 8-8c0-42.391 34.487-76.878 76.878-76.878s76.878 34.487 76.878 76.878-34.487 76.878-76.878 76.878h-255.959c-33.859 0-61.405-27.547-61.405-61.406 0-20.431 10.123-39.468 27.079-50.923 3.661-2.473 4.624-7.446 2.15-11.107-2.475-3.662-7.447-4.625-11.107-2.15-21.366 14.434-34.122 38.427-34.122 64.18 0 42.682 34.724 77.405 77.405 77.405h152.432l-5.386 15.352c-.965 2.751-.357 5.81 1.587 7.983l11.896 13.295-24.296 23.744.358-11.115c.097-2.996-1.49-5.795-4.111-7.251l-36-20c-3.858-2.146-8.731-.755-10.878 3.108-2.146 3.862-.754 8.733 3.108 10.878l31.731 17.629-.843 26.12c-.233 7.206 8.474 10.976 13.588 5.979l44-43c3.062-2.993 3.225-7.865.37-11.056l-13.849-15.477 5.68-16.188h86.573c51.213 0 92.878-41.665 92.878-92.878 0-21.681-7.469-41.65-19.968-57.472 30.335-9.828 55.917-30.926 71.429-59.347 8.452-15.485-7.611-32.864-23.694-25.631z"/><path d="m97.648 293.173c6.312 0 10.222-7.098 6.643-12.45-12.644-18.898-19.327-40.96-19.327-63.801 0-63.354 51.542-114.896 114.896-114.896 44.223 0 85.019 25.846 103.933 65.846 1.889 3.994 6.658 5.701 10.652 3.813 3.994-1.889 5.701-6.658 3.813-10.652-21.192-44.815-66.612-75.006-118.397-75.006-72.176 0-130.896 58.72-130.896 130.896 0 26.02 7.617 51.158 22.028 72.699 1.542 2.305 4.075 3.551 6.655 3.551z"/></g></svg>