<svg id="Layer_1" enable-background="new 0 0 480 480" height="512" viewBox="0 0 480 480" width="512" xmlns="http://www.w3.org/2000/svg"><g><path d="m173.1 419.8-9.7-5.6 6.7-2.7c4.1-1.7 6.1-6.3 4.4-10.4s-6.3-6.1-10.4-4.4l-18.2 7.4-47.6-27.5v-55l15.6-12.1c3.5-2.7 4.1-7.7 1.4-11.2s-7.7-4.1-11.2-1.4l-5.7 4.5v-11.2c0-4.4-3.6-8-8-8s-8 3.6-8 8v11.2l-5.7-4.5c-3.5-2.7-8.5-2.1-11.2 1.4s-2.1 8.5 1.4 11.2l15.6 12.1v45.7l-8.5-4.9c-3.8-2.2-8.7-.9-10.9 2.9s-.9 8.7 2.9 10.9l8.5 4.9-39.8 22.9-18.2-7.4c-4.1-1.7-8.8.3-10.4 4.4-1.7 4.1.3 8.8 4.4 10.4l6.7 2.7-9.7 5.6c-3.8 2.2-5.1 7.1-2.9 10.9s7.1 5.1 10.9 2.9l9.7-5.6-1 7.2c-.6 4.4 2.5 8.4 6.8 9 4.4.6 8.4-2.4 9-6.8l2.7-19.5 39.5-22.8v45.7l-15.6 12.1c-3.5 2.7-4.1 7.7-1.4 11.2s7.7 4.1 11.2 1.4l5.7-4.5v11.2c0 4.4 3.6 8 8 8s8-3.6 8-8v-11.1l5.7 4.5c3.5 2.7 8.5 2.1 11.2-1.4s2.1-8.5-1.4-11.2l-15.6-12.1v-45.8l39.6 22.9 2.7 19.5c.5 4 4 6.9 7.9 6.9 4.8 0 8.6-4.3 7.9-9.1l-1-7.2 9.7 5.6c3.8 2.2 8.7.9 10.9-2.9 2.5-3.8 1.2-8.7-2.6-10.9z"/><path d="m7.4 342.6 9.7 5.6-6.7 2.7c-4.1 1.7-6.1 6.3-4.4 10.4 1.3 3.1 4.3 5 7.4 5 2.1 0 1.3.1 24.9-9.5 2.9-1.2 4.9-4 5-7.2 0-1 .1.1-3.3-24.7-.6-4.4-4.6-7.4-9-6.8s-7.4 4.6-6.8 9l1 7.2-9.7-5.6c-3.8-2.2-8.7-.9-10.9 2.9-2.4 3.9-1 8.8 2.8 11z"/><path d="m165.1 328.7-9.7 5.6 1-7.2c.6-4.4-2.5-8.4-6.8-9-4.4-.6-8.4 2.5-9 6.8l-2.7 19.5-10.9 6.3c-3.8 2.2-5.1 7.1-2.9 10.9s7.1 5.1 10.9 2.9l10.9-6.3c19.5 8 19.1 8 21.2 8 3.2 0 6.1-1.9 7.4-5 1.7-4.1-.3-8.8-4.4-10.4l-6.7-2.7 9.7-5.6c3.8-2.2 5.1-7.1 2.9-10.9s-7.1-5.1-10.9-2.9z"/><path d="m238.2 137.9-9.7-5.6 6.7-2.7c4.1-1.7 6.1-6.3 4.4-10.4s-6.3-6.1-10.4-4.4l-18.2 7.4-16.9-9.7c-3.8-2.2-8.7-.9-10.9 2.9s-.9 8.7 2.9 10.9l16.9 9.7 2.7 19.5c.6 4.4 4.7 7.4 9 6.8 4.4-.6 7.4-4.6 6.8-9l-1-7.2 9.7 5.6c3.8 2.2 8.7.9 10.9-2.9s.9-8.7-2.9-10.9z"/><path d="m230.2 46.9-9.7 5.6 1-7.2c.6-4.4-2.5-8.4-6.8-9-4.4-.6-8.4 2.5-9 6.8l-2.7 19.5-39.6 22.9v-45.8l15.6-12.1c3.5-2.7 4.1-7.7 1.4-11.2s-7.7-4.1-11.2-1.4l-5.7 4.5v-11.2c0-4.4-3.6-8-8-8s-8 3.6-8 8v11.2l-5.7-4.5c-3.5-2.7-8.5-2.1-11.2 1.4s-2.1 8.5 1.4 11.2l15.6 12.1v45.7l-39.6-22.9-3-19.4c-.6-4.4-4.6-7.4-9-6.8s-7.4 4.6-6.8 9l1 7.2-9.7-5.6c-3.8-2.2-8.7-.9-10.9 2.9s-.9 8.7 2.9 10.9l9.7 5.6-6.7 2.7c-4.1 1.7-6.1 6.3-4.4 10.4 1.3 3.1 4.3 5 7.4 5 2.1 0 1.2.2 21.2-8l39.6 22.9-39.6 22.9-18.2-7.4c-4.1-1.7-8.8.3-10.4 4.4-1.7 4.1.3 8.8 4.4 10.4l6.7 2.7-9.7 5.6c-3.8 2.2-5.1 7.1-2.9 10.9s7.1 5.1 10.9 2.9l9.7-5.6-1 7.2c-.7 4.8 3.1 9.1 7.9 9.1 3.9 0 7.4-2.9 7.9-6.9l2.7-19.5 39.6-22.9v45.7l-15.6 12.2c-3.5 2.7-4.1 7.7-1.4 11.2s7.7 4.1 11.2 1.4l5.7-4.5v11.2c0 4.4 3.6 8 8 8s8-3.6 8-8v-11.2l5.7 4.5c1.5 1.1 3.2 1.7 4.9 1.7 7.6 0 10.9-9.6 4.9-14.3l-15.6-12.1v-55l47.6-27.5 18.2 7.4c4.1 1.7 8.8-.3 10.4-4.4 1.7-4.1-.3-8.8-4.4-10.4l-6.7-2.7 9.7-5.6c3.8-2.2 5.1-7.1 2.9-10.9s-6.8-5.2-10.6-2.9z"/><path d="m464.7 350.4-16.6-9.6 13-5.3c4.1-1.7 6.1-6.3 4.4-10.4s-6.3-6.1-10.4-4.4l-24.5 10-55.3-31.9 26.1-15.1c3.8-2.2 5.1-7.1 2.9-10.9s-7.1-5.1-10.9-2.9l-26.1 15.1v-63.9l20.9-16.2c3.5-2.7 4.1-7.7 1.4-11.2s-7.7-4.1-11.2-1.4l-11.1 8.6v-19.1c0-4.4-3.6-8-8-8s-8 3.6-8 8v19.1l-11.1-8.6c-3.5-2.7-8.5-2.1-11.2 1.4s-2.1 8.5 1.4 11.2l20.9 16.2v63.9l-55.3-32-3.6-26.2c-.6-4.4-4.6-7.4-9-6.8s-7.4 4.6-6.8 9l1.9 13.9-16.6-9.6c-3.8-2.2-8.7-.9-10.9 2.9s-.9 8.7 2.9 10.9l16.6 9.6-13 5.3c-4.1 1.7-6.1 6.3-4.4 10.4 1.3 3.1 4.3 5 7.4 5 2.1 0 .7.3 27.5-10.6l55.3 31.9-55.3 32-24.5-10c-4.1-1.7-8.8.3-10.4 4.4s.3 8.8 4.4 10.4l13 5.3-16.6 9.6c-3.8 2.2-5.1 7.1-2.9 10.9s7.1 5.1 10.9 2.9l16.6-9.6-1.9 13.9c-.7 4.8 3.1 9.1 7.9 9.1 3.9 0 7.4-2.9 7.9-6.9l3.6-26.2 63.3-36.5 63.3 36.5 3.6 26.2c.5 4 4 6.9 7.9 6.9 4.8 0 8.6-4.3 7.9-9.1l-1.9-13.9 16.6 9.6c3.8 2.2 8.7.9 10.9-2.9 2.3-3.8 1-8.7-2.9-10.9z"/><path d="m422 257.9c0 3.3 2 6.2 5 7.4 30.2 12.3 28.9 12.1 31.1 12.1 3.2 0 6.1-1.9 7.4-5 1.7-4.1-.3-8.8-4.4-10.4l-13-5.3 16.6-9.6c3.8-2.2 5.1-7.1 2.9-10.9s-7.1-5.1-10.9-2.9l-16.6 9.6 1.9-13.9c.6-4.4-2.5-8.4-6.8-9-4.4-.6-8.4 2.5-9 6.8-4.5 32.9-4.2 30.3-4.2 31.1z"/><path d="m388.2 392.7-20.9-16.2v-22.5c0-4.4-3.6-8-8-8s-8 3.6-8 8v22.5l-20.9 16.2c-3.5 2.7-4.1 7.7-1.4 11.2s7.7 4.1 11.2 1.4l11.1-8.6v19.1c0 4.4 3.6 8 8 8s8-3.6 8-8v-19.1l11.1 8.6c3.5 2.7 8.5 2.1 11.2-1.4s2.1-8.5-1.4-11.2z"/><g fill="#eef7ff"><circle cx="44.6" cy="232.8" r="32"/><circle cx="436.6" cy="39.8" r="32"/><circle cx="307.6" cy="127.8" r="24.5"/><circle cx="251.6" cy="447.8" r="24.5"/></g><path d="m44.6 272.8c-22.1 0-40-17.9-40-40s17.9-40 40-40c4.4 0 8 3.6 8 8s-3.6 8-8 8c-13.2 0-24 10.8-24 24s10.8 24 24 24 24-10.8 24-24c0-4.4 3.6-8 8-8s8 3.6 8 8c0 22-17.9 40-40 40z"/><path d="m436.6 79.8c-22.1 0-40-17.9-40-40 0-4.4 3.6-8 8-8s8 3.6 8 8c0 13.2 10.8 24 24 24s24-10.8 24-24-10.8-24-24-24c-4.4 0-8-3.6-8-8s3.6-8 8-8c22.1 0 40 17.9 40 40s-17.9 40-40 40z"/><path d="m307.6 160.3c-17.9 0-32.5-14.6-32.5-32.5s14.6-32.5 32.5-32.5 32.5 14.6 32.5 32.5c0 4.4-3.6 8-8 8s-8-3.6-8-8c0-9.1-7.4-16.5-16.5-16.5s-16.5 7.4-16.5 16.5 7.4 16.5 16.5 16.5c4.4 0 8 3.6 8 8s-3.6 8-8 8z"/><path d="m251.6 480.3c-4.4 0-8-3.6-8-8s3.6-8 8-8c9.1 0 16.5-7.4 16.5-16.5s-7.4-16.5-16.5-16.5-16.5 7.4-16.5 16.5c0 4.4-3.6 8-8 8s-8-3.6-8-8c0-17.9 14.6-32.5 32.5-32.5s32.5 14.6 32.5 32.5-14.6 32.5-32.5 32.5z"/></g></svg>